<svg xmlns="http://www.w3.org/2000/svg" xmlns:xlink="http://www.w3.org/1999/xlink" version="1.1" id="Layer_1" x="0" y="0" viewBox="0 0 1384.8 920.5" enable-background="new 0 0 1384.8 920.5" xml:space="preserve"><path d="M1035.6 167.4c9.2-16.1 8.1-35.6 3.8-53 -1.4-5.8-3.4-11.3-5.7-16.8 -1.9-4.5-3.7-9.1-4.9-13.9 -2-8.5-2.2-17.4-1.9-26.1 -0.2 0.4-0.5 0.9-0.7 1.3 8.6-4.5 18.1-4.7 27.2-1.8 9.1 2.8 17.3 7.9 25.6 12.5 7.6 4.3 15.4 8.5 23.8 10.9 8.9 2.6 18.3 2.2 27.5 2.5 4.9 0.1 9.7 0.2 14.6-0.1 4.9-0.2 9.7-1 14.6-1.4 9.5-0.7 19.1-0.1 28.6 0.9 18.7 2 37.8 5.6 56.7 3 18-2.5 34.3-11.1 50.3-19.1 3.7-1.9 7.6-3.6 11.2-5.7 2.7-1.6 6.3-4.3 9.5-3.8 1.3 0.2 2.7 1.1 3.8 1.6 1.6 0.7 3.2 1.4 4.7 2.3 1.1 0.7 2.3 1.4 2.8 2.6 0.3 0.8 0.6 1.6 0.9 2.4 0.9 2.7 1.5 5 1.4 7.7 0 2.4-0.7 4.8-1.6 7.3 -1.3 3.8-3 7.5-4.5 11.2 -2.5 6.1-4.8 12.3-7 18.6 -3 8.6-5.8 17.3-8.5 25.9 -1.9 6.1-3.8 12.2-4.4 18.6 -0.6 6.1-0.1 12.8 2 18.6 1.2 3.4 3.1 6.4 5 9.5 2.4 3.8 4.5 7.7 6.2 11.9 7.3 17.2 8.7 36.2 5.7 54.5 -2.7 16.5-7.8 33-18.1 46.3 -4.7 6-9.8 11.2-16.3 15.1 -6.7 4-13.8 7.1-21.1 9.8 -7.7 2.9-15.5 5.6-23.3 8.4 -8.2 3-16.4 6-24.8 8.4 -8.5 2.5-17.2 4.4-26 5.4 -9.3 1-19 1.6-28.2 0.2 -4.8-0.7-9.2-2.3-13.7-4 -4.6-1.7-9.3-3.4-13.8-5.4 -4.2-1.9-8.4-3.8-12.8-5.3 -4.5-1.6-9-2.8-13.6-4 -9-2.3-18.2-4-27.1-6.6 -7.3-2.2-14.2-5.5-20.6-9.7 -13.1-8.6-24-20.6-31.3-34.5 -3.5-6.7-6.1-14-7.5-21.4 -1.7-9.3-2.3-19-2.2-28.4 0.1-15.1 1.9-30.6 7-45 1.5-4.2 3.3-8.5 6-12.2 1.1-1.6-1.5-3.1-2.6-1.5 -2.9 3.9-4.8 8.6-6.4 13.2 -2.3 6.5-3.8 13.3-4.9 20.1 -1.4 8.5-2 17.2-2 25.8 0 9.5 0.6 19.1 2.3 28.4 2.8 15.5 10.8 29.9 21.2 41.6 10.4 11.7 23.8 21.1 38.8 25.9 8.8 2.8 18 4.4 26.9 6.7 4.7 1.2 9.3 2.4 13.9 4 4.7 1.6 9.1 3.6 13.6 5.6 4.5 2 9.1 3.7 13.7 5.4 4.6 1.7 9.1 3.4 14 4.1 9.4 1.5 19.1 1.1 28.5 0.1 17.9-1.9 34.8-7.7 51.6-13.8 15.2-5.5 31.2-10.2 45.2-18.5 13.2-7.8 22.9-21.2 28.7-35.2 3.4-8.3 5.7-17.2 7.3-26.1 1.7-9.2 2.4-18.7 1.8-28 -0.6-9.2-2.5-18.4-5.8-27.1 -1.7-4.4-3.6-8.7-6-12.8 -1.9-3.2-4.1-6.3-5.7-9.7 -5.8-12.2-2.2-25.9 1.6-38.1 4.8-15.2 9.7-30.3 15.8-45 2.4-5.9 5.9-12.3 5.8-18.8 0-2.9-0.8-5.7-1.7-8.4 -0.3-0.9-0.6-1.9-1-2.8 -0.7-1.3-1.8-2.3-3-3.1 -2.7-1.8-5.8-3-8.7-4.3 -3.1-1.4-6.6 0.1-9.4 1.6 -3.5 1.8-6.9 3.8-10.4 5.6 -8.4 4.2-16.7 8.6-25.3 12.4 -8.4 3.7-17.2 6.8-26.2 8.4 -9.6 1.7-19.5 1.4-29.2 0.6 -19.3-1.6-38.5-5.6-57.9-4.1 -5 0.4-9.9 1.2-14.8 1.4 -5 0.2-10.1 0.2-15.2 0 -5-0.1-9.9-0.2-14.9-0.4 -4.4-0.2-8.7-1.1-12.9-2.5 -17.9-5.8-32.4-19.5-50.9-23.8 -9-2.1-17.9-1.2-26.1 3.1 -0.5 0.2-0.7 0.8-0.7 1.3 -0.2 7.9-0.1 15.9 1.3 23.8 0.9 5 2.5 9.8 4.5 14.5 1.9 4.7 3.9 9.4 5.4 14.3 2.5 8.5 4.2 17.4 4.5 26.4 0.3 10.2-1.5 20.5-6.6 29.4C1032.1 167.5 1034.7 169 1035.6 167.4L1035.6 167.4z"/><path d="M1092.8 204.5c-0.9-1.3 4.1-2.7 4.7-3 2.7-1 5.4-1.9 8.1-2.6 5.2-1.4 10.6-2 15.9-0.9 5.4 1.1 9.4 4.3 13.4 8 3.7 3.4 7 7.2 9.5 11.6 2.5 4.3 4.2 9 5.1 13.9 0.1 0.7 0.7 2.4-0.1 2.7 -0.3 0.1-1-0.1-1.4-0.1 -0.6 0-1.2 0-1.8 0.1 -2.2 0.2-4.4 0.8-6.6 1.4 -1.8 0.5-3.6 1.1-5.5 1 -2.6-0.2-5.1-0.8-7.6-1.5 -5.2-1.5-9.9-4-14.6-6.7 -4.8-2.8-9.5-6-13-10.4 -3-3.8-4.7-8.3-6.1-12.9 -0.6-1.8-3.5-1.1-2.9 0.8 1.4 4.7 3.2 9.3 6.1 13.2 3.4 4.5 7.8 7.9 12.6 10.8 5.1 3.1 10.4 6 16 7.8 2.9 0.9 5.8 1.5 8.8 1.8 2.3 0.3 4.4-0.3 6.6-0.9 2.3-0.6 4.7-1.4 7.2-1.5 1.2 0 2.3 0.3 3.4-0.2 1.1-0.5 1.9-1.6 2-2.8 0.1-1.2-0.2-2.6-0.5-3.8 -0.3-1.5-0.6-3-1.1-4.4 -0.8-2.6-1.8-5.2-3.1-7.6 -2.6-5.1-6.2-9.7-10.4-13.6 -4.4-4.1-8.9-7.9-14.9-9.4 -6.6-1.6-13.5-0.6-20 1.3 -1.7 0.5-3.3 1-5 1.6 -1.7 0.6-3.4 1.1-5 1.8 -2.1 1-4.6 3.6-2.8 6C1091.3 207.6 1093.9 206.1 1092.8 204.5L1092.8 204.5z"/><path d="M1200.4 234.5c-0.5-5.2-1.1-10.6 0.1-15.8 1-4.7 3.6-8.7 7.3-11.6 8.3-6.6 19.5-7 29.7-7.1 2.9 0 5.9-0.1 8.8 0 1.5 0.1 2.9 0.1 4.4 0.3 0.7 0.1 2.6 0.1 2.8 1 0.1 0.5-0.3 1.3-0.4 1.8 -0.2 0.5-0.3 1.1-0.4 1.7 -0.2 1-0.4 2-0.7 3 -0.6 2.1-1.3 4.1-2.1 6.1 -3.6 8.2-9.6 15.8-18 19.4 -10.4 4.4-22.5 3.1-33-0.1 -1.9-0.6-2.6 2.3-0.8 2.9 10.4 3.2 22.2 4.5 32.8 0.9 9.6-3.4 16.7-11.1 21-20.2 2.1-4.4 3.3-9.1 4.4-13.8 0.6-2.7-0.7-4.7-3.4-5.2 -2.9-0.6-6.1-0.6-9.1-0.6 -11.6-0.1-24.5-0.5-34.8 5.7 -4.8 2.9-8.7 7.1-10.7 12.4 -2.2 6.2-1.6 13-1 19.5C1197.6 236.4 1200.6 236.5 1200.4 234.5L1200.4 234.5z"/><path d="M1197.6 147.6c0.3-4.4 0.4-8.8 0.2-13.2 -0.2-4.4-0.8-8.7-1-13.1 -0.3-4.3 0-8.7 0.6-13 0.5-3.4 1-6.9 2.4-10 1.4-3.1 3.6-5.6 7.1-6.4 -0.6-0.3-1.2-0.7-1.8-1 3.2 8.3 4.3 17.2 4.6 26.1 0.2 4.5 0.2 8.9 0.2 13.4 0 4.5-0.2 9-1.6 13.4 -1.4 4.3-3.8 8.2-6 12.1 -2.4 4.2-4.7 8.3-7.1 12.5 -1.1 2-2.3 4-3.4 6 -1 1.8-1.9 4.3-3.6 5.5 -0.6 0.4-1.4 0.8-1.6-0.1 -0.2-0.8 0.2-1.7 0.4-2.5 0.2-1.1 0.4-2.1 0.7-3.2 0.6-2.3 2-4.5 3.1-6.6 1-2 2.1-4 3-6 2-4.3 3.5-8.7 4.2-13.3 0.3-1.9-2.6-2.7-2.9-0.8 -0.7 4.5-2.1 8.8-4.1 13 -0.9 2-1.9 3.9-3 5.9 -1.1 2-2.4 4.1-3.1 6.3 -0.3 1-0.5 2.1-0.7 3.1 -0.2 1.1-0.6 2.2-0.6 3.4 -0.1 1.5 0.4 3.1 1.7 3.9 3.7 2.3 6.7-2.7 8.2-5.3 2.6-4.5 5.1-9 7.7-13.5 2.5-4.4 5.1-8.8 7.4-13.2 2.3-4.4 3.7-8.9 4.1-13.9 0.4-4.8 0.3-9.7 0.2-14.6 -0.1-10.9-0.9-21.9-4.8-32.1 -0.3-0.8-1-1.2-1.8-1 -6.9 1.6-9.8 8.5-11 14.8 -0.8 4.5-1.4 9.1-1.4 13.7 0 4.7 0.7 9.3 1 14 0.3 5.4 0.3 10.8-0.1 16.2C1194.5 149.6 1197.5 149.5 1197.6 147.6L1197.6 147.6z"/><path d="M1168.1 82.9c0.9 5.2-5.3 8.5-4.8 13.7 0.2 2.3 2 3.8 2.9 5.8 0.9 2.1 1.5 4.4 3.3 5.9 1.6 1.3 3.7 2 5.6 0.9 1.7-0.9 2.6-2.9 2.9-4.7 0.9-5.2-0.1-10.5-1.4-15.6 -0.4-1.4-0.8-2.7-1.2-4.1 -0.4-1.2-0.7-2.4-1.4-3.4 -1.3-1.8-4.2-2.1-5.4 0 -1 1.7 1.6 3.2 2.6 1.5 -0.1 0.1 0 0 0.1 0 0.3 0.1 0.4 0.5 0.5 0.7 0.4 0.9 0.6 1.9 0.9 2.8 0.6 1.9 1.1 3.8 1.6 5.7 0.9 3.8 1.5 7.9 0.7 11.8 -0.2 1.1-0.7 2.8-2.2 2.7 -1.7-0.2-2.6-2.2-3.2-3.6 -0.6-1.6-1.3-3.1-2.3-4.6 -0.5-0.7-1.1-1.4-1.2-2.2 -0.1-0.9 0.3-1.9 0.7-2.7 0.9-1.9 2.3-3.5 3.1-5.4 0.9-2 1.3-4 0.9-6.2C1170.6 80.2 1167.7 81 1168.1 82.9L1168.1 82.9z"/><path d="M1070.3 197.4c-4.5 0.7-9.1-1.2-13.5 0.9 -1.9 0.9-3.5 2.5-5.1 3.9 -1.6 1.5-3.1 3.1-4.5 4.9 -2.9 3.7-4.4 7.8-5 12.5 -0.6 4.3-0.7 8.9-3 12.7 -1.8 3-7.1 5.2-5.2 9.5 0.9 2.1 3 2.1 4.9 2 2-0.1 4-0.2 5.9-0.6 3.8-0.7 7.3-2.6 9.2-6 2-3.6 2.1-7.8 3.4-11.6 0.8-2.5 2.4-4.5 4-6.5 1.6-2 3-4.2 4.3-6.4 2.6-4.5 4.4-9.4 5.9-14.4 0.5-1.9-2.4-2.7-2.9-0.8 -1.2 4-2.6 8-4.5 11.7 -1.9 3.7-4.4 6.9-6.8 10.3 -2.4 3.3-3.3 6.8-4.1 10.7 -0.7 3.5-1.7 6.9-5 8.7 -3.1 1.7-6.8 1.9-10.3 1.9 -0.8 0-1.4 0.2-1.4-0.8 0-0.8 0.6-1.3 1.1-1.8 1.4-1.3 2.8-2.4 3.8-4 4.4-7 2-16.1 6.5-23.2 1.2-1.9 2.7-3.5 4.2-5.1 1.5-1.6 3.1-3.3 5-4.5 2-1.2 4.3-1.2 6.6-1.1 2.4 0.2 4.7 0.4 7.1 0C1073 200 1072.2 197.1 1070.3 197.4L1070.3 197.4z"/><path d="M1285.1 204.9c-1.8 3.1-3.6 6.5-3.6 10.2 0.1 3.6 2.2 6.8 4 9.7 3.7 6.2 7.9 12.3 12.8 17.7 1.9 2.2 4.5 4.7 7.4 5.2 2.7 0.5 5.5-0.9 5.1-3.9 -0.2-1.6-1.1-3.3-1.7-4.8 -0.7-1.6-1.3-3.2-2.1-4.8 -1.5-3.2-3-6.3-4.8-9.4 -3.9-7-8.6-13.6-13.7-19.7 -1.2-1.5-3.4 0.7-2.1 2.1 7.9 9.4 14.4 19.9 19.3 31.2 0.6 1.4 1.1 2.7 1.7 4.1 0.3 0.9 1 2-0.2 2.2 -2.3 0.3-4.8-2.3-6.2-3.8 -4.3-4.6-8.1-10-11.4-15.3 -0.9-1.5-1.8-3-2.7-4.5 -0.8-1.5-1.7-3-2.1-4.7 -0.8-3.5 1.3-7 3-10C1288.7 204.7 1286.1 203.2 1285.1 204.9L1285.1 204.9z"/><path d="M1088.8 130.4c-5.6-0.4-11.2-0.4-16.8 0.2 -4.4 0.5-8.7 1.2-12.7 3.1 -3.7 1.7-6.9 4.4-8.5 8.3 -0.9 2.3-1.4 4.7-2.2 7 -0.9 2.3-2 4.6-3.2 6.8 -2.9 4.9-6.5 9.3-10.2 13.7 -0.7 0.8-0.5 2.2 0.7 2.5 5.3 1.4 11-0.8 16.1-2.1 2.7-0.7 5.4-1.3 8.1-2 2.2-0.6 4.4-1.4 6-3 3.2-3.3 2.5-8.1 3.6-12.3 1.1-4.3 3.9-8 7.7-10.3 4.5-2.6 10.7-4.2 11.8-10.1 0.3-1.9-2.5-2.7-2.9-0.8 -0.9 4.7-6.4 6.1-10 8.1 -3.6 2-6.6 5.3-8.3 9.1 -0.9 1.9-1.4 3.9-1.7 6 -0.3 2-0.4 4-1 5.9 -0.7 2.1-2.3 3.3-4.3 4 -2.3 0.8-4.6 1.2-7 1.8 -2.9 0.7-5.7 1.4-8.6 2.1 -2.9 0.7-5.8 1.4-8.8 0.7 0.2 0.8 0.4 1.7 0.7 2.5 6.2-7.3 12.4-15 15-24.4 0.6-2.1 1.1-4.3 2.4-6.2 1.1-1.5 2.6-2.8 4.2-3.7 3.5-2 7.6-2.9 11.6-3.4 6.1-0.8 12.2-0.9 18.3-0.4C1090.8 133.5 1090.8 130.5 1088.8 130.4L1088.8 130.4z"/><path d="M1280.8 135.9c-6.3-1.3-12.9 1.5-16.4 7 -0.5 0.7-0.1 1.6 0.5 2.1 2.8 2 5.7 3.9 8.5 5.9 2.5 1.8 4.8 3.8 6.2 6.5 1.4 2.7 2.2 5.6 3.4 8.3 1.2 2.7 2.9 5 5.3 6.7 2.3 1.7 5 2.7 7.8 3 3 0.3 4.6-1.8 4-4.6 -0.3-1.3-0.9-2.5-1.4-3.7 -0.7-1.7-1.5-3.4-2.3-5.1 -1.4-3-2.9-6-4.5-8.9 -3.4-6.2-7.1-12.6-12.7-17 -1.5-1.2-3.6 0.9-2.1 2.1 4.5 3.6 7.7 8.4 10.5 13.3 3 5.2 5.7 10.7 8.1 16.2 0.5 1.2 1.3 2.5 1.5 3.9 0 0.2 0.1 0.7 0 0.9 -0.3 0.2-1.5-0.1-1.8-0.1 -2.5-0.5-4.9-1.7-6.7-3.5 -3.9-3.8-4.3-9.5-7.1-14 -1.6-2.6-3.9-4.5-6.4-6.3 -2.9-2.1-5.9-4.1-8.8-6.2 0.2 0.7 0.4 1.4 0.5 2.1 2.7-4.3 8-6.6 13-5.6C1281.9 139.2 1282.7 136.3 1280.8 135.9L1280.8 135.9z"/><path d="M1212.1 204.7c2.6 5.5 4.9 11 8.4 16 0.7 1 1.5 2.2 2.5 3.1 1.1 0.9 2.4 1 3.7 1 3 0.1 5.5-0.5 8.1-1.9 2.3-1.2 4.2-2.8 4.8-5.4 0.6-2.9-0.3-5.9-0.7-8.7 -0.3-1.6-0.5-3.2-0.8-4.8 -0.2-1.3-0.2-2.9-1-4 -1.5-2.2-5.5-2.1-7.8-2.2 -1.7-0.1-3.3 0.5-5 0.6 -1.7 0.1-3.3 0.1-5.1 0.5 -1.6 0.4-3.4 0.7-4.9 1.4 -1.2 0.6-1.9 1.6-2.3 2.9 -0.6 1.9 2.3 2.6 2.9 0.8 0.3-1 0.9-1 1.8-1.3 1.3-0.4 2.5-0.7 3.8-1 1.2-0.3 2.3-0.2 3.6-0.3 1.2 0 2.4-0.4 3.6-0.5 1.1-0.1 2.3 0 3.5 0.1 0.9 0.1 2.8 0.1 3.5 0.8 0.2 0.2 0.2 0.9 0.3 1.2 0.1 0.6 0.2 1.3 0.3 1.9 0.2 1.3 0.4 2.6 0.6 3.8 0.4 2.4 1.2 5.1 1 7.6 -0.2 2.3-1.8 3.3-3.7 4.3 -2.2 1.1-4.2 1.4-6.7 1.4 -1.1 0-1.5-0.2-2.2-1 -0.8-1-1.5-2-2.2-3.1 -3-4.5-5.1-9.5-7.4-14.4C1213.8 201.5 1211.3 203 1212.1 204.7L1212.1 204.7z"/><path d="M452.1 578.6c-6-14.2-14.9-26.4-23.7-38.9 -4.3-6.2-8.5-12.5-12-19.2 -3-5.6-5.3-11.6-8.4-17.2 -5.7-10.4-10.8-20.6-9.1-32.9 1.2-8.4 5.2-15.8 8.7-23.4 2.6-5.8 4.9-11.7 7-17.6 3.7-10.6 6.6-21.5 11.3-31.7 6-13.2 14.9-24.6 24.7-35.2 16-17.1 31.5-35.6 49.6-50.4 6.6-5.4 13.8-10 21.2-14.3 4.8-2.8 9.6-5.4 14.5-8.1 4.4-2.4 9.3-4.3 13.4-7.2 0.8-0.5 1-1.2 1.7-1.8 -0.5 0.4-0.1 0.2 0.3-0.1 1-0.8 2.2-1.4 3.3-2 5.9-3.5 11.9-6.9 18.1-9.7 6.4-2.9 13.2-4.8 19.6-7.5 16.7-6.8 34.1-8.3 51.7-11.4 18.6-3.2 37.2-6.8 55.8-10.2 36.7-6.7 73.4-14.3 110.6-18 36-3.6 72.4-3.1 107.5 6.5 27.2 7.5 57.7 11.8 85.1 2.9 6.4-2.1 12.5-4.9 18.2-8.6 -0.7-0.6-1.5-1.1-2.2-1.7 -2.4 10.2-1.1 21.1 1.4 31.2 2.7 10.8 7 21.8 13.5 30.9 3.2 4.5 7.2 8.6 10.8 12.9 4 4.7 8 9.5 12.6 13.6 4.2 3.8 8.9 7.1 14.1 9.3 6.2 2.6 12.9 3.4 19.4 4.9 11.5 2.7 22.7 6.2 33.7 10.5 7.9 3.1 15.7 6.5 23.8 9.2 19.6 6.4 39.9 4.6 59.9 0.7 32.7-6.4 63.3-20.2 91.1-38.4 -0.7-0.6-1.5-1.1-2.2-1.7 -15.5 37.8-16.9 79.6-22.6 119.5 -1.4 9.8-2.9 19.7-5.3 29.3 -2.5 10.2-6.1 20-9.1 30 -2.8 9.4-5.1 18.9-5.6 28.8 -0.5 10.5-0.8 20.4-4.4 30.4 -3.4 9.3-8.8 18.2-16.4 24.7 -8.6 7.3-20 11.5-30.3 15.8 -20.3 8.3-41.2 14.8-62.5 19.7 -43.6 10.2-88.3 14.2-132.9 15.7 -20.7 0.7-41.6-0.1-62.2 2.1 -15.2 1.6-30.1 3.1-45.4 1.8 -24.9-2.1-50.1-5.5-75-1 -12.5 2.3-23.5 6.8-32.3 16.1 -10.1 10.8-23 18.3-37 22.9 -30.4 10-64 7.9-95.3 4.2 -34.4-4.1-68.4-11.3-102.7-15.9 -7-0.9-14.9-0.8-21.6-2.7 -7.9-2.2-15.3-8.1-21.6-13.1 -14.9-11.7-26.3-27-40.6-39.3 -6.9-6-14.5-11.1-22.9-14.9 -1.7-0.8-3.3 1.8-1.5 2.6 18.9 8.5 32.2 24 46.3 38.6 6.3 6.4 12.8 12.5 20 17.9 5.8 4.4 12.4 9.2 19.5 11.2 6.6 1.9 14.1 1.7 20.9 2.6 8.6 1.1 17.2 2.5 25.8 3.9 17.4 2.8 34.7 5.9 52.1 8.6 32.9 5.1 67.1 9.4 100.3 4.5 14.2-2.1 28.2-6.1 40.7-13.3 6.1-3.5 11.8-7.7 16.9-12.6 4.9-4.7 8.9-9.3 15-12.5 12.6-6.4 27.7-7.7 41.6-8 13.6-0.3 27.1 0.7 40.6 2.1 13.1 1.3 26.1 2.3 39.3 1.2 7.2-0.6 14.3-1.7 21.5-2.3 10.5-0.9 20.9-0.8 31.4-1 44.7-0.7 89.6-3.2 133.7-11 22.3-4 44.4-9.4 65.9-16.6 10.1-3.4 20.1-7.2 29.9-11.5 9-3.9 18.3-7.8 25.6-14.5 13.7-12.5 20.4-31.9 20.6-50.1 0.1-11.2 1.9-21.9 5.1-32.6 3-10 6.6-19.8 9.2-30 10.3-40.1 9.6-82.2 19.3-122.4 2.3-9.5 5.2-18.9 8.9-27.9 0.5-1.2-1.2-2.4-2.2-1.7 -23.9 15.6-49.9 28-77.6 35.2 -20.6 5.3-43.5 9.3-64.5 4.1 -16.6-4.1-32-12.3-48.3-17.3 -5.9-1.8-11.9-3.4-18-4.8 -6.5-1.5-13.2-2.3-19.3-5.4 -10.7-5.4-18.2-15.2-25.8-24.2 -3.9-4.7-7.9-9.1-11-14.4 -3.2-5.5-5.7-11.4-7.7-17.4 -3.8-11.7-6.4-24.9-3.6-37.1 0.3-1.2-1.1-2.4-2.2-1.7 -26.3 17-60.7 14.9-89.9 8.3 -16.4-3.7-32.3-8.2-49.1-10 -18.3-2-36.7-1.9-55.1-0.7 -36.4 2.4-72.3 9.4-108.1 16 -19.3 3.5-38.5 7.1-57.8 10.6 -17.7 3.2-36 4.9-53.5 9.4 -8.1 2.1-15.7 5.6-23.6 8.3 -6.4 2.2-12.5 4.8-18.4 8 -5.6 3-11.5 5.9-16.1 10.1 0 0 0.5-0.5 0.1-0.3 -0.8 0.5-1.6 0.9-2.4 1.4 -5.9 3.2-11.8 6.3-17.7 9.5 -8.3 4.6-16.5 9.3-24.1 14.8 -17.1 12.4-31 28.9-45.4 44.2 -10.7 11.3-21.6 22.4-29.7 35.9 -5.7 9.5-9.6 19.9-13 30.4 -4.3 13.1-9.1 25.7-15 38.2 -5.4 11.7-7.1 24.3-2.5 36.6 1.8 4.8 4.3 9.2 6.8 13.7 2.9 5.3 5.1 10.9 7.9 16.2 7 13.7 16.9 25.6 25.2 38.5 4.3 6.7 8.1 13.6 11.2 20.9C450.3 581.9 452.9 580.4 452.1 578.6L452.1 578.6z"/><path d="M1174 285.3c-2.3-1.9-4.4-4.1-6.1-6.5 -0.4-0.6-0.8-1.2-1.2-1.8 -0.3-0.5-1-1.3-1.1-1.9 -0.1-1.2 2.4-1.5 3.2-1.5 3.2-0.2 6.5 0.4 9.6 1.2 1.3 0.4 2.9 0.6 4 1.4 0.4 0.3 0.5 0.4 0.3 0.8 -0.3 0.6-1.1 1.1-1.6 1.6 -2.8 2.4-5.8 4.5-8.9 6.3 -1.7 0.9-0.2 3.5 1.5 2.6 3.6-2 7-4.4 10.1-7.2 1.4-1.2 2.6-2.9 1.8-4.8 -0.7-1.6-2.5-2.3-4-2.8 -3.9-1.3-8.3-2.2-12.4-2.1 -1.9 0-3.9 0.4-5.3 1.7 -1.6 1.5-1.4 3.3-0.4 5.1 2.2 3.8 5.1 7.2 8.5 10C1173.3 288.6 1175.5 286.5 1174 285.3L1174 285.3z"/><path d="M605.2 381c-3 9.7-6 20.8-1.5 30.5 2.3 5 6.6 8.2 10.4 12 3.3 3.3 5.9 7.2 7.9 11.4 8.1 16.9 7.4 37 18.3 52.7 6.1 8.7 14.8 15 24 20 4 2.1 8.5 4.1 13.1 4 4.5-0.1 8.8-2.9 9.7-7.5 0.9-4.8-1.5-9.6-3.9-13.5 -1.4-2.3-3-4.4-4.5-6.7 -1.5-2.4-2.9-4.8-4.3-7.3 -5.5-10.3-10-21-16.3-30.9 -6.6-10.2-14.4-19.5-22-28.9 -8-9.9-16-19.9-24.1-29.8 -2-2.5-4-4.9-5.9-7.4 -1.2-1.5-3.3 0.6-2.1 2.1 7.8 9.6 15.5 19.2 23.3 28.8 7.5 9.2 15.1 18.3 22.2 27.9 3.4 4.6 6.6 9.3 9.4 14.3 2.8 4.9 5.2 9.9 7.7 15 2.4 5 4.9 9.9 7.7 14.7 2.6 4.4 5.9 8.5 8.2 13.1 1.8 3.7 3.2 8.8-0.6 11.8 -3.4 2.6-8.5 1.2-12-0.2 -4.5-1.8-8.8-4.5-12.7-7.2 -4.1-2.8-8-6.1-11.3-9.8 -12.4-14.2-12.7-33.8-18.9-50.8 -1.5-4.1-3.4-8.1-5.8-11.7 -2.7-4-6.3-7.2-9.7-10.5 -3.7-3.6-6.2-7.8-6.8-13 -0.6-5 0.3-10.1 1.5-14.9 0.6-2.4 1.3-4.8 2-7.1C608.7 379.9 605.8 379.1 605.2 381L605.2 381z"/><path d="M887 565.5c0-6.8-0.9-13.5-2.7-20 -2-7-5-13.6-7.5-20.4 -1.2-3.3-2.2-6.7-2.4-10.3 -0.2-3.6 0.8-6.8 1.9-10.2 1-3 2-6.5 1.1-9.6 -0.7-2.6-2.7-5-5.1-6.1 -2.3-1.1-5-0.9-6.9 1 -2.1 2.2-2.1 5.5-2.1 8.4 0 6.9 0 13.9 0.3 20.8 0.6 13.5 2.1 27.3 6.4 40.2 1.2 3.5 2.6 7 4.2 10.3 0.8 1.8 1.8 3.5 2.7 5.2 0.8 1.4 1.6 2.9 2.9 4 1.1 1 2.7 1.9 4.3 1.6 1.5-0.3 2.5-1.6 2.7-3 0.3-2 0.4-4.1 0.5-6.1 0.1-2.1 0.1-4.1-0.4-6.1 -0.5-1.9-3.3-1.1-2.9 0.8 0.8 3.2 0.2 6.5 0 9.8 -0.1 1.3-0.1 2.2-1.5 1.3 -1.2-0.7-1.8-1.9-2.5-3.1 -3.1-5.3-5.6-10.9-7.4-16.7 -3.7-11.6-5.2-23.9-5.8-36.1 -0.3-6.2-0.4-12.5-0.4-18.7 0-2.8-1.1-13.8 4.7-10.9 5.9 2.9 3 10 1.5 14.7 -0.9 3.1-1.4 6.2-1.2 9.4 0.3 3.2 1.1 6.3 2.1 9.4 2.4 6.9 5.5 13.5 7.6 20.5 1.9 6.5 2.8 13.2 2.8 20C884 567.4 887 567.4 887 565.5L887 565.5z"/><path d="M940 443.5c1.7-13.7 4.8-27.2 8.9-40.3 2.1-6.6 4.3-13.1 6.7-19.6 1.1-3 2.1-6 3.6-8.9 1.1-2.2 2.6-4.5 4.7-5.8 2.3-1.4 5-1.3 7.2 0.2 2.4 1.7 3.7 4.5 4.1 7.3 0.6 3.7-0.2 7.5-0.7 11.2 -0.6 3.8-1.2 7.5-1.8 11.3 -2.5 15.4-5 30.8-7.5 46.3 -4.6 28.4-8.3 57.2-17 84.7 -2.1 6.6-4.5 13.1-7.3 19.5 -1.4 3.2-2.9 6.4-4.6 9.5 -0.8 1.6-3.1 6.5-5.6 5.2 -1.2-0.6-1.7-2.3-2-3.4 -0.4-1.3-0.6-2.6-0.8-3.9 -0.2-2.6 0-5.3 0.4-7.9 0.7-5.4 2.2-10.8 1.9-16.2 -0.1-2.6-0.7-5.2-1.9-7.5 -1.3-2.5-3.3-4.4-5.2-6.4 -0.9-1-1.7-2-2.1-3.3 -0.6-2 0-4 0.5-5.9 1-3.6 2-7.1 3-10.7 4.1-14.7 8-29.5 12.1-44.2 1-3.6 2-7.1 3-10.7 0.5-1.9-2.4-2.7-2.9-0.8 -4.5 15.4-8.6 30.9-12.8 46.4 -1.1 3.9-2.2 7.8-3.3 11.7 -0.5 1.9-1.1 3.7-1.6 5.6 -0.6 1.9-1.2 3.9-1.4 5.9 -0.3 3.3 1.2 6 3.4 8.4 2 2.2 4.1 4.1 5 6.9 1.8 5.2 0.6 10.9-0.3 16.2 -0.9 5.6-2 11.6-0.2 17.2 0.8 2.6 2.4 5.7 5.5 5.8 3.1 0.1 5.4-2.8 6.8-5.3 3.5-6.4 6.4-13.1 9-19.9 10.7-28.1 14.8-58.2 19.6-87.7 2.6-16.2 5.2-32.5 7.9-48.7 0.6-3.9 1.3-7.9 1.9-11.8 0.6-3.9 1.4-7.9 1.8-11.8 0.6-6.3-1.1-13.7-7.6-16.4 -5.9-2.4-10.9 1.9-13.7 6.8 -1.5 2.6-2.5 5.5-3.6 8.3 -1.3 3.5-2.6 7-3.9 10.6 -4.7 13.5-8.6 27.2-11.1 41.3 -0.6 3.6-1.1 7.3-1.6 10.9C936.8 445.4 939.8 445.4 940 443.5L940 443.5z"/><path d="M1158.9 516.9c1-6.7-1.1-14.1-7.1-17.9 -1.4-0.9-3-1.5-4.6-1.9 -2.2-0.5-4.4-0.4-6.6-0.8 -3.5-0.6-6.6-2.3-9.2-4.6 -5.9-5.1-9.7-12.2-14-18.6 -5.1-7.7-10.6-15.3-16.4-22.6 -2.8-3.6-5.6-7.2-8.7-10.5 -2.6-2.8-5.8-5.5-9.7-5.8 -0.9-0.1-1.9-0.1-2.8 0.2 -1 0.4-1.3 1.5-1.5 2.4 -0.5 2-0.4 4 0.1 6 1.1 4.2 3.9 7.5 6.6 10.7 3 3.5 5.5 7.2 7.5 11.3 2.1 4.2 4 8.6 6 12.9 2 4.3 3.9 8.7 6 13 1.8 3.7 3.8 7.4 7 10.1 6 5.2 14.2 5.9 21.6 7.7 7 1.7 14 5.2 17.8 11.6 0.9 1.5 1.6 3.2 2 4.9 0.3 1.2 1.7 1.4 2.5 0.7 2.5-2.1 3.5-6 3.5-9.2 0-1.9-3-1.9-3 0 0 2.4-0.8 5.4-2.6 7 0.8 0.2 1.7 0.4 2.5 0.7 -1.7-7-7.1-12.3-13.3-15.5 -6.8-3.5-14.4-3.8-21.5-6.2 -3.6-1.2-6.9-3-9.3-5.9 -2.7-3.1-4.3-7.1-6-10.8 -2-4.4-4-8.8-6.1-13.2 -1.9-4.1-3.6-8.2-5.8-12.1 -2.4-4.3-5.6-7.8-8.7-11.7 -2.8-3.5-5.3-8-3.5-12.6 -0.3 0.3-0.7 0.7-1 1 3.7-0.8 6.9 2 9.3 4.5 2.9 3.1 5.6 6.5 8.3 9.9 5.5 6.9 10.8 14.1 15.7 21.5 4.2 6.2 7.9 12.9 13 18.3 2.3 2.4 5 4.6 8 6 1.5 0.7 3.1 1.2 4.7 1.5 2.1 0.4 4.3 0.3 6.4 0.7 7.4 1.4 11 9.2 9.9 16.2C1155.8 518 1158.7 518.8 1158.9 516.9L1158.9 516.9z"/><path d="M1192 429.6c-9.5-3.9-18.9-7.8-28.4-11.7 -8.2-3.4-16.5-6.7-24.5-10.6 -16.1-7.7-31.2-17.5-42.4-31.7 -4.8-6.1-9.7-16.5-19.1-15.1 -0.6 0.1-1.2 0.9-1.1 1.4 0.7 5.2-0.9 10.3-1.4 15.4 -0.5 5.2 0.6 10.1 4.4 13.9 1.9 1.9 4.1 3.6 6.3 5.3 2.2 1.7 4.4 3.4 6.6 5.1 4.5 3.3 9.1 6.5 13.7 9.5 9.4 6 19.2 11.4 29.3 16.1 5 2.3 10.2 4.5 15.3 6.5 5.3 2.1 10.7 4 16.3 5.2 6.2 1.4 12.8 1.8 19 0.4 2.2-0.5 4.9-1.6 6.6-3.2 1.7-1.6 1.2-3.7 0-5.5 -1-1.6-3.6-0.1-2.6 1.5 0.2 0.4 0.8 1.1 0.7 1.5 -0.1 0.5-1.1 0.9-1.5 1.1 -2.2 1.2-4.4 1.9-6.9 2.2 -5.3 0.7-10.7 0-15.9-1.2 -10.2-2.4-20.1-6.7-29.6-11.1 -18.7-8.7-36.5-19.8-52.4-33 -2.1-1.7-4.2-3.6-5.4-6.1 -1.1-2.3-1.2-4.9-1-7.4 0.4-5.4 2.1-10.7 1.4-16.2 -0.4 0.5-0.7 1-1.1 1.4 3.6-0.5 6.6 2.1 8.8 4.6 2.7 3 4.8 6.4 7.2 9.6 5.5 7 12 13.1 19.2 18.4 14.1 10.3 30.3 17 46.4 23.6 10.4 4.3 20.8 8.5 31.2 12.8C1193 433.2 1193.7 430.3 1192 429.6L1192 429.6z"/><path d="M633 574.5c0.1 6.6 2.6 12.6 6.3 18 1.8 2.5 3.7 4.9 5.6 7.4 2.3 2.9 4.6 5.9 7 8.7 4.8 5.6 10.2 10.5 16.5 14.4 6 3.7 12.6 6.4 19.2 8.6 3.3 1.1 6.6 2.1 10 3.1 1.7 0.5 3.5 1 5.2 1.5 1.7 0.5 3.5 1.1 5.2 1.1 3.1 0.1 5.6-2 6.2-5.1 0.6-3.2-0.8-6-3-8.2 -2.6-2.7-6-4.8-8.9-7.1 -3.3-2.5-6.6-5.1-10-7.6 -6.5-5-13-9.9-19.5-14.9 -6.7-5.1-13.4-10.2-20.1-15.3 -3.4-2.6-6.7-5.1-10.1-7.7 -2.4-1.8-6.4-4.6-8.7-1C633.2 571.6 633 573.1 633 574.5c0 1.9 3 1.9 3 0 0-0.9-0.1-2.7 1.1-2.9 1.5-0.2 3.5 1.9 4.6 2.8 3 2.3 6.1 4.6 9.1 6.9 6.1 4.7 12.2 9.3 18.4 14 11.9 9.1 23.9 18.2 35.8 27.3 2.3 1.8 5.4 3.7 6.3 6.6 0.7 2.4-0.3 5.1-3.1 5 -1.6-0.1-3.2-0.7-4.7-1.1 -1.6-0.4-3.2-0.9-4.8-1.4 -3.1-0.9-6.2-1.8-9.2-2.8 -6-2-12-4.4-17.6-7.5 -5.7-3.2-10.8-7.3-15.3-12.2 -2.7-2.9-5.1-6-7.5-9.1 -2-2.6-4.1-5.1-6.1-7.8 -4-5.4-6.9-11.2-7-18C636 572.6 633 572.6 633 574.5L633 574.5z"/><path d="M519.3 616.6c-1-4.9 1.7-10 5.6-13 4.6-3.5 11-4 16.3-5.9 2.8-1 5.5-2.2 7.8-4 2.3-1.8 4.2-4 6.2-6.1 2.1-2.2 4.2-4.1 7-5.3 2.9-1.3 6.1-1.8 9.2-2.1 6.4-0.8 13-1.6 19.4-0.5 6.3 1.1 11.3 4.5 15.8 8.9 4.6 4.5 8.7 9.4 13.2 14 4.7 4.7 9.5 9.3 14.7 13.5 4.8 3.9 9.9 7.4 15.1 10.8 4.7 3.2 9.5 6.4 13.3 10.7 1.9 2 3.9 4.5 4.8 7.2 1.1 3.1-2.9 4.8-5.2 5.6 -5.3 1.7-11.2 0.5-16-2 -5.4-2.7-9.6-7.2-13.4-11.8 -3.9-4.7-7.6-9.5-11.9-13.9 -8.3-8.4-18.3-15-29.3-19.3 -11-4.4-23-6.3-34.8-5.2 -11.7 1.1-22.9 5.1-32.6 11.7 -2.5 1.7-4.9 3.5-7.2 5.5 -1.5 1.3 0.7 3.4 2.1 2.1 9.3-8 20.5-13.6 32.7-15.7 12.1-2.1 24.8-0.6 36.3 3.5 11.5 4.1 22 10.9 30.6 19.5 8.6 8.7 14.9 20.7 26.3 26.3 5.1 2.5 11.1 3.8 16.8 2.4 2.6-0.6 5.5-1.9 7.4-3.9 2.5-2.7 1.4-5.9-0.3-8.7 -6.2-10.4-17.6-15.9-27.1-22.8 -11.1-8.1-20.6-18-29.9-28.1 -4.3-4.6-8.8-9.1-14.7-11.6 -6.2-2.5-13-2.5-19.5-2 -6.4 0.6-13.6 0.9-19.2 4.2 -5.2 3.1-8.2 8.8-13.5 11.9 -5.4 3.2-11.7 3.8-17.5 6 -5.2 2-9.3 6-11.1 11.3 -0.8 2.4-0.9 4.9-0.4 7.4C516.8 619.3 519.7 618.5 519.3 616.6L519.3 616.6z"/><path d="M506.8 466.6c3.9 4.3 7.9 8.6 11.8 12.8 3.6 3.9 7.1 7.9 11 11.5 3.4 3.1 7.2 6 11.6 7.5 2.1 0.7 4.4 1.1 6.7 0.9 0.9-0.1 2.3-0.1 3-0.6 0.9-0.5 1.3-2 1.5-3 1.1-4.4-0.8-9.1-3.6-12.4 -3.2-3.9-7.6-6.6-10.6-10.6 -2.9-3.9-4.7-8.6-7.6-12.5 -2.7-3.7-6.3-6.5-10.6-8.3 -2.4-1-4.9-1.6-7.5-1.8 -2.3-0.2-5.2-0.4-6.6 1.9 -0.7 1.2-1 2.7-1.3 4 -0.3 1.5-0.5 3-0.7 4.5 -0.3 3.1-0.1 6.1 0.4 9.2 0.3 1.9 3.2 1.1 2.9-0.8 -0.5-2.9-0.6-5.9-0.3-8.9 0.2-1.5 0.4-3 0.8-4.4 0.2-0.6 0.3-1.3 0.5-1.8 0.3-0.8 0.9-0.8 1.7-0.8 4.9-0.2 9.8 1.5 13.7 4.4 4.3 3.2 6.6 8 9.2 12.6 1.3 2.3 2.7 4.5 4.5 6.5 1.8 2 3.9 3.7 5.9 5.6 3.8 3.5 8.5 9.2 5.4 14.6 0.3-0.2 0.6-0.5 0.9-0.7 -8.2 1.9-15.4-4.4-20.7-9.8 -6.9-7-13.5-14.5-20.2-21.8C507.6 463 505.5 465.1 506.8 466.6L506.8 466.6z"/><path d="M695.9 325.2c-4.6 0.6-9.5 1.3-14.1 0 -3.5-1-6.9-3.2-8.2-6.8 -0.8-2.1-0.9-4.3-0.9-6.5 0-2.4 0-4.8 0-7.3 0-4.8-0.2-9.6-0.1-14.4 0.1-2.9 0.3-7.1 3.3-8.5 3.2-1.5 6.4 1.8 7.8 4.4 2 3.8 1.4 8.6 2.2 12.7 0.7 4.1 2.9 7.5 5.3 10.9 2.2 3.2 4.6 6.5 4.6 10.5 0 3-1.3 6.3-4.6 6.8 -1.9 0.3-1.1 3.2 0.8 2.9 3.5-0.6 5.8-3.6 6.5-6.9 0.8-3.8-0.1-7.5-2-10.8 -2.3-3.9-5.7-7.4-7-11.8 -1.5-4.8-0.6-10.1-2.6-14.8 -1.5-3.6-4.9-7-9-7.2 -4.3-0.1-6.9 3.5-7.7 7.3 -0.4 2-0.5 4-0.4 6 0 2.9 0 5.8 0.1 8.7 0 2.9 0 5.8 0.1 8.7 0 2.5 0 5.1 0.4 7.6 0.9 5.2 4.4 8.9 9.2 10.8 5.5 2.2 11.7 1.3 17.4 0.5C698.6 327.8 697.7 324.9 695.9 325.2L695.9 325.2z"/><path d="M844.7 304.9c0.9-4.7 0.9-9.5-0.2-14.2 -1-4.7-3.2-8.7-5.7-12.7 -2.2-3.5-5-8.2-2.1-12.1 1.5-2 3.6-3.5 5.4-5.2 2.1-1.9 4.1-3.7 6.2-5.6 2-1.8 4-3.6 6-5.4 1.8-1.6 3.6-3.4 5.7-4.6 1.7-1 3.9-1.5 5.6-0.1 1.2 1 1.7 2.7 1.8 4.1 0.5 4.3-1 8.6-1.9 12.7 -1.2 5.3-2.6 10.6-4 15.8 -0.8 3-1.7 5.9-2.6 8.9 -0.8 2.8-1.6 5.7-2.7 8.4 -1.9 4.5-6.4 7.1-11.2 6.5 -1.9-0.2-1.9 2.8 0 3 4.5 0.5 9.1-1.4 11.9-4.9 1.7-2.1 2.5-4.6 3.3-7.1 0.9-2.8 1.7-5.6 2.5-8.4 1.7-5.8 3.2-11.6 4.7-17.4 0.7-2.9 1.4-5.8 2.1-8.8 0.5-2.2 0.9-4.3 1-6.5 0.1-3.7-0.8-8-4.5-9.7 -5.1-2.3-9.8 2.2-13.3 5.4 -4.5 4.1-9 8.1-13.4 12.2 -1.9 1.7-4 3.3-5.4 5.5 -1.4 2.1-1.7 4.5-1.2 6.9 1.1 5.5 5.4 9.8 7.5 15 2.2 5.5 2.8 11.6 1.7 17.4C841.4 306 844.3 306.8 844.7 304.9L844.7 304.9z"/><path d="M863.2 367.7c-0.9-8.9-1.7-18.1 0.5-26.9 1.1-4.2 2.9-8.3 5.7-11.7 2.8-3.3 6.2-6 9.9-8.2 3.8-2.3 7.9-4 12.1-5.6 1.9-0.7 4.2-1.5 5.9 0.1 1.2 1.1 1.7 2.9 1.7 4.5 0 4.4-4.2 7.7-7.1 10.5 -3.6 3.6-7.2 7.2-10.6 10.9 -7.7 8.4-14.9 17.3-21.6 26.6 -1.1 1.6 1.5 3.1 2.6 1.5 6.5-9 13.5-17.6 21-25.8 3.7-4 7.5-7.9 11.4-11.8 3.2-3.2 6.9-6.7 7.3-11.5 0.3-3.8-2-8.2-6-8.8 -2.6-0.4-5.1 0.7-7.4 1.6 -2.2 0.9-4.4 1.8-6.6 2.8 -8.5 4.1-16 10.2-19.6 19.2 -4.2 10.2-3.2 21.7-2.1 32.4C860.4 369.6 863.4 369.7 863.2 367.7L863.2 367.7z"/><path d="M764.1 550.9c1.7 4.6 3.2 9.2 3.9 14.1 0.7 4.6 0.5 9.3-0.1 13.9 0.5-0.4 1-0.7 1.4-1.1 -11.5-0.7-17.3-13.2-21.2-22.4 -2.2-5.3-4.4-10.7-7.8-15.3 -3.4-4.5-8.1-7.3-12.3-11 -2.1-1.9-4-4-5-6.6 -1.1-2.8-1.4-5.8-1.6-8.7 -0.4-6.2-1.2-12-3.2-17.9 -4.1-11.9-11.2-22.2-16.9-33.3 -6.3-12.2-11.2-26.8-6.4-40.3 -0.8 0.2-1.7 0.4-2.5 0.7 13 10.8 15.6 29 22.1 43.7 1.7 3.8 3.6 7.4 6.1 10.8 2.9 3.9 6.4 7 10.1 10 4.1 3.4 7.5 7.2 10.2 11.8 2.7 4.5 4.8 9.4 6.9 14.2C753.2 525.8 758.7 538.4 764.1 550.9c0.8 1.8 3.4 0.3 2.6-1.4 -4.8-11.2-9.7-22.4-14.6-33.6 -4.3-9.7-8.2-20.3-16-27.8 -3.7-3.5-8-6.4-11.3-10.3 -2.7-3.1-4.8-6.7-6.5-10.4 -3.7-7.6-6-15.8-9-23.7 -3.3-8.6-7.5-17.1-14.7-23.1 -0.9-0.7-2.1-0.5-2.5 0.7 -4.4 12.4-1.1 25.7 4.1 37.3 5.3 11.8 13 22.4 17.8 34.4 2.4 5.8 3.9 11.8 4.3 18.1 0.4 6.2 0.8 12.4 5.1 17.4 3.6 4.3 8.8 6.9 12.6 10.9 4.2 4.4 6.6 10 8.9 15.5 2.5 6 5 12 9.1 17 3.9 4.7 9.1 8.3 15.4 8.7 0.6 0 1.4-0.5 1.4-1.1 0.7-4.9 0.9-9.8 0.2-14.7 -0.7-5.1-2.3-10-4-14.8C766.3 548.3 763.4 549.1 764.1 550.9L764.1 550.9z"/><path d="M961.9 312.4c0-4 0-8-0.1-12 0-3.7-0.2-7.5 0-11.2 0.1-1.8 0.4-3.4 1.3-5 0.8-1.3 1.8-2.6 2.3-4.1 0.8-2.4 0.2-5.7-2.5-6.6 -3.1-1-5.7 1.4-7 4 -1.5 3-2.6 6.3-3.3 9.6 -0.8 3.5-1.2 7.1-1.6 10.7 -0.3 3.3-0.6 6.7-0.6 10 0 3.2 0.4 7.4 2.9 9.8 2.7 2.5 7.1-1.2 8.6-3.4 1.1-1.6-1.5-3.1-2.6-1.5 -0.7 1-1.6 1.7-2.6 2.2 -0.4 0.2-1 0.6-1.5 0.3 -0.5-0.3-0.8-1.5-1-2 -0.9-2.5-0.8-5.1-0.7-7.7 0.3-5.8 0.7-11.6 1.9-17.2 0.6-2.8 1.4-5.6 2.6-8.2 0.5-1 1-2.2 1.8-3 0.7-0.6 2-1.3 2.8-0.4 1.5 1.8-1.2 4.7-2 6.1 -1.4 2.4-1.6 5.1-1.6 7.9 0 7.2 0.1 14.4 0.1 21.6C958.9 314.3 961.9 314.3 961.9 312.4L961.9 312.4z"/><path d="M396.1 471.1c-6.9 1.5-10.6 7.5-12.8 13.7 -2.5 7.3-3.6 15.1-5.2 22.6 -2.3 10.6-4.7 21.3-8.7 31.5 -3.5 8.8-8.1 17.3-13 25.3 -20.3 32.8-49.8 59.9-82.4 80.3 -17.8 11.1-36.9 19.9-56.6 27 -10.1 3.6-20.3 6.9-30.5 9.9 -9.4 2.7-19.3 5.1-29.2 4.7 -9-0.4-17.5-3.7-24-10 -5.3-5.1-9.1-11.6-12.6-18 -3.7-6.8-7-13.7-11.2-20.2 -3.9-6-8.9-12.2-15.4-15.7 -3.9-2.1-8.4-2.2-11.4 1.4 -2.9 3.4-4.8 8.1-6.8 12.2 -4.5 9.4-8.2 19.3-10.5 29.6 -4.1 18.6-3.3 38.2 4.6 55.6 3.7 8.1 8.9 15.5 15.5 21.5 6.4 5.8 12.7 12 20 16.6 7.6 4.8 16 7 24.8 8.5 9.1 1.6 18.2 2.5 27.4 3 38.4 1.7 77.8-5.5 113.2-20.3 37.8-15.8 69.8-41.9 100.1-69 7.7-6.9 15.4-13.7 22.9-20.8 3.8-3.6 7.4-7.4 10.7-11.5 2.9-3.7 5.5-7.6 8.2-11.4 6-8.4 12.1-16.7 18.2-25.1 2.7-3.8 5.3-7.6 8.4-11 2.6-2.8 5.4-5.3 7.8-8.3 2.2-2.8 4-5.8 4.5-9.4 0.6-4.3-0.7-8.7-2.2-12.6 -3.1-8.3-8.3-15.6-13.9-22.5 -5.8-7.1-11.9-13.8-16.7-21.5 -5.3-8.5-9.5-17.7-13-27.1 -3.4-9.1-6.1-18.5-8.5-27.9 -0.5-1.9-3.4-1.1-2.9 0.8 4.7 18.9 10.9 37.8 21.1 54.6 4.6 7.6 10.3 14.2 16 21 5.7 6.8 11.3 14.1 14.6 22.5 1.5 3.9 3.1 8.5 2.4 12.8 -0.6 3.5-2.8 6.5-5.2 9.1 -2.6 2.9-5.5 5.5-8.1 8.5 -3 3.5-5.5 7.4-8.2 11.1 -5.8 8-11.7 16-17.4 24.1 -2.8 4-5.5 8.1-8.6 11.8 -3.4 4-7.1 7.8-10.9 11.4 -14.8 14-30.1 27.6-45.9 40.5 -15.8 13-32.3 25.1-50.1 35.2C261.8 754 224 764.4 186.2 767c-18.6 1.3-37.4 0.7-55.8-2.7 -8.7-1.6-16.8-3.9-24.3-8.9 -7.1-4.8-13.7-10.9-19.8-16.9 -12.9-12.7-19.4-31-19.9-48.9 -0.6-20.6 6.1-40.7 15.6-58.7 1-2 2-4.2 3.6-5.8 2-2.2 4.6-1.9 7.1-0.7 3.4 1.7 6.3 4.5 8.9 7.3 4.9 5.4 8.5 11.9 11.9 18.3 6.7 12.5 13 26.7 25.9 33.9 17.2 9.7 38 3.3 55.4-2.1 20.1-6.2 40-13.3 58.8-22.7 33.9-16.9 64.9-41.4 88.9-70.8 11.6-14.2 21.7-29.9 28.9-46.9 4-9.6 6.5-19.8 8.7-30 1.7-7.9 3-16 5.3-23.8 1.8-6 4.7-12.4 11.4-13.9C398.8 473.5 398 470.7 396.1 471.1L396.1 471.1z"/><path d="M347.2 579.3c2 4.5 5.8 8 9.8 10.8 4.1 2.9 8.8 5.2 13.6 6.6 6.1 1.7 12 3.5 17.6 6.5 4.4 2.3 9.4 5.9 10.4 11.1 1 5-3.1 9-7.6 10.5 -2.3 0.7-4.7 0.9-7 0.1 -2.3-0.9-4.4-2.5-6.3-4 -2-1.5-4.1-3-6.4-4 -2.7-1.1-5.6-1.7-8.4-2.2 -2.9-0.5-6-1-8.7-2.2 -2.5-1.1-3.9-3.4-5.9-5.2 -2.4-2.2-4.6-4.6-6.3-7.4 -0.8-1.4-1.6-2.8-2.1-4.3 -0.3-0.8-0.8-1.8-0.8-2.6 0-0.7 0.5-1.4 0.9-2 2.8-4.2 7.1-7.3 9.8-11.7 1-1.6-1.6-3.1-2.6-1.5 -2.6 4.1-6.6 7.3-9.5 11.2 -0.7 1-1.5 2.2-1.6 3.4 -0.2 1.7 0.7 3.5 1.3 5 1.2 2.8 2.8 5.3 4.7 7.7 1.9 2.4 4.3 4.2 6.3 6.5 2.1 2.3 4.4 3.6 7.3 4.5 6 1.8 12.4 1.7 17.7 5.3 4.3 2.9 8.5 7.2 14.2 6.9 5-0.3 10.3-2.9 12.7-7.4 2.8-5.1 0.8-10.8-3-14.8 -4.3-4.5-10.4-7.3-16.2-9.4 -3.4-1.3-6.9-2.1-10.4-3.2 -2.8-0.8-5.6-2-8.1-3.5 -5.2-2.9-10.4-6.8-12.9-12.4C349 576 346.4 577.5 347.2 579.3L347.2 579.3z"/><path d="M367.8 542c-0.4 3.9-0.7 7.8 0.3 11.6 1 3.6 3.2 6.5 5.8 9.1 5.1 5 11 8.6 17.7 11.2 6.4 2.4 13.2 4.6 19.9 5.6 6.4 0.9 13.2 0.4 18.2-4.1 2.5-2.3 3.7-5.5 1.7-8.6 -2-3.1-5.8-4-9.2-4.7 -7.6-1.7-15.5-2.1-23-4 -1.6-0.4-3.4-0.6-4.5-1.9 -0.9-1.1-1.6-2.4-2.4-3.6 -1-1.4-1.6-2.7-2-4.4 -0.3-1.8-0.5-3.6-0.8-5.4 -0.8-3.7-2.1-7.2-4-10.4 -0.7-1.1-1.5-2.1-2.1-3.3 -0.4-0.9-0.8-1.9-1.2-2.8 -0.8-1.8-1.6-4.2-3.1-5.6 -1.6-1.5-3.4-0.2-4.2 1.4 -1 2.1-1.4 4.4-1.9 6.6 -0.2 0.9-0.4 1.9-0.7 2.8 0 0.1-0.2 0.5-0.1 0.2 -0.2 0.4-0.4 0.8-0.5 1.2 -0.4 1-0.8 2-1.1 3 -0.7 1.9-1.3 3.8-2.1 5.7 -0.8 1.7 1.8 3.3 2.6 1.5 1.5-3.4 2.7-7 4-10.4 0.6-1.7 0.9-3.5 1.3-5.2 0.2-1 0.4-1.9 0.7-2.8 0.1-0.3 0.8-2 0.9-1.9 0.1 0.2-1.1 0.2-0.7 0.1 -0.3 0-0.2-0.3-0.2-0.1 0.1 0.2 0.4 0.5 0.5 0.7 0.5 0.9 1 1.8 1.4 2.7 0.7 1.6 1.3 3.4 2.2 4.9 1.9 3 3.6 5.8 4.6 9.2 1 3.2 1 6.6 2 9.9 0.4 1.4 1 2.6 1.9 3.7 0.9 1.1 1.5 2.4 2.4 3.5 2 2.6 5.1 3.1 8.1 3.8 3.5 0.8 7 1.3 10.6 1.8 3.5 0.5 7 1 10.5 1.8 2.8 0.6 7.5 1.3 8.2 4.7 0.6 2.7-3.3 5-5.4 5.9 -2.6 1.1-5.5 1.4-8.4 1.3 -6.2-0.2-12.3-2.3-18.2-4.1 -6.8-2.2-13.4-5-18.9-9.7 -2.8-2.4-5.8-5.2-7.2-8.7 -1.5-3.9-1-8.2-0.6-12.3C371 540.1 368 540.1 367.8 542L367.8 542z"/><path d="M308.2 624.8c11-3.3 21.6 6.3 27.3 14.6 6 8.7 9 19.4 8.5 30 -0.2 4.3-0.7 10.4-4.5 13.3 -4.7 3.6-8.4-3.7-10.1-6.9 -5.1-9.4-9.4-19.4-16-27.9 -1.8-2.3-3.8-4.6-6-6.5 -2.2-2-4.7-3.4-6.9-5.4 -0.8-0.7-2.7-2.5-1.8-3.6 0.4-0.5 1.3-0.8 1.8-1.2 0.7-0.4 1.3-0.9 1.9-1.3 2.7-2 5.1-4.4 7.1-7.1 0.5-0.6 0.1-1.7-0.5-2.1 -0.8-0.5-1.6-0.1-2.1 0.5 -2 2.6-4.4 4.9-7.1 6.7 -1.2 0.8-2.6 1.4-3.5 2.5 -1.2 1.3-1.1 2.9-0.4 4.3 1.2 2.7 3.8 4.3 6.1 5.9 2.4 1.7 4.5 3.7 6.5 5.9 7.9 8.7 12.5 19.8 18 30.1 2.4 4.5 5.7 10.9 11.8 9.7 5.2-1 7.4-7.2 8.1-11.7 1.8-11.5-0.5-23.5-6.3-33.6 -3.3-5.7-7.7-10.9-13-14.7 -5.6-4-12.8-6.6-19.7-4.5C305.5 622.5 306.3 625.4 308.2 624.8L308.2 624.8z"/><path d="M195.1 681.9c14.4 2.5 27.9 9.3 38.9 18.9 5.7 5 10.5 10.7 14.9 16.8 2.4 3.2 4.8 6.5 7.4 9.4 2.4 2.6 5.3 5.7 9 6.3 3.5 0.6 7-1.1 9.3-3.7 2.5-2.9 3.6-6.6 4.3-10.3 1.5-7.3 2.2-15.3-1.5-22 -1.7-3.1-3.4-6.3-5.5-9.2 -2.3-3.1-4.9-6-7.8-8.6 -2.9-2.7-6.1-5.2-9.3-7.6 -3.2-2.3-6.5-4.4-10.2-5.9 -3.4-1.3-7-1.9-10.6-1.4 -3.6 0.5-6.8 2.3-10.1 3.7 -7.4 3.2-14.9 6.1-22.5 8.7 -2.1 0.7-4.1 1.4-6.2 2 -1.8 0.6-1.1 3.5 0.8 2.9 7.6-2.4 15.1-5.1 22.5-8.1 3.2-1.3 6.4-2.6 9.5-4 3.3-1.4 6.4-2.6 10-2.3 7.4 0.6 13.9 5.7 19.4 10.2 5.8 4.7 11.2 9.9 14.8 16.5 1.4 2.5 3.1 4.9 4 7.7 1.2 3.6 1.1 7.5 0.7 11.3 -0.4 3.7-1.1 7.9-2.6 11.3 -1.3 3-4 5.9-7.5 6 -3.5 0.1-6.3-3.3-8.5-5.7 -2.6-2.8-4.8-5.9-7.1-9 -4.3-5.8-8.8-11.3-14.1-16.1 -10.3-9.3-22.7-16.3-36.2-19.6 -1.7-0.4-3.4-0.8-5.1-1C194 678.7 193.2 681.6 195.1 681.9L195.1 681.9z"/><path d="M128.1 674.9c2.6 13.6 4.2 27.4 4.3 41.2 0.1 6.9-0.2 13.8-1 20.6 -0.3 3.3-0.6 6.7-1.4 9.9 -0.7 2.5-2.3 3.8-4.5 5.1 -2.3 1.3-4.9 1.7-7.5 2.1 -3 0.4-6.1 0.3-8.7-1.6 -2.1-1.6-3.3-4.4-4.8-6.5 -1.7-2.4-2.3-5.2-2.7-8 -0.8-5.7-1.6-12 0.2-17.6 1.9-5.8 7.5-8.8 10.8-13.6 3.7-5.3 4.9-11.8 6.9-17.8 0.9-2.8 2.1-5.6 3.8-8.1 1.4-2 3.4-4.5 6.1-4.5 1.9 0 1.9-3 0-3 -5.4 0-9.1 5.9-11 10.3 -2.5 5.8-3.5 12.1-6.2 17.8 -1.3 2.8-3.1 5.2-5.4 7.4 -2.3 2.2-4.7 4.4-6.3 7.2 -3.2 5.6-2.8 12.4-2.2 18.6 0.3 3.2 0.6 6.4 1.8 9.5 0.6 1.5 1.3 2.7 2.2 4 0.9 1.2 1.6 2.6 2.4 3.8 1.8 2.6 4.3 4.4 7.4 5.1 3.3 0.7 6.6 0 9.9-0.6 2.5-0.5 4.9-1.6 6.9-3.1 2.3-1.7 3.6-3.9 4.1-6.7 1.4-7.2 1.9-14.7 2.1-22 0.6-16.8-1.1-33.6-4.3-50.2C130.6 672.2 127.7 673 128.1 674.9L128.1 674.9z"/><path d="M69.5 712.1c13.5-2.5 25.8-10.8 33.2-22.4 4.1-6.3 7.1-13.6 9-20.9 1-3.8 1.7-7.6 2.1-11.5 0.4-3.7 0.5-7.2-0.4-10.8 -1.8-6.6-5.4-13.2-10.2-18.1 -2-2-4.2-3.4-6.7-4.6 -2.3-1.1-4.9-2.5-7.5-2.7 -3.1-0.2-5.5 2.1-7.2 4.4 -2 2.8-3.4 6.1-4.8 9.2 -3.3 7.2-6.4 14.6-8.7 22.1 -4.7 15.6-5 32.3-2.2 48.3 0.4 2 0.8 4 1.2 5.9 0.4 1.9 3.3 1.1 2.9-0.8 -3.4-14.9-4.1-30.5-0.9-45.5 1.6-7.3 4.3-14.3 7.1-21.2 1.4-3.5 2.9-6.9 4.5-10.3 1.3-2.6 2.6-5.6 4.6-7.7 0.9-0.9 2-1.6 3.2-1.6 1 0 2 0.5 2.9 0.8 2.2 0.8 4.4 1.9 6.4 3.2 5.2 3.4 8.8 9.6 11.1 15.3 1.2 3 2 6.1 2 9.3 -0.1 3.7-0.6 7.4-1.3 11 -1.4 7.1-4 14-7.3 20.4 -6 11.5-16.5 20.4-29 24 -1.6 0.5-3.2 0.8-4.8 1.1C66.8 709.5 67.6 712.4 69.5 712.1L69.5 712.1z"/><path d="M1111 198c2.7 0.2 5.4-0.6 8.2-0.5 2.4 0.1 4.7 1.2 6.8 2.4 2.1 1.2 4.2 2.6 6 4.1 1.9 1.6 2.2 3.9 2.6 6.3 0.4 2.4 0.2 4.8-1.6 6.7 -1.7 1.8-3.8 3.4-5.9 4.6 -2.1 1.2-4.5 1.8-6.8 0.8 -1.1-0.5-2.1-1.1-3.1-1.9 -1.2-0.9-1.5-1.9-1.9-3.3 -1.5-6.2-2.6-12.5-3.1-18.9 -0.2-1.9-3.2-1.9-3 0 0.5 6.7 1.6 13.4 3.2 19.9 0.4 1.5 0.8 2.8 1.9 3.9 1 1 2.4 1.9 3.7 2.6 2.6 1.4 5.5 1.6 8.2 0.6 2.7-1 5-2.9 7.2-4.8 2.3-1.9 3.8-4.1 4.1-7.1 0.2-2.7-0.3-5.9-1.3-8.4 -1.1-2.6-3.6-4.2-5.8-5.7 -2.7-1.9-5.7-3.7-8.9-4.4 -3.6-0.8-7 0.4-10.6 0.2C1109.1 194.8 1109.1 197.8 1111 198L1111 198z"/><path d="M788.9 447.9c3.3-10.7 0.2-22.3-5.1-31.8 -5.8-10.5-14.8-18.8-21.8-28.4 -6.7-9.1-11.1-19.4-13.5-30.4 -2.4-11-2.8-22.3-2.2-33.5 0.6-13 2.5-25.8 4.7-38.6 -0.6 0.3-1.2 0.7-1.8 1 2.8 1.1 4.4 4.1 5.4 6.8 1.3 3.7 2.1 7.6 3.1 11.5 2.3 8.7 4.5 17.4 6.8 26.1 2.2 8.3 4.1 16.8 6.9 24.9 2.7 7.8 6.7 14.8 11.4 21.6 4.5 6.5 9 13 12.4 20.2 3.4 7.1 5.8 14.6 7.3 22.2 1.5 7.7 2.1 15.5 1.7 23.3 -0.1 1.9-0.3 3.9-0.5 5.8 -0.2 2-0.4 4-1.2 5.8 -0.6 1.4-1.5 2.8-2.1 4.2 -0.7 1.5-1.3 2.5-2.8 3.3 -3.3 1.9-7 2.7-10.3 4.6 -0.9 0.5-1.5 0.8-2.4 0.1 -0.7-0.6-1.1-1.7-1.3-2.6 -0.4-2.1 0-4.1 1.4-5.8 1.7-2.2 3.3-4.6 3.9-7.3 0.4-1.6 0.4-3.2 0.1-4.8 -0.4-1.9-3.3-1.1-2.9 0.8 0.7 3.1-1 6.3-2.8 8.7 -0.6 0.8-1.3 1.5-1.7 2.4 -0.6 1.2-1 2.6-1 4 -0.2 2.4 0.5 5.3 2.4 7 0.9 0.8 2.1 1.2 3.3 1.2 1.7-0.1 3.2-1.4 4.7-2.1 1.8-0.8 3.7-1.5 5.5-2.2 1.6-0.7 3.5-1.5 4.7-2.8 1.1-1.2 1.7-2.8 2.4-4.2 0.8-1.7 1.8-3.1 2.3-4.9 1-3.9 1.2-8.1 1.4-12.1 0.2-4.1 0.1-8.3-0.3-12.4 -1.5-16.6-7.2-32.3-16.4-46.2 -4.7-7.1-10-13.9-13.6-21.8 -3.8-8.1-5.8-17-8-25.6 -2.4-9.2-4.8-18.4-7.1-27.6 -1.2-4.4-2.2-8.9-3.5-13.3 -0.9-3.2-2.1-6.4-4.3-8.9 -1.1-1.2-2.5-2.1-4-2.7 -0.7-0.3-1.7 0.3-1.8 1 -3.7 22.4-7.1 45.5-3.5 68.1 1.7 10.9 5.2 21.5 11 30.9 6.3 10.3 15.2 18.7 22.2 28.5 7 9.9 12.1 23.1 8.4 35.2C785.5 449 788.4 449.7 788.9 447.9L788.9 447.9z"/><path d="M547 420.9c-1.6-12.4-10.5-21.4-16.7-31.7 -3.5-5.7-5.7-11.9-6.7-18.6 -1-6.9-0.9-13.9-0.6-20.9 0.1-3.5 0.3-7 0.4-10.5 0.1-3.4 0.5-7.1-0.2-10.5 -1.2-5.4-6.7-7.6-11.8-6.6 -5.9 1.1-9.4 6.3-11.2 11.6 -1.1 3.2-1.8 6.5-2.4 9.7 -0.7 3.7-1.4 7.4-2 11.2 -1.1 7.4-1.9 14.9-2.3 22.4 -0.3 6.8-0.2 13.8 1.6 20.4 1.7 6.1 4.9 11.5 9.3 16.1 4.2 4.3 9.2 7.8 14.2 11 5.1 3.3 10.4 6.5 15.3 10.3 5.6 4.4 10.7 9.4 15.1 15 4.1 5.1 7.7 10.7 13 14.7 4.6 3.5 10.9 5.4 16.6 3.9 5.4-1.5 8.9-6 9.5-11.5 0.6-5.4-1.5-11.1-5.2-15.1 -8.7-9.7-22.8-10.8-32.8-18.5 -2.3-1.8-4.3-3.9-5.7-6.4 -1-1.7-3.6-0.2-2.6 1.5 6.3 10.7 19 13.4 29.3 18.6 5 2.5 10 5.9 12.4 11.2 2 4.2 2.5 10-0.5 13.9 -3.4 4.5-9.7 4.5-14.5 2.7 -5.7-2.1-9.8-7.2-13.4-11.9 -4-5.2-8-10.2-12.7-14.7 -4.6-4.3-9.6-8.1-14.9-11.5 -9.3-6.1-20-11.8-25.9-21.6 -6.8-11.3-5.5-25.7-4.3-38.3 0.7-7.2 1.8-14.5 3.2-21.6 1.1-5.8 2.1-12.7 6.3-17.2 2.8-3 8.5-4.7 11.9-1.5 2.2 2 1.9 5.2 1.9 7.9 0 3.4-0.2 6.8-0.3 10.2 -0.6 13-1.3 26.6 3.8 38.9 4.5 10.7 13.3 18.9 17.8 29.6 1 2.5 1.8 5.1 2.2 7.8C544.2 422.8 547.3 422.9 547 420.9L547 420.9z"/><path d="M1239.9 365.9c5-0.9 9.8-2.6 14.8-3.5 -0.6-0.2-1.1-0.5-1.7-0.7 2.2 4 0.8 9.1-2 12.4 -3.2 3.8-8 6-12.6 7.7 -9.6 3.6-19.5 6.1-29.7 7.5 -20.3 2.9-41.1 1.3-60.8-4.5 -4.9-1.4-9.7-3.1-14.4-5.1 -4.5-1.9-9-3.9-13.1-6.5 -3.6-2.3-7.2-5.2-9-9.2 -0.7-1.8-1.6-4.6 0-6.1 1.6-1.5 4.4-2 6.5-2.2 10.2-1.4 20 4.3 28.7 8.8 9 4.7 18.1 8.6 28 10.6 19.4 4 39.9 2.1 58.1-5.8 2.3-1 4.5-2.1 6.7-3.3 1.7-0.9 0.2-3.5-1.5-2.6 -18.4 9.9-40.2 13-60.7 9.2 -5.1-1-10.2-2.4-15.1-4.2 -5-1.9-9.7-4.3-14.4-6.7 -9.1-4.8-19.3-10.4-30-9 -4.6 0.6-10.4 2.4-10.1 8 0.2 4.6 3.1 8.7 6.5 11.6 3.7 3.2 8.1 5.5 12.4 7.5 4.9 2.3 9.9 4.3 15 6.1 20.2 6.9 42 9.2 63.2 6.9 10.6-1.2 21.2-3.5 31.3-7 9.1-3.2 20.3-7.9 21-19.1 0.2-2.3-0.4-4.6-1.5-6.6 -0.3-0.6-1-0.8-1.7-0.7 -5 0.9-9.8 2.6-14.8 3.5C1237.2 363.4 1238 366.3 1239.9 365.9L1239.9 365.9z"/><path d="M1052.1 619.9c10.6 4.1 20.4 10.9 28.9 18.4 8.4 7.3 16.6 16 21.2 26.2 12.9 28.5 25.1 57.3 37 86.3 6 14.5 11.8 29.1 17.6 43.7 2.9 7.4 5.8 14.7 8.6 22.1 2.6 6.7 5.4 13.4 7.5 20.3 3.8 12.2 5.9 24.9 11.2 36.6 5.2 11.4 14 19.9 24.8 26.1 11.2 6.4 24.2 11.2 37.1 12.1 12.6 0.9 26.6-0.1 37.8-6.4 9.8-5.5 15.7-15.2 16.5-26.3 0.7-10.6-3.5-21.4-11.9-28 -9-7.1-20.6-9.3-31-13.5 -5.2-2.1-10.3-4.8-14.3-8.8 -4.4-4.4-7.2-10.1-8.9-16 -1.8-6.1-2.7-12.3-3.4-18.6 -0.9-7.7-1.8-15.5-2.7-23.2 -1.8-15.8-3.6-31.6-5.4-47.4 -1.8-15.8-3.9-31.6-3.8-47.5 0.1-7.9 0.9-15.8 2.1-23.6 1-6.1 2-12.3 3.4-18.3 4.9-21 12.9-41.2 18.7-62 1.1-4 2.2-8.1 2.9-12.3 0.3-1.5-1.3-2.4-2.5-1.5 -22.1 18.5-49 30.4-76.4 38.6 -23.8 7.2-48.4 11.8-72.9 15.9 -12.8 2.1-25.6 4.3-38.6 5.1 -1.9 0.1-1.9 3.1 0 3 11.5-0.7 23-2.5 34.4-4.3 10.5-1.7 20.9-3.6 31.3-5.6 28.5-5.5 56.9-12.7 83.3-24.9 14.7-6.8 28.6-15.2 41.1-25.6 -0.8-0.5-1.7-1-2.5-1.5 -1.8 9.5-4.8 18.8-7.7 28 -3.4 10.7-6.9 21.4-10.1 32.1 -3.1 10.5-5.4 21-7.2 31.8 -1.2 7.6-2.1 15.3-2.3 23 -0.2 7.9 0.2 15.8 0.9 23.6 1.4 15.6 3.4 31.2 5.2 46.7 1.8 15.6 3.6 31.1 5.3 46.7 1.4 12.1 2.6 25.3 9.9 35.5 6.8 9.6 17.7 13.6 28.4 17.1 10.3 3.5 21.7 7.3 27.6 17.2 5.3 9 5.7 21 0.8 30.2 -5.8 11.1-18.4 15.8-30.2 17.2 -6.8 0.8-13.8 0.9-20.6 0.1 -6.8-0.8-13.3-2.8-19.6-5.3 -11.4-4.4-22.7-10.8-30.4-20.4 -8-10-11-23-14.1-35.2 -1.6-6.2-3.3-12.3-5.5-18.3 -2.7-7.2-5.5-14.4-8.3-21.5 -5.6-14.4-11.3-28.8-17.1-43.2 -11.6-28.7-23.7-57.2-36.1-85.6 -2.8-6.4-5.3-13.1-8.7-19.3 -2.6-4.7-5.8-9-9.3-13 -7.9-8.9-17.2-16.7-27.4-23 -4.3-2.7-8.8-5-13.6-6.8C1051.1 616.4 1050.3 619.3 1052.1 619.9L1052.1 619.9z"/><path d="M894 625c2 3.7 4.7 6.9 8 9.6 2.9 2.4 6.1 4.4 9 6.8 3.2 2.7 5.6 5.9 7.6 9.6 1.9 3.6 4 7 6 10.5 2 3.5 4 7.2 5.1 11.1 1.3 4.4 1.9 9 2.8 13.5 1.3 6.4 2.7 12.8 4.2 19.2 1.4 5.9 3.1 11.8 5 17.6 2.6 7.6 4.7 15.3 6.7 23.1 2.7 10.4 4.9 20.8 7.6 31.2 2 7.7 4 15.5 6 23.2 2.9 11.1 5.9 22.3 8.9 33.4 2.9 10.6 5.7 21.1 8.7 31.7 1.8 6.2 3.3 12.6 5.7 18.5 0.3 0.6 0.5 1.3 1 1.8 1.5 1.7 3.2 3.3 4.8 4.8 1.6 1.5 3.3 2.9 5.2 3.9 2.1 1.1 4.5 1.7 6.8 2.3 2.4 0.7 4.8 1.3 7.3 2 5 1.3 10 2.5 15 3.5 19.2 3.8 40.2 4.9 58.1-4.3 7.6-3.9 14.6-10 18-17.9 1.7-3.9 2.5-8.1 1.8-12.4 -0.8-4.2-3-8-5.8-11.2 -5.8-6.6-13.7-10-21.9-12.2 -4.4-1.1-8.8-2-13.2-3 -4-0.9-8.1-1.7-11.9-3.1 -7-2.6-8.4-11-9.1-17.5 -1.2-10.6-2.1-21.2-2.6-31.8 -1.2-22.8-0.3-45.4 2.9-68 2.4-17.1 4.9-34.1 6.3-51.3 0-0.3 0-0.7 0.1-1 -0.1 0.4 0-0.1 0.1-0.2 0.1-0.4 0.2-0.8 0.3-1.2 0.3-1 0.7-2 1-2.9 1-2.5 2.1-4.9 3.3-7.4 2.7-5.8 5.5-11.6 7.9-17.6 1-2.5 1.9-4.9 2.5-7.5 0.4-1.8 0.8-3.8 0.2-5.6 -0.8-2.7-3.9-4.5-6.5-5.3 -3.5-1.1-7.3-1-10.9-0.9 -3.9 0.1-7.6 0.3-11.4-0.5 -5-1-10.1-1.7-15.2-2.2 -10.5-0.9-21.1-0.7-31.5 0.1 -21.5 1.5-42.7 5.3-64.2 6.8 -10.4 0.8-20.9 1-31.3 0.2 -1.9-0.1-1.9 2.9 0 3 21.3 1.6 42.6-1 63.8-3.7 20.8-2.6 41.8-5.2 62.8-3.5 5.2 0.4 10.3 1.2 15.4 2.2 3.6 0.7 7.3 0.6 11 0.5 3.6-0.1 7.4-0.3 10.8 0.7 1.5 0.5 2.9 1.2 3.9 2.4 0.1 0.2 0.3 0.4 0.4 0.6 0.2 0.3 0-0.1 0.1 0.1 0.2 0.5 0.1 0.5 0.2 0.8 0.1 1.9-0.4 3.8-1 5.7 -0.8 2.7-1.9 5.3-3 7.9 -2.5 5.8-5.3 11.4-7.9 17.2 -1 2.2-2 4.5-2.8 6.8 -0.9 2.6-1 5.2-1.2 8 -0.7 8.4-1.6 16.8-2.8 25.2 -1.2 8.5-2.4 16.9-3.6 25.4 -1.5 11.1-2.5 22.3-2.9 33.5 -0.7 21.5 0.5 43.2 3.1 64.5 0.8 6.7 2.4 14.4 8.8 18.1 3.3 1.9 7.5 2.6 11.3 3.5 4.3 1 8.6 1.8 12.9 2.9 8.3 2 16.3 4.6 22.5 10.7 3 3 5.5 6.6 6.4 10.8 0.9 4.1-0.2 8.4-2 12.1 -3.9 7.8-11.2 13.3-19 16.7 -9 4-18.9 5.5-28.7 5.5 -10-0.1-20-1.7-29.7-3.9 -5-1.1-10-2.4-14.9-3.8 -2.3-0.6-4.6-1.1-6.8-2 -2.1-0.9-4-2.3-5.6-3.8 -1.6-1.5-3.1-3.4-4.8-4.8 -0.5-0.4 0.1 0.2 0 0 0-0.1-0.1-0.2-0.1-0.3 0-0.1-0.1-0.2-0.2-0.3 -0.1-0.3 0.1 0.3 0 0.1 0-0.1-0.1-0.2-0.1-0.3 -0.2-0.4-0.3-0.8-0.5-1.2 -1-2.7-1.8-5.5-2.6-8.2 -2.8-9.3-5.3-18.6-7.9-27.9 -3.1-11.2-6.1-22.5-9.1-33.8 -2.5-9.4-5-18.8-7.4-28.2 -1.6-6.1-3.1-12.2-4.5-18.3 -2.9-12.2-5.8-24.5-9.5-36.5 -1.5-4.9-3.3-9.8-4.7-14.7 -3-10.3-5.1-20.9-7.2-31.4 -0.9-4.2-1.4-8.7-2.9-12.7 -1.4-3.9-3.5-7.5-5.5-11.1 -2-3.4-4-6.8-5.9-10.3 -1.9-3.6-4.6-6.7-7.8-9.3 -2.7-2.2-5.7-4.1-8.5-6.4 -3.2-2.6-5.8-5.6-7.8-9.2C895.7 621.7 893.1 623.3 894 625L894 625z"/><path d="M537.2 646.7c-2.2 4.2-3.4 9-4.4 13.6 -1 4.5-2.1 9.5-1.8 14.2 0.5 6.6 2.8 12.8 4.3 19.2 0.7 3.1 1.1 6.2 1.1 9.4 -0.1 3.9-0.8 7.8-1.5 11.6 -1.4 7.6-3.1 15.3-3.2 23 -0.1 4.6 1.1 9.2 2.6 13.6 3.6 10.7 8.8 20.8 14 30.7 4.9 9.2 9.5 18.6 14.7 27.7 2.6 4.6 5.6 9 8.4 13.5 2.1 3.4 4.1 6.9 6 10.4 2.3 4.1 4.3 8.4 6.8 12.5 3.9 6.4 8.3 12.5 12.6 18.6 4.9 6.9 10 13.8 15.7 20.1 1.7 1.9 3.5 3.8 5.9 4.9 6.7 3 14 4.2 21.1 5.6 13.7 2.7 27.6 5.1 41.6 4.9 13.4-0.2 27.4-3 38.8-10.4 2.9-1.9 5.5-4.1 7.6-6.8 2.1-2.7 3.4-5.9 4.3-9.2 2.1-7.3 3-15 3.7-22.6 0.3-3.6 0.7-7.3 0.2-10.9 -0.4-2.9-1.3-5.7-2.6-8.3 -2.9-5.9-7.2-10.5-13-13.6 -6.1-3.2-12.9-4.7-19.6-6 -7.3-1.4-14.7-2.4-22.1-3.6 -3.7-0.6-7.4-1.3-11.1-2.2 -3.2-0.8-6.4-1.5-9.2-3.2 -2.8-1.7-5.2-4.1-6.6-7 -1.4-2.8-2.4-5.8-3.5-8.8 -2.6-7.4-4.7-15-6.4-22.7 -0.8-3.6-1.9-7.6-1-11.2 0.8-3.2 3.2-5.5 5.6-7.5 11.4-9.6 23.4-18.4 35.9-26.4 6.3-4 12.6-7.9 19.1-11.6 6.5-3.7 13.2-7 19.8-10.5 6.6-3.5 12.4-7.8 17.7-13 4-3.9 7.9-8.1 11.3-12.5 1.4-1.9 2.8-3.8 4.1-5.7 1-1.4 2-2.8 2.6-4.4 0.5-1.1-0.8-2.1-1.8-1.8 -26.1 6-53.2 6.6-79.8 4.8 -28.9-1.9-57.5-6.4-86.1-11 -16.7-2.7-33.5-5.5-50.3-7.9 -1.9-0.3-2.7 2.6-0.8 2.9 29.8 4.3 59.4 9.7 89.2 13.8 28 3.9 56.2 6.8 84.5 5.8 14.8-0.6 29.6-2.3 44.1-5.6 -0.6-0.6-1.2-1.2-1.8-1.8 0.1-0.3-0.2 0.4-0.3 0.5 -0.2 0.4-0.4 0.7-0.6 1 -0.6 1-1.3 1.9-1.9 2.8 -1.3 1.9-2.7 3.7-4 5.5 -3.5 4.5-7.6 8.7-11.7 12.7 -2.6 2.5-5.3 4.8-8.3 6.8 -3.2 2.2-6.6 4-10 5.8 -6.5 3.4-13 6.7-19.3 10.4 -12.8 7.3-25.1 15.4-37 24.2 -5.8 4.3-11.5 8.7-17 13.4 -2.4 2-4.6 4.3-5.7 7.3 -1.3 3.5-0.7 7.3 0 10.8 1.4 7.6 3.4 15.1 5.8 22.4 1.9 5.9 3.7 12.8 8.1 17.4 2.2 2.3 5 4.3 8 5.4 3.2 1.2 6.7 1.9 10.1 2.6 7.1 1.5 14.4 2.5 21.6 3.6 7.1 1.1 14.4 2.3 21.2 4.6 5.8 2 11.6 5.2 15 10.4 1.7 2.5 3.2 5.3 4.1 8.2 0.9 3 1 6 0.8 9.1 -0.4 7.8-1.4 15.6-3.1 23.2 -0.7 3.4-1.7 6.7-3.5 9.7 -1.7 2.9-4.1 5.2-6.9 7.2 -5.4 3.8-11.8 6.4-18.1 8.1 -13.2 3.5-27.1 3-40.6 1.3 -7-0.9-13.9-2.2-20.8-3.6 -3.5-0.7-6.9-1.4-10.4-2.2 -3.5-0.8-7.2-1.7-10.4-3.4 -1-0.5-1.1-0.7-1.9-1.4 -1-0.9-2-2-2.9-3 -2.6-2.9-5-6-7.4-9.1 -5.4-7-10.5-14.2-15.4-21.5 -1.6-2.4-3.3-4.9-4.8-7.4 -2.5-4.1-4.6-8.5-6.9-12.7 -3-5.5-6.3-10.8-9.7-16.1 -4.4-6.8-8.1-13.9-11.8-21.1 -4.9-9.5-10.1-18.9-14.7-28.5 -2.4-5-4.6-10-6.3-15.3 -1.5-4.4-2.6-8.9-2.5-13.5 0.2-7.8 2-15.3 3.3-22.9 0.6-3.6 1.3-7.3 1.4-11 0.1-3.2-0.4-6.3-1-9.4 -1.4-6.4-3.8-12.6-4.3-19.1 -0.4-4.5 0.7-9.2 1.7-13.5 1-4.3 2-8.8 4.1-12.7C540.7 646.6 538.1 645 537.2 646.7L537.2 646.7z"/><path d="M589.5 743c9.4 0.5 18.8 1 28.2 1.5 4.8 0.2 9.5 0.5 14.3 0.7 1.8 0.1 3.6 0.2 4.6-1.6 0.8-1.4 1.1-3.1 1.3-4.6 0.1-1.5-0.2-3.1-1.2-4.2 -1.3-1.4-3.2-1.5-5-1.5 -4.4-0.1-8.8 0-13.2 0.1 -4.4 0-8.9 0-13.3-0.6 -2.2-0.3-4.3-0.8-6.4-1.4 -2-0.6-3.9-1.6-6-2 -2-0.4-4.1-0.3-5.6 1.2 -1.2 1.2-2.3 3.3-2.5 4.9 -0.1 0.9 0.2 1.9 0.3 2.8 0.1 0.9 0.3 1.6 0.8 2.3 0.4 0.5 1 0.9 1.6 1.2 0.3 0.1 0.5 0.2 0.8 0.3 0.1 0 0.2 0.1 0.3 0.1 -0.1 0-0.1 0 0 0 0.4 0.2 0.3-0.1-0.5-1.1 -0.6 1.8 2.3 2.6 2.9 0.8 0.3-1-0.2-1.9-1.1-2.4 -0.6-0.3-1.5-0.3-1.9-1 -0.3-0.5-0.3-1.5-0.4-2.2 -0.1-0.7 0.2-1.2 0.5-1.8 0.6-1.4 1.3-2.5 2.9-2.4 1.9 0.1 3.7 0.9 5.4 1.5 1.9 0.7 3.8 1.2 5.7 1.5 3.8 0.7 7.7 1 11.5 1.1 3.9 0.1 7.7 0 11.6-0.1 2 0 4 0 6 0 1.2 0 3.1-0.3 3.5 1.2 0.4 1.2-0.1 2.7-0.5 3.8 -0.2 0.6-0.2 1-0.9 1 -1 0.1-2.1-0.1-3.1-0.2 -4.2-0.2-8.4-0.4-12.5-0.6 -9.4-0.5-18.8-1-28.2-1.5C587.6 739.9 587.6 742.9 589.5 743L589.5 743z"/><path d="M540.2 708.9c3.1 0 6 1.1 8.9 2.1 3 1 6 1.7 9.2 1.3 3.3-0.4 6.5-1.2 9.8-1.4 3.4-0.2 6.8 0 10.1 0.5 6.7 0.8 13.3 2.5 19.9 3.8 3.2 0.6 6.5 1.4 9.8 1.5 2.5 0.1 5.3-0.8 5.9-3.6 0.6-2.8-1.1-5.2-3.3-6.7 -2.6-1.8-5.6-3-8.6-4.1 -6-2.3-12.3-3.5-18.6-4.4 -6.2-0.8-13-0.6-18.8-3.1 -5.4-2.3-9.4-7.5-15.6-7.4 -1.5 0-2.9 0.3-4.2 1.1 -0.6 0.3-1.2 0.8-1.7 1.3 -0.4 0.4-0.9 1.2-1.5 1.4 -0.7 0.2-1.6 0-2.4 0.1 -0.7 0.1-1.3 0.3-1.9 0.6 -1.1 0.7-2 1.8-2.4 3 -0.9 2.4-0.2 4.6 0.8 6.9 1 2.2 2.2 4.4 3.5 6.4 1.1 1.6 3.7 0.1 2.6-1.5 -1.1-1.6-2-3.2-2.9-4.9 -0.8-1.5-1.8-3.4-1.5-5.1 0.2-0.8 0.6-1.7 1.3-2.2 1-0.6 2.4-0.1 3.5-0.4 1.2-0.3 2-1.3 2.8-2.1 0.8-0.8 1.8-1.3 3-1.5 5.4-0.8 9.6 4.2 14 6.5 5.2 2.6 11.2 2.9 16.9 3.4 5.8 0.6 11.6 1.5 17.2 3.1 2.9 0.8 5.7 1.8 8.4 3.1 2.1 1 5.5 2.2 6.3 4.5 1 3-2.7 2.7-4.5 2.4 -3.1-0.4-6.2-1-9.3-1.6 -6-1.2-11.9-2.6-17.9-3.4 -3.4-0.4-6.7-0.7-10.1-0.6 -3.6 0.1-6.9 0.9-10.4 1.4 -6.4 0.9-12-3.3-18.3-3.4C538.3 705.9 538.3 708.9 540.2 708.9L540.2 708.9z"/><path d="M545.4 670.2c9.7 0.3 19.3 2.8 27.9 7.4 4.3 2.3 8.2 5.4 12.8 7.3 4.5 1.9 9.3 2.9 13.7 5.2 7.4 3.9 13.2 10.1 20.2 14.6 3.6 2.3 7.5 4 11.7 4.7 2.6 0.5 5.2 0.7 7.7 1.1 2.5 0.4 4.9 1 7.3 1.7 4.7 1.3 9.5 2.9 14.4 2.5 2.1-0.2 4-1 4.3-3.2 0.4-2.1-0.9-3.9-2.5-5.1 -1.7-1.2-3.9-2-5.8-2.7 -2-0.7-4.1-1.3-6.2-1.9 -4.1-1.1-8.3-2-12.2-3.6 -2-0.8-4-1.8-5.8-3.1 -1.9-1.3-3.5-3-5.1-4.7 -1.7-1.8-3.5-3.5-5.4-5.1 -1.7-1.4-3.4-2.9-4.5-4.8 -2-3.7-2.2-8.2-5.4-11.3 -3.1-3-7.6-3.8-11.7-4.7 -10.7-2.2-21.4-4.5-32.1-6.7 -4.9-1-10-2.1-15-0.9 -3.7 0.9-7.5 3.2-9.2 6.7 -0.8 1.7-0.9 3.5-0.5 5.4 0.4 1.9 3.3 1.1 2.9-0.8 -0.8-3.6 2.3-6.4 5.4-7.7 4.4-1.9 9.3-1.1 13.8-0.2 10.1 2 20.2 4.2 30.3 6.3 4.1 0.8 8.8 1.3 12.4 3.5 3.6 2.2 4.1 6.4 5.6 10 0.8 1.9 1.9 3.6 3.3 5.1 1.5 1.5 3.3 2.8 4.9 4.3 3.3 3.1 6.1 6.6 10 9 7 4.3 15.3 5.2 22.9 7.8 1.9 0.7 3.9 1.4 5.5 2.5 0.7 0.4 1.5 1.1 1.5 2 0 1.1-1.3 1-2.1 1 -4.7 0.2-9.2-1.4-13.6-2.6 -2.3-0.6-4.6-1.2-6.9-1.5 -2.4-0.4-4.9-0.6-7.3-1 -4.1-0.7-7.8-2.2-11.3-4.4 -6.6-4.2-12.1-9.9-18.9-13.8 -3.9-2.3-8.2-3.5-12.5-5 -2.2-0.8-4.4-1.7-6.5-2.9 -2-1.2-3.9-2.5-6-3.7 -7.8-4.7-16.5-7.7-25.5-8.9 -2.2-0.3-4.5-0.5-6.8-0.5C543.4 667.1 543.5 670.1 545.4 670.2L545.4 670.2z"/><path d="M712.4 667.6c-7.7 0-15.4-1.1-23.1-1.8 -3.8-0.4-7.7-0.7-11.6-0.8 -1 0-1.9 0-2.9 0 -0.8 0-1.7-0.1-2.3 0.4 -0.9 0.6-0.8 1.8-0.8 2.8 0 0.5 0.1 1.1 0.1 1.6 0 0.3-0.2 0.9-0.2 1.4 0.1 1.6 0.8 3 1.8 4.1 2.4 2.7 6.1 3.2 9.4 3.9 7.1 1.4 13.3 5.5 20.5 6.5 1.8 0.2 3.9 0.4 5.7-0.1 1.9-0.6 3.1-2 3.8-3.8 1.6-3.9 2.1-8.5 1.7-12.7 -0.2-1.9-3.2-1.9-3 0 0.3 3.4 0 6.9-1 10.2 -0.4 1.3-0.8 2.8-2.1 3.4 -1.3 0.6-3.3 0.3-4.7 0.1 -6.2-0.8-11.7-4.2-17.6-5.9 -2.9-0.8-6.3-0.8-9-2.4 -1-0.6-2-1.5-2.3-2.6 -0.3-0.9 0-2 0-3 0-0.4 0-0.9 0-1.3 0-0.1 0-0.4 0-0.4 -0.3 0.3-0.5 0.5-0.8 0.8 0.2 0 0.4 0 0.7 0 1.7 0 3.4 0 5.1 0.1 3.3 0.1 6.7 0.4 10 0.8 7.5 0.8 15.1 1.8 22.7 1.8C714.3 670.6 714.3 667.6 712.4 667.6L712.4 667.6z"/><path d="M664.1 897.7c4-9.8 4-20.6 4-31 0-5-0.2-10.2-1.9-15 -0.4-1.1-0.8-2.1-1.4-3.1 -0.3-0.5-1.7-2.5-0.8-3 0.5-0.3 2.1 0.9 2.5 1.2 0.9 0.6 1.7 1.3 2.4 2 3 3.1 4.9 7.1 6.3 11.1 1.7 5.1 2.9 10.3 3.7 15.6 0.4 2.9 0.8 5.8 0.9 8.7 0.1 1.4 0.2 2.7 0.2 4.1 0 0.8 0.1 1.3 0.4 2 1.2 2.4 3.3 4.3 4.6 6.8 0.1 0.1 0.2 0.4 0.2 0.4 -0.1 0.1 0.2-1.1 0.3-1 -0.1-0.1-1.7 0.1-1.9 0.1 -1.7-0.1-3.5-0.5-5.2-0.6 -2.1-0.2-4.1 0.5-6.2 0.4 -3-0.2-6-0.9-9-1.2 -1.9-0.2-1.9 2.8 0 3 2.9 0.2 5.8 1 8.8 1.2 1.4 0.1 2.8 0 4.1-0.2 0.9-0.2 1-0.3 2-0.2 1.7 0.1 3.3 0.4 5 0.6 1.4 0.1 3.2 0.3 4.3-0.7 2.2-2-1.5-5.8-2.7-7.4 -0.4-0.6-0.8-1.1-1.2-1.7 -0.2-0.2-0.3-0.5-0.5-0.8 0-0.1-0.1-0.3 0 0 -0.1-0.3 0 0.9 0-0.3 0-3-0.3-6.1-0.6-9.1 -0.7-6.2-1.9-12.3-3.7-18.2 -1.3-4.5-3.1-8.9-6-12.7 -1.9-2.5-8.6-9.1-11.3-4.4 -1.4 2.4 0.2 4.6 1.3 6.8 1.2 2.4 1.8 5.1 2.2 7.8 0.4 3.1 0.4 6.3 0.4 9.5 0 3.2 0 6.3-0.2 9.5 -0.3 6.6-1.2 13.1-3.7 19.2C660.4 898.7 663.3 899.5 664.1 897.7L664.1 897.7z"/><path d="M711.6 891.2c-0.2-5.6-1.5-11.1-3.1-16.5 -1.5-5.1-3.2-10.1-5.1-15.1 -1.8-4.8-3.9-9.6-6.7-13.9 -2.4-3.7-6.6-7.2-7.2-11.8 -0.1-1-0.1-2 1.1-2.2 1.1-0.1 2.3 0.1 3.3 0.3 2.3 0.3 4.6 0.6 6.8 1.2 4.6 1.2 8.3 3.7 10.7 7.9 1.3 2.3 2.2 4.8 3.3 7.2 1.1 2.7 2.2 5.4 3.3 8.1s2.2 5.4 3.3 8.1c1 2.4 2 4.8 2.7 7.3 0.7 2.4 1.1 5.1 0.1 7.5 -0.7 1.7-2.1 3.3-3.4 4.6 -3.1 2.9-7.4 4.6-11.2 6.4 -1.7 0.8-0.2 3.4 1.5 2.6 7-3.4 16.9-7.7 16.6-17.1 -0.2-5.5-3-10.8-5-15.7 -2.4-5.7-4.6-11.5-7.1-17.2 -2.1-4.8-5.2-8.9-10.1-11.1 -2.3-1-4.6-1.6-7.1-2.1 -2.4-0.4-4.9-0.9-7.3-0.9 -2.5 0-4.5 1.4-4.6 4 -0.1 2.5 0.9 5 2.2 7.1 1.4 2.2 3.1 4.1 4.6 6.2 1.6 2.3 3 4.8 4.3 7.3 2.7 5.7 4.6 11.7 6.6 17.7 2.2 6.6 4.1 13.3 4.4 20.2C708.6 893.1 711.6 893.1 711.6 891.2L711.6 891.2z"/><path d="M1046.7 898.9c3.9 1.8 8.1 0 10.5-3.3 2.6-3.4 3.6-8.1 4.2-12.3 0.6-4.2 0.3-8.7-2-12.5 -2-3.3-5.3-5.6-6.9-9.1 -0.4-0.9-1.2-4.3 0.8-3.6 1.9 0.6 3.2 3.5 4.3 5.1 2.9 4.3 5.9 8.7 8.8 13 2.6 3.8 5.2 7.8 6 12.4 0.7 4-0.3 8.3-3.5 10.9 -3.1 2.5-7.5 2.9-11.4 2.8 -2.1-0.1-4.2-0.3-6.3-0.6 -1-0.1-2.1-0.2-2.9-0.8 -0.2-0.1-1.1-1.2-0.6-1.4 1.8-0.7 1-3.6-0.8-2.9 -1.8 0.7-2.6 2.6-2.1 4.5 0.6 2.1 2.8 3.1 4.9 3.4 4.2 0.7 8.6 1.1 12.8 0.5 4.1-0.5 8-2.1 10.5-5.5 2.9-3.8 3.2-9 2-13.5 -1.4-5.2-4.7-9.6-7.6-13.9 -1.7-2.5-3.3-4.9-5-7.4 -1.6-2.3-3-4.8-4.8-7 -1.3-1.6-3.3-3.2-5.4-2.6 -2.1 0.5-3.2 2.7-3.1 4.7 0.2 4.5 4.1 7.6 6.7 10.9 3.5 4.5 3.3 10.2 2.1 15.5 -0.6 2.7-1.4 5.5-3.1 7.7 -1.4 1.9-4.2 3.4-6.5 2.4C1046.5 895.5 1045 898.1 1046.7 898.9L1046.7 898.9z"/><path d="M934.7 693.8c5.8 2.9 10.6 7.2 16 10.9 5.4 3.7 11.5 6.1 18.2 5.8 6.9-0.3 13.4-2.9 20.1-4.4 3.2-0.7 6.6-1.1 9.9-0.8 3.7 0.4 6.9 2.3 10.6 2.8 2.8 0.4 6.1-0.2 8.1-2.5 2.3-2.7 1.6-6.4 0.2-9.3 -2.7-5.8-8.8-9.4-14.8-11.3 -14.8-4.6-30.5 0-45.5-2.7 -3.8-0.7-7.3-2.1-11-3 -2.8-0.7-5.9-1.1-8.9-1 -2.1 0-4.8 0.4-5.5 2.7 -0.4 1.4 0.2 3 0.4 4.4 0.2 1.4 0.4 2.8 0.7 4.1 0.3 1.3 0.6 2.5 1.1 3.8 0.7 1.8 3.6 1 2.9-0.8 -0.9-2.4-1.3-4.8-1.7-7.3 -0.1-0.8-0.3-1.7-0.5-2.5 0-0.1-0.1-0.7-0.1-0.8 0.3-0.5 1.5-0.6 2.1-0.6 2.4-0.1 5 0.1 7.3 0.6 3.5 0.7 6.8 2.1 10.3 2.9 13.9 3.2 28.2-0.5 42.1 1.9 6 1 12.1 3.2 16.2 7.9 1.7 2 3.8 5.3 2.9 8 -0.8 2.7-4.4 3-6.7 2.5 -3.4-0.7-6.4-2.3-9.9-2.7 -3-0.4-6-0.1-8.9 0.4 -6.3 1.1-12.4 3.6-18.8 4.4 -3.4 0.5-6.8 0.4-10.1-0.5 -3.2-0.9-6.1-2.4-8.9-4.3 -5.5-3.7-10.4-8.2-16.5-11.2C934.5 690.4 933 692.9 934.7 693.8L934.7 693.8z"/><path d="M932.7 663c16.6-4.9 35-3.9 50.9 3.3 8.4 3.8 16 9 24.6 12.3 7.8 3 17 4.6 25 1.4 6.4-2.6 12.1-8.3 13.1-15.4 0.5-3.7-0.1-8-3.9-9.8 -1.6-0.8-3.4-1.1-5.2-1.3 -2.3-0.3-4.7-0.5-7-0.7 -4.7-0.5-9.3-1-13.9-1.9 -4.6-0.9-9-2.2-13.4-3.8 -4.3-1.6-8.6-3.2-13.1-4.3 -4.4-1.1-8.9-1.9-13.4-2.3 -8.9-0.8-18-0.3-26.8 1.7 -3.9 0.9-7.5 2-10.7 4.4 -3 2.3-5.5 5.2-6.9 8.6 -0.7 1.7-1.1 3.5-1.1 5.3 0 1.9 3 1.9 3 0 0.1-7 6.6-12.9 12.9-14.6 8.2-2.3 16.9-3.1 25.4-2.7 8.6 0.4 17 2.2 25.2 5.1 4.1 1.5 8.1 3.1 12.3 4.2 4.2 1.2 8.6 1.9 12.9 2.5 4.4 0.6 8.8 1 13.2 1.5 1.7 0.2 3.7 0.3 5.3 1.1 1.7 0.9 2.3 2.5 2.4 4.4 0.2 6.8-5 12.6-10.9 15.2 -7.6 3.3-16.4 1.5-23.8-1.4 -8-3.2-15.2-8.1-23.1-11.7 -14.9-6.8-31.9-8.7-47.9-5.4 -2 0.4-4 0.9-5.9 1.5C930.1 660.7 930.9 663.6 932.7 663L932.7 663z"/><path d="M1133.6 712.6c4.9-5.7 11.4-8.9 18.7-10 3.7-0.5 7.4-0.6 11.1-0.4 4.2 0.2 8.5 0.9 12.4-1.3 6.2-3.4 7.9-11.1 12.5-16 5.4-5.8 12.8-8.8 19.1-13.4 5.9-4.4 11.8-11.4 11.2-19.2 -0.1-1.8-0.5-3.8-1.5-5.4 -1-1.7-2.7-2.5-4.6-2.8 -4.3-0.6-8.8-0.7-13.2-0.8 -8.7-0.2-17.6 0.3-25.8 3.4 -3.7 1.4-7.5 3.2-9.8 6.6 -1.2 1.8-1.8 3.9-2.3 6 -0.5 2.1-1.1 4.1-1.8 6.1 -1.5 3.9-3.5 7.7-6.1 11 -2.6 3.5-5.9 6.5-9.1 9.4 -6.1 5.6-12.5 11.9-13.7 20.4 -0.3 2-0.3 4 0.1 6 0.3 1.9 3.2 1.1 2.9-0.8 -1.5-8.1 4.2-15.3 9.6-20.5 3-2.9 6.2-5.6 9.1-8.6 2.7-2.9 5.1-6.1 7.1-9.6 2-3.5 3.5-7.3 4.5-11.2 0.5-1.9 0.9-4 1.8-5.8 0.9-1.7 2.4-3 4-4 7-4.2 15.8-5.3 23.8-5.5 4.2-0.1 8.3 0.1 12.5 0.3 2.1 0.1 4.2 0.1 6.3 0.5 2 0.3 2.7 1.7 3.1 3.6 1.7 7.3-4.2 14.4-9.7 18.4 -5.9 4.3-12.8 7.3-18.2 12.4 -2.5 2.4-4.4 5.3-6.2 8.3 -1.6 2.7-3.1 5.7-5.6 7.7 -3.2 2.5-7.1 2.2-10.9 1.9 -3.6-0.3-7.3-0.3-10.9 0.1 -6.8 0.7-13.3 2.9-18.6 7.3 -1.4 1.1-2.6 2.4-3.8 3.8C1130.2 711.9 1132.3 714 1133.6 712.6L1133.6 712.6z"/><path d="M1178.4 846.7c2 3.1 4.4 5.9 7.3 8.1 1.5 1.2 3 2.2 4.6 3.1 1.6 0.9 3.3 1.5 4.9 2.4 1.5 0.8 2.6 1.9 3.5 3.4 0.8 1.4 1.4 3 2.7 4 3 2.5 7 1.2 10-0.5 1.7-1 3.6-2.4 5.6-2.4 1.3 0 3.1 0.7 3.1 2.3 0 0.6 0.5 1.3 1.1 1.4 4.5 0.8 7.6-2.5 11.3-4.4 1.7-0.9 3.6-1.4 5.5-0.7 2 0.7 3.5 2.3 4.5 4.1 2.7 4.4 1.8 9.5 0.6 14.3 -0.7 2.7-1.5 5.4-2.1 8.2 -0.2 1.2-0.9 1.5-1.6 2.4 -0.6 0.8-1.1 1.7-1.7 2.5 -0.8 0.9-2.2 1.1-3.3 1.4 -1.4 0.4-2.8 0.8-4.3 1.1 -2.8 0.6-5.7 1.1-8.6 1.4 -1.3 0.1-2.6 0.3-3.8 0.1 -1.1-0.2-1.9-0.8-3-1 -1-0.2-1.9-0.1-2.9-0.2 -1.2-0.1-1.7-0.7-2.6-1.5 -3.6-3-7.8-5.2-11.2-8.3 -3.3-3.1-6-6.8-8.3-10.8 -5.2-9.2-8.3-19.6-10.8-29.8 -0.5-1.9-3.4-1.1-2.9 0.8 2.5 9.9 5.4 19.8 10.2 28.9 2.3 4.4 5.2 8.6 8.8 12.2 3.6 3.6 8.3 5.9 12.1 9.2 0.8 0.7 1.5 1.6 2.6 2 1.1 0.4 2.3 0.4 3.4 0.4 1 0 1.7 0.4 2.6 0.7 1.4 0.5 3 0.5 4.5 0.5 5.9-0.3 12.3-1.4 17.8-3.6 1-0.4 1.8-1.2 2.4-2.1 0.7-1 1.3-1.9 2.2-2.8 0.9-0.9 1.2-1.8 1.4-3.1 0.3-1.5 0.7-3 1.1-4.4 1.4-5.3 3.3-11.2 1.5-16.7 -1.5-4.7-5.7-9.5-11.1-9.2 -2.6 0.2-4.8 1.5-6.9 2.9 -1.9 1.3-4.2 3.1-6.6 2.7 0.4 0.5 0.7 1 1.1 1.4 0-3.3-3.2-5.4-6.3-5.3 -4 0.1-6.7 3.6-10.5 4.3 -1.9 0.3-3.1-0.4-4.1-2 -0.8-1.5-1.4-3-2.6-4.2 -2.5-2.7-6.5-3.6-9.6-5.5 -3.7-2.3-6.8-5.5-9.1-9.1C1180 843.5 1177.4 845 1178.4 846.7L1178.4 846.7z"/><path d="M1264 909.5c0-6.9-0.7-13.8-0.5-20.6 0.1-2 0.4-3.8 1.2-5.6 0.8-1.7 1.8-3.2 2.7-4.8 2.1-3.5 4.1-7.1 6.2-10.6 -0.9-0.1-1.8-0.2-2.7-0.4 2.2 7.9 1.6 16.3 0.5 24.3 -0.5 3.8-0.8 7.7-2 11.4 -1 2.9-3.5 6.2-7 5.3 -1.9-0.5-2.7 2.4-0.8 2.9 3.7 1 7.4-1.2 9.3-4.4 2.2-3.7 2.5-8.3 3.1-12.5 1.3-9.2 2.2-18.7-0.3-27.8 -0.3-1.2-2.1-1.5-2.7-0.4 -2.1 3.7-4.3 7.4-6.4 11.1 -2 3.4-3.8 6.6-4.1 10.6 -0.5 7.2 0.5 14.4 0.4 21.6C1261 911.4 1264 911.4 1264 909.5L1264 909.5z"/><path d="M1083.4 104.8c-5.8-16.7-22-25.4-36.8-32.9 -1.7-0.9-3.2 1.7-1.5 2.6 14 7.1 29.9 15.3 35.4 31.1C1081.2 107.4 1084.1 106.7 1083.4 104.8L1083.4 104.8z"/><path d="M1271 110.6c0.9-2.4 3.1-3.9 5.3-4.9 2.7-1.3 5.8-2.1 8.7-3 6.7-2 13.6-3.6 20.5-4.8 1.9-0.3 1.1-3.2-0.8-2.9 -7.5 1.3-15 3.1-22.3 5.3 -5.4 1.7-12.1 3.5-14.2 9.5C1267.5 111.7 1270.3 112.5 1271 110.6L1271 110.6z"/><path d="M992.8 419.5c-2.1-3.7-4.3-7.5-4.8-11.7 -0.5-4.2 0.7-8.6 2.5-12.4 0.8-1.8 1.8-3.5 3-5.2 1-1.5 2.3-3.5 4.1-4.2 1.8-0.7 3.6 1.5 4.7 2.7 1.4 1.5 2.5 3.2 3.4 4.9 1 2 1.6 4.1 2.4 6.1 0.8 2 1.7 3.8 2.9 5.6 2.2 3.4 4.9 6.5 6.7 10.2 1.5 3.1 2.8 8.1 0 10.9 -1.3 1.4-3 0.8-3.9-0.8 -1-1.7-1.2-3.9-2-5.7 -1.7-3.5-5.5-5.5-9.3-5.7 -4.4-0.3-8.6 2-11.8 5 -1.4 1.3 0.7 3.4 2.1 2.1 3-2.8 7.2-5 11.3-3.8 1.8 0.5 3.5 1.5 4.6 3.1 1.2 1.8 1.3 4.1 2.3 6.1 0.9 1.8 2.6 3.2 4.6 3.4 1.9 0.2 3.6-0.9 4.8-2.4 2.7-3.5 2.1-8.5 0.6-12.4 -1.7-4.3-4.8-7.7-7.3-11.5 -1.3-2-2.3-4.1-3.2-6.4 -0.8-2.2-1.6-4.4-2.8-6.4 -1.1-1.9-2.4-3.7-4-5.2 -1.4-1.5-3.2-3-5.4-3.1 -2.2-0.1-4.1 1.4-5.4 3 -1.5 1.7-2.8 3.6-3.9 5.5 -2.5 4.4-4.4 9.7-4.3 14.8 0.1 5.4 2.8 10.2 5.4 14.8C991.2 422.7 993.7 421.2 992.8 419.5L992.8 419.5z"/><path d="M824 323.3c-1.3 0.9-2.7 1.7-4 2.6 -1.1 0.8-2.1 1.9-1.2 3.3 0.7 1.2 2.3 1.6 3.6 2 1.5 0.5 3.1 1 4.6 1.5 1.6 0.5 3.1 0.9 4.7 1.3 1.2 0.3 2.6 0.6 3.7-0.2 1.1-0.7 1.3-2.1 1.5-3.3 0.3-1.7 0.5-3.5 0.7-5.2 0.1-1.5 0.2-2.9 0.3-4.4 0.1-1.5 0.3-3.4-0.2-4.9 -0.8-2.2-3.8-3.5-5.8-4.3 -2.5-0.9-5.1-1.1-7.7-1.3 -2.7-0.2-5.3 0-6.9 2.4 -1.6 2.4-1.2 5.5 0.4 7.7 1.9 2.6 5 3.8 8.1 4.5 1.9 0.4 2.7-2.5 0.8-2.9 -2-0.4-4.1-1-5.7-2.5 -1.1-1.1-2-2.6-1.6-4.2 0.5-1.9 2.1-2.2 3.9-2.1 1.8 0.1 3.6 0.3 5.4 0.6 1.8 0.4 3.7 0.9 5.2 2.1 0.6 0.5 1.1 0.8 1.2 1.7 0.1 1.2 0 2.4 0 3.6 -0.1 2.4-0.3 4.8-0.7 7.2 -0.1 0.5-0.2 1.1-0.3 1.6 0 0.2-0.1 1-0.3 1.2 -0.3 0.2-2-0.4-2.4-0.5 -2.6-0.7-5.2-1.5-7.8-2.3 -0.5-0.2-1.3-0.6-1.9-0.6 0 0-0.1 0-0.1 0 -0.3-0.2-0.5 0.1-0.3 1 0.1 0 0.9-0.6 1-0.6 1.1-0.7 2.2-1.4 3.3-2.1C827.1 324.8 825.6 322.2 824 323.3L824 323.3z"/><path d="M560.8 309.4c3.2 1.1 6.6 0 9.2-2.2 2.8-2.3 4.1-5.9 4.6-9.4 0.6-3.9 0.3-7.9 0.9-11.9 0.3-2 1-3.7 1.7-5.6 0.6-1.5 0.6-3.2-0.6-4.4 -2.2-2.3-6.3-2.4-9.2-2.5 -3.5-0.1-7.1 0.7-9.6 3.3 -1.3 1.3-2.2 2.9-3.2 4.5 -1 1.7-2.1 3.4-3 5.2 -1.9 3.5-3.5 7.2-4.3 11.1 -0.4 2-0.7 4.2-0.5 6.3 0.3 2.2 1.6 3.6 3.6 4.4 4.1 1.7 8.8 3.2 13.1 1.6 1.8-0.6 1-3.5-0.8-2.9 -3.3 1.2-6.8 0.1-10-1.1 -1.3-0.5-2.7-0.8-3-2.3 -0.3-1.6 0.1-3.5 0.4-5.1 1.2-6.3 4.6-12.1 8.1-17.4 1.6-2.5 3.6-4.2 6.7-4.6 2.6-0.3 5.8-0.2 8.3 0.7 1.2 0.4 1.7 0.9 1.2 2.1 -0.7 1.6-1.3 3.1-1.6 4.9 -0.6 3.1-0.6 6.3-0.7 9.5 -0.2 3.4-0.6 7.1-2.7 9.9 -1.8 2.3-4.8 3.8-7.7 2.8C559.8 305.9 559 308.8 560.8 309.4L560.8 309.4z"/><path d="M585.4 272.4c-1.2 2.5-2.5 5.6-1.4 8.4 0.9 2.5 3.3 3.7 5.8 4.1 2.5 0.4 5.6 0.8 7.6-1 0.5-0.4 0.8-1 1.3-1.4 0.5-0.4 1.1-0.6 1.8-0.8 1.5-0.4 3.1-0.8 4.6-1.3 1.4-0.5 2.8-1.1 4.1-1.8 1.3-0.6 2.9-1.2 3.9-2.1 1.1-1 1.3-2.2 1.5-3.6 0.2-1.8 0.5-3.6 0.7-5.4 0.2-1.4 0.5-2.8-0.3-4.1 -0.7-1.1-2-1.9-3.3-2.3 -2.7-0.8-5.6 0.1-8.1 1 -3.5 1.2-6.9 2.6-10.2 4.2 -1.7 0.8-3.3 1.6-5 2.5 -1.4 0.8-2.7 1.6-3.6 3 -1 1.6 1.6 3.2 2.6 1.5 0.5-0.9 1.4-1.3 2.3-1.8 1.2-0.7 2.5-1.3 3.7-1.9 2.3-1.1 4.7-2.1 7.1-3.1 2.3-0.9 4.6-1.9 7-2.4 1.4-0.3 5-0.6 5.1 1.6 0 1.3-0.3 2.6-0.5 3.9 -0.2 1.3-0.2 2.8-0.6 4.1 -0.3 0.9-1.4 1.2-2.2 1.6 -1.2 0.6-2.3 1.1-3.5 1.7 -2.2 1-4.6 1.3-6.8 2.2 -1 0.4-1.9 0.8-2.6 1.6 -0.8 0.9-1.2 1.6-2.5 1.7 -1.9 0.1-4.8 0-6.3-1.4 -1.9-1.8-0.4-4.9 0.5-6.9C588.8 272.2 586.2 270.6 585.4 272.4L585.4 272.4z"/><path d="M750.2 267.6c0.4 2.2 2.2 3.7 4.2 4.4 2.3 0.8 5 0.3 7 1.7 1.8 1.3 3.5 2 5.7 1.7 1.8-0.3 3.6-1.3 4.6-2.8 1.1-1.6 1.3-3.8 0.8-5.7 -0.3-0.9-0.7-1.7-1.2-2.4 -0.3-0.3-0.5-0.6-0.9-0.9 -0.2-0.2-1.3-0.7-1.4-0.9 0.2 0.5 0.3-0.5 0.3-0.5 0.1-0.3 0.1-0.8 0.2-1.2 0.1-0.6 0.2-1.3 0.3-1.9 0.2-1.5 0.4-3.1 0.7-4.6 0.4-2.4 0.6-5 1.8-7.2 2.2-4.2 6.4-7.1 8.1-11.7 0.7-1.9 1.3-4.9-0.3-6.6 -1.6-1.6-4.8-2.2-6.9-2.5 -2.6-0.4-5.2-0.5-7.9-0.5 -2.4 0-4.9-0.1-7.2 0.6 -4.2 1.2-6.5 4.9-6.8 9.1 -0.2 2.4 0.3 4.7 1.2 6.9 1 2.4 2.5 4.9 2.1 7.6 -0.4 2.9-2.1 5.6-2.9 8.4 -0.9 3-1.4 6-1.5 9.1 -0.1 1.9 2.9 1.9 3 0 0.2-4.8 1.6-9.1 3.4-13.6 0.8-2.1 1.3-4.2 0.9-6.4 -0.3-2.1-1.3-3.9-2.1-5.8 -1.3-3.1-1.7-6.9 0.2-9.9 2.3-3.5 7.3-3 10.9-2.9 2.3 0 4.6 0.1 6.8 0.6 1 0.2 2 0.5 3 0.8 0.4 0.1 1.3 0.3 1.6 0.7 0.3 0.3 0.2 1 0.2 1.4 -0.3 4.2-4 7.4-6.4 10.5 -1.3 1.7-2.4 3.5-3 5.5 -0.6 2.2-0.9 4.5-1.2 6.7 -0.4 2.4-0.7 4.8-1.1 7.2 -0.1 1 0 1.9 0.8 2.6 0.7 0.6 1.4 0.8 2 1.6 1 1.3 1.1 3.4 0 4.7 -1 1.3-3.1 1.7-4.6 1.1 -1-0.4-1.7-1.3-2.7-1.7 -1.1-0.5-2.2-0.6-3.4-0.8 -2-0.2-5-0.4-5.4-2.9C752.7 264.9 749.9 265.7 750.2 267.6L750.2 267.6z"/><path d="M837.7 231.4c0.8-1.1 1.5-2.6 1.6-3.9 0.1-1.7-1-2.4-2.5-2.6 -3.4-0.4-6.8 0.5-10 1.1 -5.8 1.2-11.8 2.8-16.6 6.4 -1 0.8-2.1 1.6-2.6 2.7 -0.7 1.5-0.5 3.6-0.4 5.2 0.2 3 1 6 3 8.4 2 2.3 5 3.2 8 2.7 3.1-0.5 5.7-2.4 8.1-4.4 2.6-2.2 5.2-4.5 7.3-7.2 1-1.3 1.9-2.6 2.5-4 0.8-1.7 1.2-3.5 1.7-5.3 0.5-1.9-2.4-2.7-2.9-0.8 -0.7 2.4-1.2 4.7-2.6 6.9 -1.3 2-3 3.7-4.7 5.3 -3.2 3-7.8 8-12.7 6.5 -2.2-0.7-3.5-2.7-4.1-4.8 -0.4-1.3-0.5-2.6-0.6-3.9s-0.4-2.9 0.6-3.9c3.3-3.2 8.1-4.8 12.4-5.9 2.6-0.7 5.3-1.2 8-1.7 1.6-0.3 3.3-0.5 4.9-0.4 0.1 0 0.8 0.1 0.8 0.1 -0.2-0.2-0.4-0.3-0.6-0.5 0 0.2-0.1 0.4-0.2 0.6 -0.2 0.7-0.6 1.3-1 1.9C834.1 231.4 836.7 232.9 837.7 231.4L837.7 231.4z"/><path d="M1108 558.5c0.6-4.6-1.1-8.8-4-12.4 -3-3.7-6.5-6.2-11.1-7.6 -5.3-1.6-10.7-2.6-16.1-3.9 -2.9-0.7-5.7-1.4-8.6-2 -2.4-0.5-5-1-7.4 0 -3.7 1.6-4.9 6.1-3.9 9.7 1.2 4.4 5.2 7 9.2 8.6 4.5 1.8 9.7 2.6 13.3 6.1 3.3 3.2 5.2 7.7 9.2 10.1C1095.8 571.5 1106.5 566.7 1108 558.5c0.4-1.9-2.5-2.8-2.9-0.9 -1.1 6-8.4 9.8-14.1 7.5 -3.5-1.5-5.5-5.3-7.8-8.1 -2.8-3.5-6.5-5.4-10.7-6.9 -3.8-1.3-8-2.3-10.9-5.3 -2.1-2.2-3.2-6.1-0.9-8.6 1.5-1.6 3.9-1.3 5.8-0.9 2.5 0.5 5 1.2 7.5 1.8 4.9 1.2 9.8 2.3 14.7 3.5 2.1 0.5 4.3 1.1 6.3 2 2.1 1 3.8 2.4 5.4 4.1 3.1 3.3 5.1 7.2 4.5 11.8 -0.1 0.8 0.8 1.5 1.5 1.5C1107.4 560 1107.9 559.3 1108 558.5L1108 558.5z"/><path d="M894.3 509.4c-1.8-8.6 3.3-16.8 5.5-24.8 2.4-8.5 2.6-17.4 2.5-26.2 -0.1-8.9-0.3-17.8 0.3-26.8 0.6-9.1 1.9-18.2 3.7-27.1 0.9-4.5 2-8.9 3.2-13.3 0.4-1.6 0.8-3.8 2.3-4.7 1.1-0.7 2.6-0.3 3.6 0.4 3.4 2.2 2.9 6.4 1.9 9.7 -1.3 4.2-2.8 8.2-3.8 12.6 -1.8 8.5-2.2 17.2-2.9 25.9 -0.6 9.1-1.6 18.2-3 27.3 -1.4 9.1-3.1 18.1-5.1 27 -1 4.5-2.1 8.9-3.4 13.3 -1 3.6-2 7.3-3.9 10.6 -0.9 1.5-2.1 2.9-3.4 4 0.9 0.4 1.7 0.7 2.6 1.1 0-3 0-6.1 0.1-9.1 0-1.9-3-1.9-3 0 0 3 0 6.1-0.1 9.1 0 1.4 1.6 1.9 2.6 1.1 3-2.5 4.9-5.9 6.2-9.6 1.5-4.1 2.5-8.4 3.6-12.7 2.4-9.3 4.3-18.8 5.9-28.3 1.6-9.5 2.8-19 3.6-28.6 0.8-9.3 1-18.6 2.7-27.8 0.8-4.6 2.1-8.9 3.7-13.3 1.3-3.7 2.5-8.4 0.2-12 -1.7-2.6-4.9-4.7-8.1-3.8 -4 1.1-4.8 6-5.7 9.4 -4.8 18.5-7 37.6-6.8 56.8 0.1 9.3 0.6 18.7-0.9 28 -0.7 4.6-2.1 8.9-3.7 13.3 -1.5 4.2-3.1 8.5-3.6 13 -0.2 2.2-0.1 4.4 0.4 6.5C891.8 512.1 894.7 511.3 894.3 509.4L894.3 509.4z"/><path d="M1016.5 454.6c0.8-2.9-0.2-5.9-2.3-8 -2.3-2.3-5.7-3.2-8.8-3.6 -5.6-0.7-12.6 0.2-14.8 6.3 -2.2 6.1 1.9 12 6.7 15.4 5.2 3.7 12 5.5 15.9 10.8 4 5.3 4.6 12.5 6.9 18.6 2.1 5.8 5.6 11 11.5 13.2 5.3 1.9 11.5 0.6 14.2-4.7 3-5.7 1-12.2-2.3-17.3 -2.1-3.2-4.6-6.3-6.9-9.3 -2.5-3.2-5.1-6.3-8-9.2 -2.6-2.6-5.5-4.8-8.1-7.2 -2.4-2.2-4.6-4.7-5.2-8 -0.4-1.9-3.3-1.1-2.9 0.8 1 5.4 5.4 9 9.4 12.3 4.9 4.1 9 8.9 13 13.9 3.6 4.6 8.1 9.5 9.3 15.4 1 4.8-1.1 10.6-6.5 11.3 -5.2 0.7-9.9-2.8-12.4-7 -3-5.1-4-11-5.8-16.5 -0.9-2.9-2.1-5.7-4-8.1 -1.7-2.3-4-4-6.4-5.5 -4.8-2.9-11-5-14.2-9.9 -1.5-2.3-2.3-5.4-1.3-8.1 1.1-2.8 3.9-4 6.7-4.3 3-0.3 6.5 0 9.3 1.1 2.7 1.1 5.1 3.7 4.2 6.8C1013.1 455.7 1016 456.5 1016.5 454.6L1016.5 454.6z"/><path d="M1041.3 366.4c-2.2-4.9-7.5-6.7-11.9-9.2 -5.6-3.1-8.6-8.8-11.4-14.3 -6.1-11.8-9.7-24.9-10.5-38.1 -0.5-7.5-0.2-15.2 1.1-22.6 -0.5 0.4-1 0.7-1.4 1.1 2.8 0.2 4.2 3.1 4.9 5.5 1.1 3.7 1 7.8 1.1 11.6 0.2 4.2 0.4 8.5 1.3 12.7 0.7 3.2 1.8 6.3 3.2 9.2 5.7 11.9 15.5 21.2 22.7 32.1 2 3.1 3.9 6.2 5.3 9.6 0.4 1 2.1 4.2-0.1 4.2 -1.9 0-2.6-2.6-3.1-4 -0.6-1.8-3.5-1.1-2.9 0.8 0.6 1.9 1.3 3.8 2.9 5.1 1.3 1 3.1 1.4 4.7 0.9 4.4-1.6 1.8-6.9 0.5-9.8 -3.1-6.7-7.7-12.7-12.2-18.5 -4.6-5.8-9.3-11.5-13-17.8 -1.8-3.1-3.3-6.4-4.4-9.8 -1.3-4.4-1.7-8.9-1.9-13.5 -0.2-4.7 0-9.9-1.6-14.4 -1.2-3.5-3.6-6.6-7.5-6.9 -0.6 0-1.3 0.5-1.4 1.1 -2.3 13.5-1.8 27.4 1.4 40.7 1.6 6.5 3.8 12.8 6.6 18.9 1.4 3.1 3 6.1 4.8 9.1 1.7 2.9 3.6 5.7 6.3 7.8 4.4 3.4 11.5 4.6 13.9 10.1C1039.5 369.7 1042.1 368.2 1041.3 366.4L1041.3 366.4z"/><path d="M897.4 291.4c-2.9 2.8 0.5 7.9 3 9.6 2 1.3 4.5 1.8 6.8 2.3 2.5 0.6 5 1.2 7.5 1.5 2.4 0.3 5 0.1 7.1-1.3 1.7-1.2 3-2.9 3.9-4.8 2.3-4.6 4.1-9.7 5.6-14.6 3.2-10.3 5.2-21.1 5.8-31.9 0.1-2.3-0.5-4.3-3-4.7 -2.1-0.3-4.2 0.4-5.8 1.7 -1.8 1.3-3.2 3-4.5 4.8 -1.7 2.2-3.3 4.5-4.9 6.8 -7.3 10.3-14.1 20.8-21.7 30.9 -1.2 1.5 1.4 3 2.6 1.5 5.8-7.7 11.2-15.7 16.6-23.6 2.7-3.9 5.5-7.9 8.3-11.7 1.9-2.6 4.6-7.3 8.4-7.4 1.1 0 1.2 0.3 1.1 1.3 0 1.2-0.1 2.3-0.2 3.5 -0.2 2.3-0.4 4.7-0.7 7 -0.6 4.7-1.5 9.4-2.7 14 -1.1 4.5-2.5 9-4.1 13.3 -0.8 2.1-1.6 4.3-2.6 6.4 -0.7 1.7-1.6 3.4-3 4.6 -1.8 1.6-4.3 1.6-6.6 1.3 -2.6-0.4-5.1-1.1-7.7-1.7 -2-0.4-4.1-0.9-5.5-2.4 -0.6-0.7-2.5-3.2-1.6-4.1C900.9 292.2 898.8 290.1 897.4 291.4L897.4 291.4z"/><path d="M892.1 241.2c-1.5-1.7-3.9-0.8-5.1 0.8 -0.6 0.9-1.1 1.9-1.6 2.8 -0.6 1.1-1.2 2.1-1.7 3.2 -1.1 2-2.5 4-2.8 6.2 -0.3 1.9 0.4 4.1 2.1 5.1 0.9 0.5 1.9 0.6 2.9 0.7 1.3 0.1 2.6 0.1 3.9 0.1 1.1 0 2.2 0.1 3.3 0.1 1.2 0 2.6 0.2 3.8-0.3 1.7-0.8 2.4-2.9 2.7-4.6 0.3-1.7 0.3-3.5 0-5.2 -0.7-3.8-3.2-7.3-6.6-9.3 -1.7-0.9-3.2 1.7-1.5 2.6 4.3 2.4 6.6 8 4.9 12.6 -0.2 0.4-0.3 1-0.8 1.2 -0.6 0.3-1.7 0-2.4 0 -1.9-0.1-3.8-0.1-5.6-0.2 -1.2 0-3 0.3-3.5-1.1 -0.5-1.4 0.4-2.9 1-4 1-1.8 2-3.6 3-5.4 0.2-0.3 1.8-3.4 2.1-3.1C891.3 244.8 893.4 242.6 892.1 241.2L892.1 241.2z"/><path d="M1276.2 403.2c-2.7 0-5.2 1.1-7.5 2.4 -2.5 1.4-4.9 2.8-7.5 4.1 -2.6 1.3-5.3 2.4-8 3.4 -2.7 1-5.5 2.2-8.4 2.6 -2.9 0.4-5.5-0.9-8.1-2 -2.6-1.1-5.3-2-8.1-2.6 -2.8-0.6-5.7-0.9-8.5-0.9 -2.4 0-5.3-0.1-7.3 1.3 -4.4 3.1-1.1 9.1 1.6 12.1 2.9 3.4 6.9 5.6 11 7.2 4.3 1.7 9 2.7 13.5 3.6 3 0.6 5.8 0.6 8.7-0.2 2.7-0.7 5.3-1.9 7.9-3 2.8-1.2 5.5-2.7 7.8-4.8 2.2-2.1 3.9-4.6 6.2-6.6 2.3-1.9 4.8-3.4 6.7-5.8 1.9-2.4 2.9-5.2 2.3-8.2 -0.4-1.9-3.3-1.1-2.9 0.8 1.1 5-4.8 8.3-8 10.9 -1.9 1.6-3.4 3.5-5 5.3 -1.7 1.9-3.6 3.3-5.8 4.5 -2.2 1.1-4.5 2.1-6.8 3 -2.5 1-5 1.7-7.7 1.5 -2.3-0.2-4.6-0.8-6.9-1.3 -2.1-0.5-4.1-1-6.2-1.6 -3.8-1.2-7.6-2.8-10.7-5.5 -1.5-1.3-2.7-2.7-3.7-4.4 -0.9-1.5-1.9-4.3 0.2-5.3 2-0.9 4.9-0.6 7-0.5 2.6 0.1 5.2 0.5 7.7 1.2 2.6 0.7 5 1.6 7.5 2.7 2.2 1 4.6 1.8 7.1 1.7 3-0.1 5.9-1.3 8.7-2.3 2.7-1 5.3-2 7.9-3.2 2.6-1.2 5.2-2.5 7.7-4 2.5-1.4 5-3.1 7.9-3.1C1278.1 406.2 1278.1 403.2 1276.2 403.2L1276.2 403.2z"/><path d="M801 552.5c0.9 16.2-2.2 33-11.9 46.4 0.7-0.2 1.4-0.4 2.1-0.5 -7.3-5.3-7.1-15.7-6.8-23.8 0.2-5 0.6-10 0.5-15 -0.1-5.5-0.6-11.1-1.5-16.6 -1.7-10.9-5-21.5-9.6-31.5 -4.6-10-10.9-19-17.6-27.7 -6.7-8.6-13.7-17-18.8-26.7 -2-3.7-3.9-7.7-3.3-11.9 0.2-1.5 0.8-3.1 2.3-3.8 1.6-0.8 3.2-0.3 4.5 0.8 3.3 2.7 4.8 7.1 7.4 10.5 2.9 3.7 6.5 6.7 10.3 9.5 3.9 2.9 7.9 5.7 11.2 9.2 3.8 4 6.4 9 8.9 13.8 2.9 5.6 5.9 11.1 8.8 16.7 2.6 5 5.4 10 7.8 15.2 4 8.7 6.3 17.7 6.3 27.3C801.5 547 801.3 549.8 801 552.5c-0.2 1.9 2.8 1.9 3 0 1.1-10.3 0.3-20.6-3.4-30.4 -1.8-4.8-4-9.4-6.4-13.9 -3.1-5.9-6.2-11.7-9.3-17.6 -2.8-5.4-5.5-11-8.9-16.1 -2.9-4.4-6.7-7.9-10.8-11.1 -3.9-3-8-5.7-11.5-9.1 -1.8-1.7-3.3-3.5-4.6-5.6 -1.2-1.9-2.2-3.9-3.6-5.7 -2.5-3.4-6.2-6.3-10.5-4.3 -3.7 1.7-4.4 6.2-3.9 9.8 0.6 4.9 3.1 9.3 5.6 13.4 2.9 4.8 6.1 9.4 9.5 13.8 6.9 9 14.3 17.7 20 27.6 5.8 10 10.1 20.9 12.7 32.1 2.6 11.2 3.4 22.6 2.7 34.1 -0.5 8.7-1.5 18.9 3.4 26.5 1.2 1.9 2.7 3.4 4.5 4.8 0.7 0.5 1.6 0.1 2.1-0.5 10-13.7 13.3-31.2 12.3-47.9C803.9 550.6 800.9 550.6 801 552.5L801 552.5z"/><path fill="#19100F" d="M654.2 311.9c-2.9 0.4-5.7 0.9-8.6 1.5 -2.3 0.5-4.7 0.8-6.3 2.7 -1.6 2-2.7 4.7-4 7 -1.3 2.4-2.1 4.6-2.6 7.3 -0.5 2.6-1.7 5.1-2.7 7.6 -0.9 2.4-1.8 4.9-3.6 6.9 -1.6 1.7-3.4 3.5-3.6 6 -0.1 2.2 1.3 3.9 3.3 4.7 2.2 0.9 4.6 0.8 6.9 0.6 2.6-0.3 5.1-0.6 7.7-1.1 2.5-0.5 4.9-1.3 7-2.5 2.2-1.3 4.1-3 6-4.7 0.4-0.4 0.8-0.9 1.3-1.1 0.5-0.2 1.2-0.1 1.8-0.1 1.4 0 2.7 0.1 4.1 0.1 2.7 0.1 5.4 0 8-0.6 2.2-0.5 4.6-1.3 5.9-3.2 1.3-1.9 1.1-4.3-0.7-5.8 -2.1-1.7-4.8-2.5-7.2-3.8 -2.3-1.2-4.2-2.9-5.7-5 -1.5-2.1-2.6-4.5-3.5-6.9 -1-2.5-2.3-5.3-2.3-8 0-1.9-3-1.9-3 0 0 2.3 0.9 4.5 1.6 6.6 0.7 2 1.5 3.9 2.3 5.8 1.8 3.7 4.2 7.1 7.8 9.4 1.9 1.2 3.9 2 5.9 3 0.7 0.4 2 0.8 2.5 1.6 0.6 0.9-0.4 1.9-1.1 2.4 -3.9 2.3-9.4 1.7-13.7 1.6 -1.1 0-2.4-0.2-3.5 0.2 -1.1 0.3-1.9 1.1-2.7 1.9 -1.7 1.6-3.4 3.1-5.4 4.2 -4.1 2.4-9.1 2.8-13.7 3.2 -1.8 0.2-4.2 0.4-5.9-0.7 -2.1-1.4 0.1-3.7 1.2-5 3.4-3.5 4.7-8.3 6.5-12.7 0.4-1.1 0.9-2.3 1.1-3.4 0.3-1.3 0.4-2.6 0.9-3.8 1-2.6 2.5-5 3.9-7.4 0.6-1.1 1.1-2.4 2.2-3 1.1-0.6 2.5-0.7 3.7-0.9 2.8-0.6 5.7-1.1 8.6-1.5C656.9 314.6 656.1 311.7 654.2 311.9L654.2 311.9z"/><path fill="#19100F" d="M589.1 307.4c-2.7 3.1-2.4 7.3-1.2 11 1.3 4 3.5 7.6 7.8 8.6 4.1 0.9 8.8 1.2 12.6-0.7 3.5-1.7 6.2-4.9 7.8-8.4 2.3-4.9 2.7-10.3 2.9-15.6 0.1-1.2-1.3-1.7-2.3-1.3 -4.3 1.9-9.1 1.6-13.7 2.3 -4.8 0.7-9.4 2.2-14.1 3.8 -1.8 0.6-1 3.5 0.8 2.9 4.8-1.6 9.6-3.2 14.6-3.8 4.7-0.6 9.4-0.5 13.9-2.5 -0.8-0.4-1.5-0.9-2.3-1.3 -0.3 7-1 15.1-6.9 19.9 -2.8 2.3-5.9 2.6-9.4 2.3 -1.7-0.1-3.7-0.2-5.2-1.1 -1.5-0.9-2.4-2.4-3.1-3.9 -1.3-2.9-2.7-7.3-0.3-10C592.4 308.1 590.3 305.9 589.1 307.4L589.1 307.4z"/><path d="M1183.2 302.4c1.1 4.1 4.2 7.7 8.5 8.6 2.7 0.6 5.4 0.4 8.1 0.2 1.2-0.1 2.6-0.4 3.8-0.3 1.2 0.1 0.8 2 0.8 2.9 0 1.3 0 2.6 0 3.9 0 1 0.4 2.6-0.7 3.1 -0.8 0.3-1.8 0.2-2.6 0.1 -1.4-0.2-2.7-0.4-4.1-0.7 -5.6-0.9-11.3-1.8-17-2.4 -5.8-0.7-11.6-1.2-17.4-1.2 -2.8 0-5.7 0-8.5 0.2 -2.8 0.2-5.5 0.7-8.3 0.8 -0.7 0-1.5 0.1-2-0.5 -0.8-0.9-0.8-1.9-0.8-2.9 0-1.7 0.2-3.5 0.8-5.1 0.7-1.7 2.1-2.4 3.9-2.6 1.6-0.2 3.3 0.7 4.8 1.4 1.2 0.6 2.5 1.2 3.9 1.1 1.4-0.1 2.8-0.2 4.2-0.4 1.3-0.2 2.7-0.3 3.9-0.6 1.6-0.4 2.9-1.8 3.7-3.1 0.9-1.7 1.1-3.6 1.2-5.5 0.1-1.6 0-3.2-0.3-4.8 -0.4-1.8-1-3.5-1.5-5.3 -0.5-2-1.5-3.4-3.1-4.7 -1.6-1.2-3.4-2-5.2-2.9 -2-1-4.1-2.2-5.9-3.6 -3.2-2.3-6.5-6.7-4.3-10.7 1-2 3.3-2.7 5.4-3 2.5-0.4 5.2-0.2 7.7 0.2 5.2 0.8 10.4 2.4 15.8 2 2.7-0.2 5.3-0.5 8-0.6 2.7-0.1 5.5-0.3 8.2-0.1 2.3 0.2 4.4 1 5.3 3.1 0.9 2 1.1 3.9 0.7 6 -0.4 2-2.4 3.4-4 4.6 -1.8 1.3-3.6 2.6-5.3 4.1 -3.4 3-6.9 6.9-7.9 11.4 -0.5 2.3-0.4 4.6 0.2 6.9 0.5 1.9 3.4 1.1 2.9-0.8 -0.7-2.5-0.5-5.1 0.4-7.4 1-2.3 2.7-4.4 4.5-6.1 1.7-1.8 3.7-3.3 5.7-4.8 1.9-1.4 3.9-2.8 5.3-4.7 1.1-1.5 1.5-4 1.4-5.8 -0.2-2.2-1-4.8-2.4-6.5 -1.6-1.9-4.1-2.7-6.5-2.9 -2.8-0.3-5.8 0-8.6 0.1 -2.8 0.1-5.6 0.5-8.4 0.6 -2.8 0.1-5.6-0.3-8.3-0.8 -5.4-1-11-2.4-16.5-1.2 -4.8 1-7.8 4.9-7.1 9.8 0.7 5 4.6 8.3 8.7 10.8 2 1.2 4 2.2 6 3.3 1.7 0.9 3.6 1.9 4.3 3.8 0.6 1.8 1.1 3.8 1.6 5.6 0.4 1.6 0.4 3.2 0.3 4.9 -0.2 1.8-0.4 4.2-2.2 5.1 -0.9 0.4-2.2 0.4-3.1 0.6 -1.5 0.2-3 0.4-4.6 0.4 -0.2 0-0.4 0-0.6 0 -0.1 0-0.4-0.1 0 0 0.6 0.1-0.7-0.3-0.7-0.3 -0.6-0.2-1.2-0.5-1.8-0.8 -1.9-0.9-4.1-1.7-6.3-1.3 -2.1 0.3-3.9 1.1-5.1 2.8 -1.1 1.6-1.5 3.6-1.7 5.5 -0.2 2.1-0.4 4.2 0.7 6.1 1.2 2 2.9 2.8 5.2 2.6 3-0.2 5.9-0.7 8.8-0.8 6.1-0.3 12.2-0.1 18.3 0.4 6.2 0.5 12.3 1.4 18.4 2.3 3 0.5 6 1 9 1.4 1.9 0.3 4.2 0.2 5.7-1.2 0.8-0.8 1.1-1.9 1.1-3 0.1-1.6 0-3.2 0-4.8 0-2.3 0.4-5.6-2.2-6.6 -1.1-0.4-2.3-0.2-3.5-0.2 -1.6 0.1-3.1 0.3-4.7 0.3 -2.5 0.1-5.3 0-7.4-1.5 -1.8-1.3-2.9-3.2-3.5-5.2C1185.6 299.8 1182.7 300.6 1183.2 302.4L1183.2 302.4z"/><path d="M1143.9 318.7c-0.5 4 4.7 4.6 7.5 5.2 4.1 0.9 8.3 1.6 12.5 2 8.2 0.9 16.6 1.3 24.9 1.4 4.2 0 8.4-0.4 12-2.6 1.1-0.6 0.9-2.5-0.4-2.7 -9.3-1.9-18.6-3.2-28.1-3.9 -4.7-0.3-9.4-0.5-14.1-0.6 -4.5 0-9.1-0.1-13.3 1.5 -1.8 0.7-1 3.6 0.8 2.9 4.1-1.5 8.5-1.4 12.8-1.4 4.6 0 9.2 0.2 13.8 0.6 9.2 0.7 18.3 1.9 27.3 3.8 -0.1-0.9-0.2-1.8-0.4-2.7 -3.6 2.1-7.9 2.3-12 2.2 -4.7-0.1-9.3-0.3-14-0.6 -4.7-0.3-9.5-0.7-14.2-1.4 -2.3-0.4-4.7-0.8-7-1.3 -1.1-0.2-2.1-0.5-3.2-0.8 -0.5-0.1-1-0.2-1.5-0.4 -0.3-0.1-0.7-0.6-0.8-0.3 0.1-0.8-0.2-1.6-1-1.8C1145 317.5 1144 317.9 1143.9 318.7L1143.9 318.7z"/><path d="M625.8 745.7c1.9 0 1.9-3 0-3C623.9 742.7 623.9 745.7 625.8 745.7L625.8 745.7z"/><path d="M720.7 695.2c-17.4 10.8-33.5 23.5-49.4 36.2 -7.3 5.8-14.6 11.9-19.6 19.9 -4.8 7.8-6.4 17-4.1 25.9 2.3 8.8 8.2 16 16.2 20.4 8.5 4.7 18.4 6.5 27.8 8.5 11.1 2.4 22.2 4.6 33.3 7.3 4.5 1.1 8.9 2.7 12.1 6.2 2.6 2.9 4 6.6 4.8 10.4 1.8 9 0.3 18.4-0.6 27.3 -0.5 4.6-0.6 9.3-1.9 13.7 -1.1 3.7-3 6.8-6.8 8 -1.2 0.4-2.4 0.7-3.6 0.9 -0.2 0-1.3 0.2-1.4 0.1 -0.3-0.3 0.1-1.3 0.2-1.7 0.3-0.8 0.6-1.7 1-2.5 2-4.2 3.6-8.4 5-12.8 3.1-9.6 4.6-20.2 0.8-29.9 -7.4-18.7-30.3-20.2-47.3-22.9 -5.4-0.9-10.7-1.6-16.1-2.7 -4.7-0.9-9.4-2.1-13.5-4.8 -8.1-5.2-10.6-14.8-12.4-23.6 -1-4.8-2.8-9.5-3.7-14.3 -0.4-2.4-0.5-4.8-0.6-7.3 -0.1-1.5-0.7-3.6 0-5 0.6-1.3 1.8-2.4 2.7-3.4 1.1-1.2 2.1-2.3 3.3-3.4 3.4-3.1 7.1-6 10.7-8.9 15.7-12.9 32.1-25.3 50.6-33.9 4.4-2 8.9-3.8 13.6-5.4 1.8-0.6 1-3.5-0.8-2.9 -19.7 6.4-37.2 17.8-53.5 30.4 -4.1 3.2-8.2 6.4-12.2 9.7 -3.6 2.9-7.3 5.7-10.7 8.9 -2.2 2.1-4.8 4.6-6.3 7.3 -0.9 1.6-0.7 3.6-0.5 5.3 0.2 2.4 0.1 4.7 0.4 7.1 0.6 4.8 2.3 9.4 3.5 14.2 1.2 4.7 1.9 9.4 3.7 13.9 1.7 4.3 4.1 8.4 7.5 11.5 3.6 3.2 8.1 5.2 12.7 6.4 5 1.3 10.2 2 15.4 2.9 5.7 0.9 11.4 1.9 17.2 2.8 8.6 1.4 17.8 3.2 25.1 8.4 8.1 5.8 11 15.5 10.3 25.1 -0.4 5.5-1.9 10.9-3.7 16.1 -0.8 2.3-1.6 4.7-2.6 7 -0.8 1.6-1.6 3.2-2.2 4.8 -0.6 1.5-1.1 3.3-0.3 4.8 0.9 1.7 2.8 1.8 4.5 1.5 4.3-0.6 8.2-2.3 10.6-6 2.2-3.4 2.9-7.5 3.4-11.4 0.7-5.6 1.1-11.2 1.7-16.8 0.8-8.2 1.3-17.2-1.9-24.9 -1.6-3.8-4.1-7-7.4-9.3 -4.2-2.8-9.3-3.9-14.2-5 -11.4-2.5-22.8-5-34.3-7.5 -9.2-2-19.1-4.2-26.7-10.2 -7.1-5.7-11.1-14.5-11-23.6 0.2-9.6 5.5-17.8 12-24.4 6.9-7 15-12.9 22.8-19 8.4-6.5 16.8-12.9 25.6-19 4.1-2.8 8.2-5.6 12.4-8.2C723.9 696.8 722.4 694.2 720.7 695.2L720.7 695.2z"/></svg>
