<?xml version="1.0" encoding="utf-8"?>
<!-- Generator: Adobe Illustrator 24.2.3, SVG Export Plug-In . SVG Version: 6.00 Build 0)  -->
<svg version="1.1" id="Layer_1" xmlns="http://www.w3.org/2000/svg" xmlns:xlink="http://www.w3.org/1999/xlink" x="0px" y="0px"
	 viewBox="0 0 1384.8 920.5" enable-background="new 0 0 1384.8 920.5" xml:space="preserve">
<g>
	<path fill="#FFFFFF" class="shape" d="M1034.3,166.6c9.6-16.5,7.8-37.2,2.7-55.6s-12.5-21.5-11.5-53.5c14.9-7.8,29.3-3.1,44,4.9
		c14.8,8,29.5,18.2,46.4,18.5c12.3,0.2,25.4,1.2,37.6-0.5c29.2-4,56.7,5.9,86.1,3.8c22.7-1.6,43-13.9,63.4-23.8
		c4.2-2,10.4-7.1,14.5-5c3,1.6,9.8,3.8,11,7c6.3,16.9,0,13.8-15,61c-7,22-10.4,30.2-8,44c1.6,9.3,5.7,12.6,10,21
		c12.6,25,12.2,51.3,4.5,78.2c-4.4,15.5-10.4,26.2-21.5,37.8c-9.1,9.5-28.6,16.6-41,21c-26.6,9.3-46.4,18.4-74.7,19.5
		c-9.4,0.4-19.1,0.3-27.9-3c-7.3-2.7-14.4-5.2-21.4-8.5c-15.1-7.1-31.9-9.6-48-13.9c-31-8.2-58.5-38.4-63-70.1
		c-5.6-39.4,3-72.5,11.4-83.8"/>
	<g>
		<path d="M1035.6,167.4c9.2-16.1,8.1-35.6,3.8-53c-1.4-5.8-3.4-11.3-5.7-16.8c-1.9-4.5-3.7-9.1-4.9-13.9c-2-8.5-2.2-17.4-1.9-26.1
			c-0.2,0.4-0.5,0.9-0.7,1.3c8.6-4.5,18.1-4.7,27.2-1.8c9.1,2.8,17.3,7.9,25.6,12.5c7.6,4.3,15.4,8.5,23.8,10.9
			c8.9,2.6,18.3,2.2,27.5,2.5c4.9,0.1,9.7,0.2,14.6-0.1c4.9-0.2,9.7-1,14.6-1.4c9.5-0.7,19.1-0.1,28.6,0.9c18.7,2,37.8,5.6,56.7,3
			c18-2.5,34.3-11.1,50.3-19.1c3.7-1.9,7.6-3.6,11.2-5.7c2.7-1.6,6.3-4.3,9.5-3.8c1.3,0.2,2.7,1.1,3.8,1.6c1.6,0.7,3.2,1.4,4.7,2.3
			c1.1,0.7,2.3,1.4,2.8,2.6c0.3,0.8,0.6,1.6,0.9,2.4c0.9,2.7,1.5,5,1.4,7.7c0,2.4-0.7,4.8-1.6,7.3c-1.3,3.8-3,7.5-4.5,11.2
			c-2.5,6.1-4.8,12.3-7,18.6c-3,8.6-5.8,17.3-8.5,25.9c-1.9,6.1-3.8,12.2-4.4,18.6c-0.6,6.1-0.1,12.8,2,18.6c1.2,3.4,3.1,6.4,5,9.5
			c2.4,3.8,4.5,7.7,6.2,11.9c7.3,17.2,8.7,36.2,5.7,54.5c-2.7,16.5-7.8,33-18.1,46.3c-4.7,6-9.8,11.2-16.3,15.1
			c-6.7,4-13.8,7.1-21.1,9.8c-7.7,2.9-15.5,5.6-23.3,8.4c-8.2,3-16.4,6-24.8,8.4c-8.5,2.5-17.2,4.4-26,5.4c-9.3,1-19,1.6-28.2,0.2
			c-4.8-0.7-9.2-2.3-13.7-4c-4.6-1.7-9.3-3.4-13.8-5.4c-4.2-1.9-8.4-3.8-12.8-5.3c-4.5-1.6-9-2.8-13.6-4c-9-2.3-18.2-4-27.1-6.6
			c-7.3-2.2-14.2-5.5-20.6-9.7c-13.1-8.6-24-20.6-31.3-34.5c-3.5-6.7-6.1-14-7.5-21.4c-1.7-9.3-2.3-19-2.2-28.4
			c0.1-15.1,1.9-30.6,7-45c1.5-4.2,3.3-8.5,6-12.2c1.1-1.6-1.5-3.1-2.6-1.5c-2.9,3.9-4.8,8.6-6.4,13.2c-2.3,6.5-3.8,13.3-4.9,20.1
			c-1.4,8.5-2,17.2-2,25.8c0,9.5,0.6,19.1,2.3,28.4c2.8,15.5,10.8,29.9,21.2,41.6c10.4,11.7,23.8,21.1,38.8,25.9
			c8.8,2.8,18,4.4,26.9,6.7c4.7,1.2,9.3,2.4,13.9,4c4.7,1.6,9.1,3.6,13.6,5.6c4.5,2,9.1,3.7,13.7,5.4c4.6,1.7,9.1,3.4,14,4.1
			c9.4,1.5,19.1,1.1,28.5,0.1c17.9-1.9,34.8-7.7,51.6-13.8c15.2-5.5,31.2-10.2,45.2-18.5c13.2-7.8,22.9-21.2,28.7-35.2
			c3.4-8.3,5.7-17.2,7.3-26.1c1.7-9.2,2.4-18.7,1.8-28c-0.6-9.2-2.5-18.4-5.8-27.1c-1.7-4.4-3.6-8.7-6-12.8
			c-1.9-3.2-4.1-6.3-5.7-9.7c-5.8-12.2-2.2-25.9,1.6-38.1c4.8-15.2,9.7-30.3,15.8-45c2.4-5.9,5.9-12.3,5.8-18.8
			c0-2.9-0.8-5.7-1.7-8.4c-0.3-0.9-0.6-1.9-1-2.8c-0.7-1.3-1.8-2.3-3-3.1c-2.7-1.8-5.8-3-8.7-4.3c-3.1-1.4-6.6,0.1-9.4,1.6
			c-3.5,1.8-6.9,3.8-10.4,5.6c-8.4,4.2-16.7,8.6-25.3,12.4c-8.4,3.7-17.2,6.8-26.2,8.4c-9.6,1.7-19.5,1.4-29.2,0.6
			c-19.3-1.6-38.5-5.6-57.9-4.1c-5,0.4-9.9,1.2-14.8,1.4c-5,0.2-10.1,0.2-15.2,0c-5-0.1-9.9-0.2-14.9-0.4c-4.4-0.2-8.7-1.1-12.9-2.5
			c-17.9-5.8-32.4-19.5-50.9-23.8c-9-2.1-17.9-1.2-26.1,3.1c-0.5,0.2-0.7,0.8-0.7,1.3c-0.2,7.9-0.1,15.9,1.3,23.8
			c0.9,5,2.5,9.8,4.5,14.5c1.9,4.7,3.9,9.4,5.4,14.3c2.5,8.5,4.2,17.4,4.5,26.4c0.3,10.2-1.5,20.5-6.6,29.4
			C1032.1,167.5,1034.7,169,1035.6,167.4L1035.6,167.4z"/>
	</g>
</g>
<g>
	<path fill="#FFFFFF" class="shape" d="M1091.5,205.3c-1.3-1.5,1-3.5,2.9-4.2c5.5-2,11.1-4,16.9-4.8s11.9-0.2,17,2.6c2.4,1.3,4.5,3.1,6.5,5
		c1.6,1.4,3.1,2.8,4.5,4.3c6.5,6.9,10.9,15.9,12,25.3c0.1,1.3-1,2.3-2.2,2.2c-4.9-0.7-11.2,2.7-14.8,2.4c-6-0.6-11.8-2.3-17.1-5.2
		c-5-2.7-10-5.3-14.3-8.9c-6.3-5.2-9-10.6-11.3-18.4"/>
	<g>
		<path d="M1092.8,204.5c-0.9-1.3,4.1-2.7,4.7-3c2.7-1,5.4-1.9,8.1-2.6c5.2-1.4,10.6-2,15.9-0.9c5.4,1.1,9.4,4.3,13.4,8
			c3.7,3.4,7,7.2,9.5,11.6c2.5,4.3,4.2,9,5.1,13.9c0.1,0.7,0.7,2.4-0.1,2.7c-0.3,0.1-1-0.1-1.4-0.1c-0.6,0-1.2,0-1.8,0.1
			c-2.2,0.2-4.4,0.8-6.6,1.4c-1.8,0.5-3.6,1.1-5.5,1c-2.6-0.2-5.1-0.8-7.6-1.5c-5.2-1.5-9.9-4-14.6-6.7c-4.8-2.8-9.5-6-13-10.4
			c-3-3.8-4.7-8.3-6.1-12.9c-0.6-1.8-3.5-1.1-2.9,0.8c1.4,4.7,3.2,9.3,6.1,13.2c3.4,4.5,7.8,7.9,12.6,10.8c5.1,3.1,10.4,6,16,7.8
			c2.9,0.9,5.8,1.5,8.8,1.8c2.3,0.3,4.4-0.3,6.6-0.9c2.3-0.6,4.7-1.4,7.2-1.5c1.2,0,2.3,0.3,3.4-0.2c1.1-0.5,1.9-1.6,2-2.8
			c0.1-1.2-0.2-2.6-0.5-3.8c-0.3-1.5-0.6-3-1.1-4.4c-0.8-2.6-1.8-5.2-3.1-7.6c-2.6-5.1-6.2-9.7-10.4-13.6c-4.4-4.1-8.9-7.9-14.9-9.4
			c-6.6-1.6-13.5-0.6-20,1.3c-1.7,0.5-3.3,1-5,1.6c-1.7,0.6-3.4,1.1-5,1.8c-2.1,1-4.6,3.6-2.8,6
			C1091.3,207.6,1093.9,206.1,1092.8,204.5L1092.8,204.5z"/>
	</g>
</g>
<g>
	<path fill="#FFFFFF" class="shape" d="M1198.9,234.5c-0.7-7.1-1.3-14.6,1.8-21.1c3.2-6.5,9.8-10.8,16.7-12.8c6.9-2,14.3-2.1,21.5-2.2
		c4.3,0,8.5-0.1,12.8,0.5c1.1,0.1,2.4,0.4,3,1.3c0.9,1.2-0.1,2.8-0.4,4.2c-1.8,10.1-8.1,22.1-17.8,28.1c-10.6,6.5-25,6-38,2"/>
	<g>
		<path d="M1200.4,234.5c-0.5-5.2-1.1-10.6,0.1-15.8c1-4.7,3.6-8.7,7.3-11.6c8.3-6.6,19.5-7,29.7-7.1c2.9,0,5.9-0.1,8.8,0
			c1.5,0.1,2.9,0.1,4.4,0.3c0.7,0.1,2.6,0.1,2.8,1c0.1,0.5-0.3,1.3-0.4,1.8c-0.2,0.5-0.3,1.1-0.4,1.7c-0.2,1-0.4,2-0.7,3
			c-0.6,2.1-1.3,4.1-2.1,6.1c-3.6,8.2-9.6,15.8-18,19.4c-10.4,4.4-22.5,3.1-33-0.1c-1.9-0.6-2.6,2.3-0.8,2.9
			c10.4,3.2,22.2,4.5,32.8,0.9c9.6-3.4,16.7-11.1,21-20.2c2.1-4.4,3.3-9.1,4.4-13.8c0.6-2.7-0.7-4.7-3.4-5.2
			c-2.9-0.6-6.1-0.6-9.1-0.6c-11.6-0.1-24.5-0.5-34.8,5.7c-4.8,2.9-8.7,7.1-10.7,12.4c-2.2,6.2-1.6,13-1,19.5
			C1197.6,236.4,1200.6,236.5,1200.4,234.5L1200.4,234.5z"/>
	</g>
</g>
<g>
	<path fill="#FFFFFF" class="shape" d="M1196.1,147.6c0.5-7.8,0.3-15.7-0.6-23.5c-0.8-6.5-0.2-13.2,0.9-19.6s3.6-12.7,10-14.1
		c4.7,12,4.8,25.1,4.8,38c0,5.1,0,10.3-1.5,15.2c-1.1,3.6-3,7-4.9,10.3c-4.7,8.3-9.4,16.6-14.1,24.9c-0.2,0.4-0.4,0.7-0.7,1
		c-2.8,3.3-6,2.1-4.9-2.3c0.6-2.1,0.7-4.3,1.7-6.3c4.2-8.1,8.2-14.7,9.6-23.7"/>
	<g>
		<path d="M1197.6,147.6c0.3-4.4,0.4-8.8,0.2-13.2c-0.2-4.4-0.8-8.7-1-13.1c-0.3-4.3,0-8.7,0.6-13c0.5-3.4,1-6.9,2.4-10
			c1.4-3.1,3.6-5.6,7.1-6.4c-0.6-0.3-1.2-0.7-1.8-1c3.2,8.3,4.3,17.2,4.6,26.1c0.2,4.5,0.2,8.9,0.2,13.4c0,4.5-0.2,9-1.6,13.4
			c-1.4,4.3-3.8,8.2-6,12.1c-2.4,4.2-4.7,8.3-7.1,12.5c-1.1,2-2.3,4-3.4,6c-1,1.8-1.9,4.3-3.6,5.5c-0.6,0.4-1.4,0.8-1.6-0.1
			c-0.2-0.8,0.2-1.7,0.4-2.5c0.2-1.1,0.4-2.1,0.7-3.2c0.6-2.3,2-4.5,3.1-6.6c1-2,2.1-4,3-6c2-4.3,3.5-8.7,4.2-13.3
			c0.3-1.9-2.6-2.7-2.9-0.8c-0.7,4.5-2.1,8.8-4.1,13c-0.9,2-1.9,3.9-3,5.9c-1.1,2-2.4,4.1-3.1,6.3c-0.3,1-0.5,2.1-0.7,3.1
			c-0.2,1.1-0.6,2.2-0.6,3.4c-0.1,1.5,0.4,3.1,1.7,3.9c3.7,2.3,6.7-2.7,8.2-5.3c2.6-4.5,5.1-9,7.7-13.5c2.5-4.4,5.1-8.8,7.4-13.2
			c2.3-4.4,3.7-8.9,4.1-13.9c0.4-4.8,0.3-9.7,0.2-14.6c-0.1-10.9-0.9-21.9-4.8-32.1c-0.3-0.8-1-1.2-1.8-1c-6.9,1.6-9.8,8.5-11,14.8
			c-0.8,4.5-1.4,9.1-1.4,13.7c0,4.7,0.7,9.3,1,14c0.3,5.4,0.3,10.8-0.1,16.2C1194.5,149.6,1197.5,149.5,1197.6,147.6L1197.6,147.6z"
			/>
	</g>
</g>
<g>
	<path fill="#FFFFFF" class="shape" d="M1169.5,82.5c0.7,3-1.1,6-2.8,8.5c-1.3,1.9-2.6,4.2-1.8,6.3c0.4,1.1,1.2,1.9,1.8,2.9
		c1.1,1.7,1.5,3.7,2.4,5.4c1,1.7,3,3.1,4.9,2.4c1.6-0.6,2.3-2.6,2.5-4.3c1-6.6-1-13.1-3-19.5c-0.3-0.9-0.6-1.9-1.3-2.4
		c-0.7-0.6-2.1-0.5-2.4,0.4"/>
	<g>
		<path d="M1168.1,82.9c0.9,5.2-5.3,8.5-4.8,13.7c0.2,2.3,2,3.8,2.9,5.8c0.9,2.1,1.5,4.4,3.3,5.9c1.6,1.3,3.7,2,5.6,0.9
			c1.7-0.9,2.6-2.9,2.9-4.7c0.9-5.2-0.1-10.5-1.4-15.6c-0.4-1.4-0.8-2.7-1.2-4.1c-0.4-1.2-0.7-2.4-1.4-3.4c-1.3-1.8-4.2-2.1-5.4,0
			c-1,1.7,1.6,3.2,2.6,1.5c-0.1,0.1,0,0,0.1,0c0.3,0.1,0.4,0.5,0.5,0.7c0.4,0.9,0.6,1.9,0.9,2.8c0.6,1.9,1.1,3.8,1.6,5.7
			c0.9,3.8,1.5,7.9,0.7,11.8c-0.2,1.1-0.7,2.8-2.2,2.7c-1.7-0.2-2.6-2.2-3.2-3.6c-0.6-1.6-1.3-3.1-2.3-4.6c-0.5-0.7-1.1-1.4-1.2-2.2
			c-0.1-0.9,0.3-1.9,0.7-2.7c0.9-1.9,2.3-3.5,3.1-5.4c0.9-2,1.3-4,0.9-6.2C1170.6,80.2,1167.7,81,1168.1,82.9L1168.1,82.9z"/>
	</g>
</g>
<g>
	<path fill="#FFFFFF" class="shape" d="M1070.7,198.9c-4.2,0.8-8.8-1-12.8,0.6c-1.7,0.7-3.2,2-4.5,3.3c-3.3,3.1-6.5,6.5-8.2,10.7
		c-1.4,3.6-1.6,7.6-2.1,11.5c-0.6,3.9-1.7,7.9-4.5,10.6c-1,0.9-2.2,1.7-2.9,2.9c-0.7,1.2-0.5,3.1,0.8,3.6c0.4,0.2,0.9,0.2,1.3,0.1
		c5.1-0.1,10.8-0.5,14.1-4.3c3.3-3.8,2.7-9.6,4.8-14.2c1.1-2.5,3-4.6,4.6-6.8c4.2-5.7,7.1-12.3,9-19.1"/>
	<g>
		<path d="M1070.3,197.4c-4.5,0.7-9.1-1.2-13.5,0.9c-1.9,0.9-3.5,2.5-5.1,3.9c-1.6,1.5-3.1,3.1-4.5,4.9c-2.9,3.7-4.4,7.8-5,12.5
			c-0.6,4.3-0.7,8.9-3,12.7c-1.8,3-7.1,5.2-5.2,9.5c0.9,2.1,3,2.1,4.9,2c2-0.1,4-0.2,5.9-0.6c3.8-0.7,7.3-2.6,9.2-6
			c2-3.6,2.1-7.8,3.4-11.6c0.8-2.5,2.4-4.5,4-6.5c1.6-2,3-4.2,4.3-6.4c2.6-4.5,4.4-9.4,5.9-14.4c0.5-1.9-2.4-2.7-2.9-0.8
			c-1.2,4-2.6,8-4.5,11.7c-1.9,3.7-4.4,6.9-6.8,10.3c-2.4,3.3-3.3,6.8-4.1,10.7c-0.7,3.5-1.7,6.9-5,8.7c-3.1,1.7-6.8,1.9-10.3,1.9
			c-0.8,0-1.4,0.2-1.4-0.8c0-0.8,0.6-1.3,1.1-1.8c1.4-1.3,2.8-2.4,3.8-4c4.4-7,2-16.1,6.5-23.2c1.2-1.9,2.7-3.5,4.2-5.1
			c1.5-1.6,3.1-3.3,5-4.5c2-1.2,4.3-1.2,6.6-1.1c2.4,0.2,4.7,0.4,7.1,0C1073,200,1072.2,197.1,1070.3,197.4L1070.3,197.4z"/>
	</g>
</g>
<g>
	<path fill="#FFFFFF" class="shape" d="M1286.4,205.7c-1.9,3.3-3.9,6.9-3.2,10.7c0.3,1.7,1.1,3.3,2,4.9c3.7,6.6,8,12.8,12.8,18.6
		c1.9,2.2,3.9,4.5,6.5,5.9c1.7,0.9,4.3,1,4.9-0.8c0.2-0.8,0-1.6-0.3-2.3c-5-13.2-12.3-25.6-21.5-36.4"/>
	<g>
		<path d="M1285.1,204.9c-1.8,3.1-3.6,6.5-3.6,10.2c0.1,3.6,2.2,6.8,4,9.7c3.7,6.2,7.9,12.3,12.8,17.7c1.9,2.2,4.5,4.7,7.4,5.2
			c2.7,0.5,5.5-0.9,5.1-3.9c-0.2-1.6-1.1-3.3-1.7-4.8c-0.7-1.6-1.3-3.2-2.1-4.8c-1.5-3.2-3-6.3-4.8-9.4c-3.9-7-8.6-13.6-13.7-19.7
			c-1.2-1.5-3.4,0.7-2.1,2.1c7.9,9.4,14.4,19.9,19.3,31.2c0.6,1.4,1.1,2.7,1.7,4.1c0.3,0.9,1,2-0.2,2.2c-2.3,0.3-4.8-2.3-6.2-3.8
			c-4.3-4.6-8.1-10-11.4-15.3c-0.9-1.5-1.8-3-2.7-4.5c-0.8-1.5-1.7-3-2.1-4.7c-0.8-3.5,1.3-7,3-10
			C1288.7,204.7,1286.1,203.2,1285.1,204.9L1285.1,204.9z"/>
	</g>
</g>
<g>
	<path fill="#FFFFFF" class="shape" d="M1088.8,131.9c-6.4-0.5-12.9-0.4-19.2,0.5c-6.8,0.9-14.3,3.3-17.2,9.5c-0.7,1.6-1.1,3.3-1.6,5
		c-2.6,8.9-8.6,16.4-14.6,23.5c3.1,0.9,6.4,0.1,9.6-0.7c4.3-1.1,8.6-2.1,12.9-3.2c2.3-0.6,4.7-1.2,6.3-2.9c2.6-2.7,2.3-6.9,3-10.5
		c0.9-5,4.1-9.6,8.5-12.2c2.2-1.3,4.6-2.1,6.8-3.5s4.1-3.3,4.5-5.8"/>
	<g>
		<path d="M1088.8,130.4c-5.6-0.4-11.2-0.4-16.8,0.2c-4.4,0.5-8.7,1.2-12.7,3.1c-3.7,1.7-6.9,4.4-8.5,8.3c-0.9,2.3-1.4,4.7-2.2,7
			c-0.9,2.3-2,4.6-3.2,6.8c-2.9,4.9-6.5,9.3-10.2,13.7c-0.7,0.8-0.5,2.2,0.7,2.5c5.3,1.4,11-0.8,16.1-2.1c2.7-0.7,5.4-1.3,8.1-2
			c2.2-0.6,4.4-1.4,6-3c3.2-3.3,2.5-8.1,3.6-12.3c1.1-4.3,3.9-8,7.7-10.3c4.5-2.6,10.7-4.2,11.8-10.1c0.3-1.9-2.5-2.7-2.9-0.8
			c-0.9,4.7-6.4,6.1-10,8.1c-3.6,2-6.6,5.3-8.3,9.1c-0.9,1.9-1.4,3.9-1.7,6c-0.3,2-0.4,4-1,5.9c-0.7,2.1-2.3,3.3-4.3,4
			c-2.3,0.8-4.6,1.2-7,1.8c-2.9,0.7-5.7,1.4-8.6,2.1c-2.9,0.7-5.8,1.4-8.8,0.7c0.2,0.8,0.4,1.7,0.7,2.5c6.2-7.3,12.4-15,15-24.4
			c0.6-2.1,1.1-4.3,2.4-6.2c1.1-1.5,2.6-2.8,4.2-3.7c3.5-2,7.6-2.9,11.6-3.4c6.1-0.8,12.2-0.9,18.3-0.4
			C1090.8,133.5,1090.8,130.5,1088.8,130.4L1088.8,130.4z"/>
	</g>
</g>
<g>
	<path fill="#FFFFFF" class="shape" d="M1280.4,137.4c-5.5-1.2-11.7,1.4-14.7,6.3c2.4,1.7,4.8,3.3,7.1,5c2.6,1.8,5.3,3.7,7.1,6.3
		c2.7,3.9,3.3,9,6,12.9c2.4,3.5,6.4,5.8,10.7,6.1c0.5,0,1,0,1.4-0.2c1.2-0.6,0.9-2.5,0.4-3.8c-2.7-6.8-5.9-13.3-9.6-19.6
		c-2.8-4.9-6-9.8-10.5-13.2"/>
	<g>
		<path d="M1280.8,135.9c-6.3-1.3-12.9,1.5-16.4,7c-0.5,0.7-0.1,1.6,0.5,2.1c2.8,2,5.7,3.9,8.5,5.9c2.5,1.8,4.8,3.8,6.2,6.5
			c1.4,2.7,2.2,5.6,3.4,8.3c1.2,2.7,2.9,5,5.3,6.7c2.3,1.7,5,2.7,7.8,3c3,0.3,4.6-1.8,4-4.6c-0.3-1.3-0.9-2.5-1.4-3.7
			c-0.7-1.7-1.5-3.4-2.3-5.1c-1.4-3-2.9-6-4.5-8.9c-3.4-6.2-7.1-12.6-12.7-17c-1.5-1.2-3.6,0.9-2.1,2.1c4.5,3.6,7.7,8.4,10.5,13.3
			c3,5.2,5.7,10.7,8.1,16.2c0.5,1.2,1.3,2.5,1.5,3.9c0,0.2,0.1,0.7,0,0.9c-0.3,0.2-1.5-0.1-1.8-0.1c-2.5-0.5-4.9-1.7-6.7-3.5
			c-3.9-3.8-4.3-9.5-7.1-14c-1.6-2.6-3.9-4.5-6.4-6.3c-2.9-2.1-5.9-4.1-8.8-6.2c0.2,0.7,0.4,1.4,0.5,2.1c2.7-4.3,8-6.6,13-5.6
			C1281.9,139.2,1282.7,136.3,1280.8,135.9L1280.8,135.9z"/>
	</g>
</g>
<g>
	<path fill="#FFFFFF" class="shape" d="M1213.4,204c2.2,4.7,4.2,9.6,7.1,14c0.8,1.2,1.6,2.3,2.5,3.5c0.4,0.6,0.9,1.2,1.5,1.5
		c0.5,0.3,1.2,0.3,1.8,0.3c1.4,0,2.9,0.1,4.3-0.2c1.4-0.3,2.6-0.9,3.9-1.6c1-0.6,2-1.2,2.7-2.1c0.8-1,1.1-2.3,1.1-3.5
		c0-1.1-0.1-2.2-0.3-3.3c-0.6-3.5-1.1-7-1.7-10.5c-0.1-0.5-0.2-0.9-0.4-1.3c-0.3-0.3-0.7-0.5-1-0.7c-1.2-0.4-2.4-0.5-3.6-0.7
		c-1.2-0.1-2.4-0.2-3.7-0.1c-0.9,0.1-1.8,0.4-2.7,0.5c-1.1,0.1-2.2,0-3.3,0.1c-0.8,0.1-1.6,0.3-2.3,0.5c-1.3,0.4-2.5,0.7-3.8,1.1
		c-1.1,0.3-1.6,1-1.9,2.1"/>
	<g>
		<path d="M1212.1,204.7c2.6,5.5,4.9,11,8.4,16c0.7,1,1.5,2.2,2.5,3.1c1.1,0.9,2.4,1,3.7,1c3,0.1,5.5-0.5,8.1-1.9
			c2.3-1.2,4.2-2.8,4.8-5.4c0.6-2.9-0.3-5.9-0.7-8.7c-0.3-1.6-0.5-3.2-0.8-4.8c-0.2-1.3-0.2-2.9-1-4c-1.5-2.2-5.5-2.1-7.8-2.2
			c-1.7-0.1-3.3,0.5-5,0.6c-1.7,0.1-3.3,0.1-5.1,0.5c-1.6,0.4-3.4,0.7-4.9,1.4c-1.2,0.6-1.9,1.6-2.3,2.9c-0.6,1.9,2.3,2.6,2.9,0.8
			c0.3-1,0.9-1,1.8-1.3c1.3-0.4,2.5-0.7,3.8-1c1.2-0.3,2.3-0.2,3.6-0.3c1.2,0,2.4-0.4,3.6-0.5c1.1-0.1,2.3,0,3.5,0.1
			c0.9,0.1,2.8,0.1,3.5,0.8c0.2,0.2,0.2,0.9,0.3,1.2c0.1,0.6,0.2,1.3,0.3,1.9c0.2,1.3,0.4,2.6,0.6,3.8c0.4,2.4,1.2,5.1,1,7.6
			c-0.2,2.3-1.8,3.3-3.7,4.3c-2.2,1.1-4.2,1.4-6.7,1.4c-1.1,0-1.5-0.2-2.2-1c-0.8-1-1.5-2-2.2-3.1c-3-4.5-5.1-9.5-7.4-14.4
			C1213.8,201.5,1211.3,203,1212.1,204.7L1212.1,204.7z"/>
	</g>
</g>
<g>
	<path fill="#FFFFFF" class="shape" d="M450.8,579.4c-11.4-27.1-29-40.7-40.3-67.9c-6-14.4-22-29-7.6-58.1c19.3-38.9,12.6-55.9,46.6-91.9
		c49.7-52.6,46.6-52.3,97-79c8.1-4.3-6,2,20-12c11.1-6,15.4-6.1,27-11c16.7-7.1,34.8-7.9,52.6-11.2c28.6-5.2,57.2-10.5,85.8-15.7
		c61.7-11.3,126-22.5,186.4-5.5c32.5,9.2,74,13.1,102.1-5.6c-4.6,18.8,5.1,50.5,18,65s22.4,29.7,41.4,33.4
		c59.6,11.6,64.6,30.6,109.6,25.6c37.7-4.2,74-18,109-41c-17.9,43-17.2,99.5-27,145c-4.9,23-16,43-15.6,66.9
		c0.3,17.9-6.3,36.9-19,49.5c-5.9,5.8-13.5,9.5-21.1,13c-77,34.8-162.7,40.8-247.1,41.4c-30.1,0.2-35,5.2-66.1,3.2
		c-16-1-84.4-12.3-107,13c-53.9,60.3-174.6,18.3-257,11c-8.3-0.7-26-14-36.1-23.9c-17.2-16.8-29.8-34.4-51.9-44.1"/>
	<g>
		<path d="M452.1,578.6c-6-14.2-14.9-26.4-23.7-38.9c-4.3-6.2-8.5-12.5-12-19.2c-3-5.6-5.3-11.6-8.4-17.2
			c-5.7-10.4-10.8-20.6-9.1-32.9c1.2-8.4,5.2-15.8,8.7-23.4c2.6-5.8,4.9-11.7,7-17.6c3.7-10.6,6.6-21.5,11.3-31.7
			c6-13.2,14.9-24.6,24.7-35.2c16-17.1,31.5-35.6,49.6-50.4c6.6-5.4,13.8-10,21.2-14.3c4.8-2.8,9.6-5.4,14.5-8.1
			c4.4-2.4,9.3-4.3,13.4-7.2c0.8-0.5,1-1.2,1.7-1.8c-0.5,0.4-0.1,0.2,0.3-0.1c1-0.8,2.2-1.4,3.3-2c5.9-3.5,11.9-6.9,18.1-9.7
			c6.4-2.9,13.2-4.8,19.6-7.5c16.7-6.8,34.1-8.3,51.7-11.4c18.6-3.2,37.2-6.8,55.8-10.2c36.7-6.7,73.4-14.3,110.6-18
			c36-3.6,72.4-3.1,107.5,6.5c27.2,7.5,57.7,11.8,85.1,2.9c6.4-2.1,12.5-4.9,18.2-8.6c-0.7-0.6-1.5-1.1-2.2-1.7
			c-2.4,10.2-1.1,21.1,1.4,31.2c2.7,10.8,7,21.8,13.5,30.9c3.2,4.5,7.2,8.6,10.8,12.9c4,4.7,8,9.5,12.6,13.6
			c4.2,3.8,8.9,7.1,14.1,9.3c6.2,2.6,12.9,3.4,19.4,4.9c11.5,2.7,22.7,6.2,33.7,10.5c7.9,3.1,15.7,6.5,23.8,9.2
			c19.6,6.4,39.9,4.6,59.9,0.7c32.7-6.4,63.3-20.2,91.1-38.4c-0.7-0.6-1.5-1.1-2.2-1.7c-15.5,37.8-16.9,79.6-22.6,119.5
			c-1.4,9.8-2.9,19.7-5.3,29.3c-2.5,10.2-6.1,20-9.1,30c-2.8,9.4-5.1,18.9-5.6,28.8c-0.5,10.5-0.8,20.4-4.4,30.4
			c-3.4,9.3-8.8,18.2-16.4,24.7c-8.6,7.3-20,11.5-30.3,15.8c-20.3,8.3-41.2,14.8-62.5,19.7c-43.6,10.2-88.3,14.2-132.9,15.7
			c-20.7,0.7-41.6-0.1-62.2,2.1c-15.2,1.6-30.1,3.1-45.4,1.8c-24.9-2.1-50.1-5.5-75-1c-12.5,2.3-23.5,6.8-32.3,16.1
			c-10.1,10.8-23,18.3-37,22.9c-30.4,10-64,7.9-95.3,4.2c-34.4-4.1-68.4-11.3-102.7-15.9c-7-0.9-14.9-0.8-21.6-2.7
			c-7.9-2.2-15.3-8.1-21.6-13.1c-14.9-11.7-26.3-27-40.6-39.3c-6.9-6-14.5-11.1-22.9-14.9c-1.7-0.8-3.3,1.8-1.5,2.6
			c18.9,8.5,32.2,24,46.3,38.6c6.3,6.4,12.8,12.5,20,17.9c5.8,4.4,12.4,9.2,19.5,11.2c6.6,1.9,14.1,1.7,20.9,2.6
			c8.6,1.1,17.2,2.5,25.8,3.9c17.4,2.8,34.7,5.9,52.1,8.6c32.9,5.1,67.1,9.4,100.3,4.5c14.2-2.1,28.2-6.1,40.7-13.3
			c6.1-3.5,11.8-7.7,16.9-12.6c4.9-4.7,8.9-9.3,15-12.5c12.6-6.4,27.7-7.7,41.6-8c13.6-0.3,27.1,0.7,40.6,2.1
			c13.1,1.3,26.1,2.3,39.3,1.2c7.2-0.6,14.3-1.7,21.5-2.3c10.5-0.9,20.9-0.8,31.4-1c44.7-0.7,89.6-3.2,133.7-11
			c22.3-4,44.4-9.4,65.9-16.6c10.1-3.4,20.1-7.2,29.9-11.5c9-3.9,18.3-7.8,25.6-14.5c13.7-12.5,20.4-31.9,20.6-50.1
			c0.1-11.2,1.9-21.9,5.1-32.6c3-10,6.6-19.8,9.2-30c10.3-40.1,9.6-82.2,19.3-122.4c2.3-9.5,5.2-18.9,8.9-27.9
			c0.5-1.2-1.2-2.4-2.2-1.7c-23.9,15.6-49.9,28-77.6,35.2c-20.6,5.3-43.5,9.3-64.5,4.1c-16.6-4.1-32-12.3-48.3-17.3
			c-5.9-1.8-11.9-3.4-18-4.8c-6.5-1.5-13.2-2.3-19.3-5.4c-10.7-5.4-18.2-15.2-25.8-24.2c-3.9-4.7-7.9-9.1-11-14.4
			c-3.2-5.5-5.7-11.4-7.7-17.4c-3.8-11.7-6.4-24.9-3.6-37.1c0.3-1.2-1.1-2.4-2.2-1.7c-26.3,17-60.7,14.9-89.9,8.3
			c-16.4-3.7-32.3-8.2-49.1-10c-18.3-2-36.7-1.9-55.1-0.7c-36.4,2.4-72.3,9.4-108.1,16c-19.3,3.5-38.5,7.1-57.8,10.6
			c-17.7,3.2-36,4.9-53.5,9.4c-8.1,2.1-15.7,5.6-23.6,8.3c-6.4,2.2-12.5,4.8-18.4,8c-5.6,3-11.5,5.9-16.1,10.1c0,0,0.5-0.5,0.1-0.3
			c-0.8,0.5-1.6,0.9-2.4,1.4c-5.9,3.2-11.8,6.3-17.7,9.5c-8.3,4.6-16.5,9.3-24.1,14.8c-17.1,12.4-31,28.9-45.4,44.2
			c-10.7,11.3-21.6,22.4-29.7,35.9c-5.7,9.5-9.6,19.9-13,30.4c-4.3,13.1-9.1,25.7-15,38.2c-5.4,11.7-7.1,24.3-2.5,36.6
			c1.8,4.8,4.3,9.2,6.8,13.7c2.9,5.3,5.1,10.9,7.9,16.2c7,13.7,16.9,25.6,25.2,38.5c4.3,6.7,8.1,13.6,11.2,20.9
			C450.3,581.9,452.9,580.4,452.1,578.6L452.1,578.6z"/>
	</g>
</g>
<g>
	<path fill="#FFFFFF" class="shape" d="M606.7,381.4c-3.2,10.5-6.3,22.7-0.2,31.9c2.5,3.9,6.4,6.6,9.6,10c15.5,16.4,12.5,43.2,24.7,62.1
		c6.2,9.5,15.8,16.3,25.8,21.5c5.6,2.9,13.2,5,17.4,0.3c4.8-5.5-0.2-13.8-4.4-19.8c-8-11.4-12.8-24.6-19.8-36.6
		c-5.8-9.9-13-18.9-20.2-27.8c-11.5-14.2-22.9-28.4-34.4-42.6"/>
	<g>
		<path d="M605.2,381c-3,9.7-6,20.8-1.5,30.5c2.3,5,6.6,8.2,10.4,12c3.3,3.3,5.9,7.2,7.9,11.4c8.1,16.9,7.4,37,18.3,52.7
			c6.1,8.7,14.8,15,24,20c4,2.1,8.5,4.1,13.1,4c4.5-0.1,8.8-2.9,9.7-7.5c0.9-4.8-1.5-9.6-3.9-13.5c-1.4-2.3-3-4.4-4.5-6.7
			c-1.5-2.4-2.9-4.8-4.3-7.3c-5.5-10.3-10-21-16.3-30.9c-6.6-10.2-14.4-19.5-22-28.9c-8-9.9-16-19.9-24.1-29.8c-2-2.5-4-4.9-5.9-7.4
			c-1.2-1.5-3.3,0.6-2.1,2.1c7.8,9.6,15.5,19.2,23.3,28.8c7.5,9.2,15.1,18.3,22.2,27.9c3.4,4.6,6.6,9.3,9.4,14.3
			c2.8,4.9,5.2,9.9,7.7,15c2.4,5,4.9,9.9,7.7,14.7c2.6,4.4,5.9,8.5,8.2,13.1c1.8,3.7,3.2,8.8-0.6,11.8c-3.4,2.6-8.5,1.2-12-0.2
			c-4.5-1.8-8.8-4.5-12.7-7.2c-4.1-2.8-8-6.1-11.3-9.8c-12.4-14.2-12.7-33.8-18.9-50.8c-1.5-4.1-3.4-8.1-5.8-11.7
			c-2.7-4-6.3-7.2-9.7-10.5c-3.7-3.6-6.2-7.8-6.8-13c-0.6-5,0.3-10.1,1.5-14.9c0.6-2.4,1.3-4.8,2-7.1
			C608.7,379.9,605.8,379.1,605.2,381L605.2,381z"/>
	</g>
</g>
<g>
	<path fill="#FFFFFF" class="shape" d="M885.5,565.5c0-11-1.9-18.6-5.8-29.2c-3.2-8.6-8.1-17.3-6.5-26.4c0.8-4.5,3.3-8.8,3-13.4s-6-9-9.4-5.9
		c-1.8,1.6-1.9,4.3-1.9,6.7c0,27.1,0.5,55.8,14.8,78.7c1.2,1.9,3.9,3.9,5.3,2.1c0.4-0.6,0.5-1.3,0.5-2
		C885.6,572.3,886.5,569.2,885.5,565.5"/>
	<g>
		<path d="M887,565.5c0-6.8-0.9-13.5-2.7-20c-2-7-5-13.6-7.5-20.4c-1.2-3.3-2.2-6.7-2.4-10.3c-0.2-3.6,0.8-6.8,1.9-10.2
			c1-3,2-6.5,1.1-9.6c-0.7-2.6-2.7-5-5.1-6.1c-2.3-1.1-5-0.9-6.9,1c-2.1,2.2-2.1,5.5-2.1,8.4c0,6.9,0,13.9,0.3,20.8
			c0.6,13.5,2.1,27.3,6.4,40.2c1.2,3.5,2.6,7,4.2,10.3c0.8,1.8,1.8,3.5,2.7,5.2c0.8,1.4,1.6,2.9,2.9,4c1.1,1,2.7,1.9,4.3,1.6
			c1.5-0.3,2.5-1.6,2.7-3c0.3-2,0.4-4.1,0.5-6.1c0.1-2.1,0.1-4.1-0.4-6.1c-0.5-1.9-3.3-1.1-2.9,0.8c0.8,3.2,0.2,6.5,0,9.8
			c-0.1,1.3-0.1,2.2-1.5,1.3c-1.2-0.7-1.8-1.9-2.5-3.1c-3.1-5.3-5.6-10.9-7.4-16.7c-3.7-11.6-5.2-23.9-5.8-36.1
			c-0.3-6.2-0.4-12.5-0.4-18.7c0-2.8-1.1-13.8,4.7-10.9c5.9,2.9,3,10,1.5,14.7c-0.9,3.1-1.4,6.2-1.2,9.4c0.3,3.2,1.1,6.3,2.1,9.4
			c2.4,6.9,5.5,13.5,7.6,20.5c1.9,6.5,2.8,13.2,2.8,20C884,567.4,887,567.4,887,565.5L887,565.5z"/>
	</g>
</g>
<g>
	<path fill="#FFFFFF" class="shape" d="M938.5,443.5c3-24,9-42.7,17.4-65.1c2.1-5.5,5.5-12,11.4-12.1c4.3,0,7.8,3.7,9,7.9
		c1.2,4.1,0.5,8.5-0.2,12.8c-4.2,26.1-8.4,52.2-12.6,78.2c-5.3,32.9-10.9,66.5-26.7,95.9c-1.4,2.5-3.8,5.4-6.5,4.3
		c-1.2-0.5-2-1.7-2.5-2.9c-5.3-12.1,5.8-28-2-38.7c-2.1-2.9-5.4-5-6.3-8.5c-0.5-2.2,0.1-4.6,0.7-6.8
		C926.7,487.1,932.3,464.9,938.5,443.5"/>
	<g>
		<path d="M940,443.5c1.7-13.7,4.8-27.2,8.9-40.3c2.1-6.6,4.3-13.1,6.7-19.6c1.1-3,2.1-6,3.6-8.9c1.1-2.2,2.6-4.5,4.7-5.8
			c2.3-1.4,5-1.3,7.2,0.2c2.4,1.7,3.7,4.5,4.1,7.3c0.6,3.7-0.2,7.5-0.7,11.2c-0.6,3.8-1.2,7.5-1.8,11.3c-2.5,15.4-5,30.8-7.5,46.3
			c-4.6,28.4-8.3,57.2-17,84.7c-2.1,6.6-4.5,13.1-7.3,19.5c-1.4,3.2-2.9,6.4-4.6,9.5c-0.8,1.6-3.1,6.5-5.6,5.2
			c-1.2-0.6-1.7-2.3-2-3.4c-0.4-1.3-0.6-2.6-0.8-3.9c-0.2-2.6,0-5.3,0.4-7.9c0.7-5.4,2.2-10.8,1.9-16.2c-0.1-2.6-0.7-5.2-1.9-7.5
			c-1.3-2.5-3.3-4.4-5.2-6.4c-0.9-1-1.7-2-2.1-3.3c-0.6-2,0-4,0.5-5.9c1-3.6,2-7.1,3-10.7c4.1-14.7,8-29.5,12.1-44.2
			c1-3.6,2-7.1,3-10.7c0.5-1.9-2.4-2.7-2.9-0.8c-4.5,15.4-8.6,30.9-12.8,46.4c-1.1,3.9-2.2,7.8-3.3,11.7c-0.5,1.9-1.1,3.7-1.6,5.6
			c-0.6,1.9-1.2,3.9-1.4,5.9c-0.3,3.3,1.2,6,3.4,8.4c2,2.2,4.1,4.1,5,6.9c1.8,5.2,0.6,10.9-0.3,16.2c-0.9,5.6-2,11.6-0.2,17.2
			c0.8,2.6,2.4,5.7,5.5,5.8c3.1,0.1,5.4-2.8,6.8-5.3c3.5-6.4,6.4-13.1,9-19.9c10.7-28.1,14.8-58.2,19.6-87.7
			c2.6-16.2,5.2-32.5,7.9-48.7c0.6-3.9,1.3-7.9,1.9-11.8c0.6-3.9,1.4-7.9,1.8-11.8c0.6-6.3-1.1-13.7-7.6-16.4
			c-5.9-2.4-10.9,1.9-13.7,6.8c-1.5,2.6-2.5,5.5-3.6,8.3c-1.3,3.5-2.6,7-3.9,10.6c-4.7,13.5-8.6,27.2-11.1,41.3
			c-0.6,3.6-1.1,7.3-1.6,10.9C936.8,445.4,939.8,445.4,940,443.5L940,443.5z"/>
	</g>
</g>
<g>
	<path fill="#FFFFFF" class="shape" d="M1157.5,516.5c1.3-8.4-3.1-16.5-11-18c-1.9-0.4-3.9-0.3-5.9-0.6c-9.9-1.5-16.1-11.1-21.5-19.5
		c-8.1-12.6-17-24.6-26.6-35.9c-3.2-3.7-7.5-7.7-12.2-6.5c-1.5,3.5-0.4,7.6,1.6,10.8s4.7,5.9,7.1,8.9c3.3,4.3,5.6,9.2,7.8,14.2
		c2.7,6,5.5,11.9,8.2,17.9c2,4.3,4,8.6,7.5,11.8c6.3,5.7,15.7,5.9,23.8,8.3c8.3,2.5,16.3,8.4,18.2,16.8
		C1156.6,522.9,1157.5,518.5,1157.5,516.5"/>
	<g>
		<path d="M1158.9,516.9c1-6.7-1.1-14.1-7.1-17.9c-1.4-0.9-3-1.5-4.6-1.9c-2.2-0.5-4.4-0.4-6.6-0.8c-3.5-0.6-6.6-2.3-9.2-4.6
			c-5.9-5.1-9.7-12.2-14-18.6c-5.1-7.7-10.6-15.3-16.4-22.6c-2.8-3.6-5.6-7.2-8.7-10.5c-2.6-2.8-5.8-5.5-9.7-5.8
			c-0.9-0.1-1.9-0.1-2.8,0.2c-1,0.4-1.3,1.5-1.5,2.4c-0.5,2-0.4,4,0.1,6c1.1,4.2,3.9,7.5,6.6,10.7c3,3.5,5.5,7.2,7.5,11.3
			c2.1,4.2,4,8.6,6,12.9c2,4.3,3.9,8.7,6,13c1.8,3.7,3.8,7.4,7,10.1c6,5.2,14.2,5.9,21.6,7.7c7,1.7,14,5.2,17.8,11.6
			c0.9,1.5,1.6,3.2,2,4.9c0.3,1.2,1.7,1.4,2.5,0.7c2.5-2.1,3.5-6,3.5-9.2c0-1.9-3-1.9-3,0c0,2.4-0.8,5.4-2.6,7
			c0.8,0.2,1.7,0.4,2.5,0.7c-1.7-7-7.1-12.3-13.3-15.5c-6.8-3.5-14.4-3.8-21.5-6.2c-3.6-1.2-6.9-3-9.3-5.9c-2.7-3.1-4.3-7.1-6-10.8
			c-2-4.4-4-8.8-6.1-13.2c-1.9-4.1-3.6-8.2-5.8-12.1c-2.4-4.3-5.6-7.8-8.7-11.7c-2.8-3.5-5.3-8-3.5-12.6c-0.3,0.3-0.7,0.7-1,1
			c3.7-0.8,6.9,2,9.3,4.5c2.9,3.1,5.6,6.5,8.3,9.9c5.5,6.9,10.8,14.1,15.7,21.5c4.2,6.2,7.9,12.9,13,18.3c2.3,2.4,5,4.6,8,6
			c1.5,0.7,3.1,1.2,4.7,1.5c2.1,0.4,4.3,0.3,6.4,0.7c7.4,1.4,11,9.2,9.9,16.2C1155.8,518,1158.7,518.8,1158.9,516.9L1158.9,516.9z"
			/>
	</g>
</g>
<g>
	<path fill="#FFFFFF" class="shape" d="M1191.6,431c-10-4.1-20-8.2-30-12.3c-19.4-8-39.2-16.2-54.9-30.2c-5.4-4.8-10.2-10.2-14.3-16.1
		c-3.6-5.1-8.2-11.4-14.4-10.4c1.2,8.3-3.9,17.5,0.1,24.9c1.3,2.5,3.5,4.4,5.7,6.2c21.1,17.3,45.1,31.1,70.7,40.5
		c10.6,3.9,22.2,7.1,33,3.9c4-2.1,6.3-2.7,4-6.1"/>
	<g>
		<path d="M1192,429.6c-9.5-3.9-18.9-7.8-28.4-11.7c-8.2-3.4-16.5-6.7-24.5-10.6c-16.1-7.7-31.2-17.5-42.4-31.7
			c-4.8-6.1-9.7-16.5-19.1-15.1c-0.6,0.1-1.2,0.9-1.1,1.4c0.7,5.2-0.9,10.3-1.4,15.4c-0.5,5.2,0.6,10.1,4.4,13.9
			c1.9,1.9,4.1,3.6,6.3,5.3c2.2,1.7,4.4,3.4,6.6,5.1c4.5,3.3,9.1,6.5,13.7,9.5c9.4,6,19.2,11.4,29.3,16.1c5,2.3,10.2,4.5,15.3,6.5
			c5.3,2.1,10.7,4,16.3,5.2c6.2,1.4,12.8,1.8,19,0.4c2.2-0.5,4.9-1.6,6.6-3.2c1.7-1.6,1.2-3.7,0-5.5c-1-1.6-3.6-0.1-2.6,1.5
			c0.2,0.4,0.8,1.1,0.7,1.5c-0.1,0.5-1.1,0.9-1.5,1.1c-2.2,1.2-4.4,1.9-6.9,2.2c-5.3,0.7-10.7,0-15.9-1.2
			c-10.2-2.4-20.1-6.7-29.6-11.1c-18.7-8.7-36.5-19.8-52.4-33c-2.1-1.7-4.2-3.6-5.4-6.1c-1.1-2.3-1.2-4.9-1-7.4
			c0.4-5.4,2.1-10.7,1.4-16.2c-0.4,0.5-0.7,1-1.1,1.4c3.6-0.5,6.6,2.1,8.8,4.6c2.7,3,4.8,6.4,7.2,9.6c5.5,7,12,13.1,19.2,18.4
			c14.1,10.3,30.3,17,46.4,23.6c10.4,4.3,20.8,8.5,31.2,12.8C1193,433.2,1193.7,430.3,1192,429.6L1192,429.6z"/>
	</g>
</g>
<g>
	<path fill="#FFFFFF" class="shape" d="M634.5,574.5c0,11,6.7,18.2,12.7,25.8c4.2,5.3,8.4,10.7,13.5,15.2c12.3,10.8,28.6,15.4,44.4,19.8
		c1.7,0.5,3.5,0.9,5.2,0.3c2.6-1.1,3.3-4.6,2.2-7.2c-1.1-2.6-3.4-4.4-5.6-6.1c-7.3-5.6-14.6-11.1-21.9-16.7c-3-2.3-6.1-4.7-9.1-7
		c-11.7-8.9-23.4-17.9-35.1-26.8c-1.2-0.9-2.7-1.9-4.2-1.6C634.9,570.6,634.5,572.5,634.5,574.5"/>
	<g>
		<path d="M633,574.5c0.1,6.6,2.6,12.6,6.3,18c1.8,2.5,3.7,4.9,5.6,7.4c2.3,2.9,4.6,5.9,7,8.7c4.8,5.6,10.2,10.5,16.5,14.4
			c6,3.7,12.6,6.4,19.2,8.6c3.3,1.1,6.6,2.1,10,3.1c1.7,0.5,3.5,1,5.2,1.5c1.7,0.5,3.5,1.1,5.2,1.1c3.1,0.1,5.6-2,6.2-5.1
			c0.6-3.2-0.8-6-3-8.2c-2.6-2.7-6-4.8-8.9-7.1c-3.3-2.5-6.6-5.1-10-7.6c-6.5-5-13-9.9-19.5-14.9c-6.7-5.1-13.4-10.2-20.1-15.3
			c-3.4-2.6-6.7-5.1-10.1-7.7c-2.4-1.8-6.4-4.6-8.7-1C633.2,571.6,633,573.1,633,574.5c0,1.9,3,1.9,3,0c0-0.9-0.1-2.7,1.1-2.9
			c1.5-0.2,3.5,1.9,4.6,2.8c3,2.3,6.1,4.6,9.1,6.9c6.1,4.7,12.2,9.3,18.4,14c11.9,9.1,23.9,18.2,35.8,27.3c2.3,1.8,5.4,3.7,6.3,6.6
			c0.7,2.4-0.3,5.1-3.1,5c-1.6-0.1-3.2-0.7-4.7-1.1c-1.6-0.4-3.2-0.9-4.8-1.4c-3.1-0.9-6.2-1.8-9.2-2.8c-6-2-12-4.4-17.6-7.5
			c-5.7-3.2-10.8-7.3-15.3-12.2c-2.7-2.9-5.1-6-7.5-9.1c-2-2.6-4.1-5.1-6.1-7.8c-4-5.4-6.9-11.2-7-18C636,572.6,633,572.6,633,574.5
			L633,574.5z"/>
	</g>
</g>
<g>
	<path fill="#FFFFFF" class="shape" d="M517.9,617c-1.4-6.5,3.1-13.8,9.7-16.6c6.6-2.8,14.3-3.3,20.1-7.5c4.3-3.1,7.1-7.9,11.6-10.7
		c4.1-2.6,9.1-3.2,13.9-3.7c8.2-0.9,16.8-1.8,24.4,1.6c6.1,2.7,10.8,7.9,15.3,12.8c9.4,10.2,19.3,20.1,30.7,28.1
		c9.1,6.4,19.6,11.9,24.9,21.7c0.7,1.3,1.3,2.8,0.9,4.2c-0.3,1.1-1.2,2-2.2,2.7c-7.4,5.3-18,3-25.3-2.4c-7.3-5.4-12.4-13.2-18.4-20
		c-13.2-14.9-31.9-25.2-51.7-27.4s-38.2,3.6-53.3,16.6"/>
	<g>
		<path d="M519.3,616.6c-1-4.9,1.7-10,5.6-13c4.6-3.5,11-4,16.3-5.9c2.8-1,5.5-2.2,7.8-4c2.3-1.8,4.2-4,6.2-6.1
			c2.1-2.2,4.2-4.1,7-5.3c2.9-1.3,6.1-1.8,9.2-2.1c6.4-0.8,13-1.6,19.4-0.5c6.3,1.1,11.3,4.5,15.8,8.9c4.6,4.5,8.7,9.4,13.2,14
			c4.7,4.7,9.5,9.3,14.7,13.5c4.8,3.9,9.9,7.4,15.1,10.8c4.7,3.2,9.5,6.4,13.3,10.7c1.9,2,3.9,4.5,4.8,7.2c1.1,3.1-2.9,4.8-5.2,5.6
			c-5.3,1.7-11.2,0.5-16-2c-5.4-2.7-9.6-7.2-13.4-11.8c-3.9-4.7-7.6-9.5-11.9-13.9c-8.3-8.4-18.3-15-29.3-19.3
			c-11-4.4-23-6.3-34.8-5.2c-11.7,1.1-22.9,5.1-32.6,11.7c-2.5,1.7-4.9,3.5-7.2,5.5c-1.5,1.3,0.7,3.4,2.1,2.1
			c9.3-8,20.5-13.6,32.7-15.7c12.1-2.1,24.8-0.6,36.3,3.5c11.5,4.1,22,10.9,30.6,19.5c8.6,8.7,14.9,20.7,26.3,26.3
			c5.1,2.5,11.1,3.8,16.8,2.4c2.6-0.6,5.5-1.9,7.4-3.9c2.5-2.7,1.4-5.9-0.3-8.7c-6.2-10.4-17.6-15.9-27.1-22.8
			c-11.1-8.1-20.6-18-29.9-28.1c-4.3-4.6-8.8-9.1-14.7-11.6c-6.2-2.5-13-2.5-19.5-2c-6.4,0.6-13.6,0.9-19.2,4.2
			c-5.2,3.1-8.2,8.8-13.5,11.9c-5.4,3.2-11.7,3.8-17.5,6c-5.2,2-9.3,6-11.1,11.3c-0.8,2.4-0.9,4.9-0.4,7.4
			C516.8,619.3,519.7,618.5,519.3,616.6L519.3,616.6z"/>
	</g>
</g>
<g>
	<path fill="#FFFFFF" class="shape" d="M507.8,465.5c6,6.5,12,13,17.9,19.4c6.5,7.1,15,14.8,24.4,12.5c2.4-4,0.6-9.4-2.4-13c-3-3.6-7.1-6.3-10-9.9
		c-3.6-4.4-5.5-10.1-9.1-14.5c-4.5-5.5-11.6-8.7-18.7-8.5c-0.6,0-1.3,0.1-1.9,0.4c-0.7,0.5-1.1,1.4-1.3,2.2
		c-1.4,4.9-1.7,10.1-0.8,15.2"/>
	<g>
		<path d="M506.8,466.6c3.9,4.3,7.9,8.6,11.8,12.8c3.6,3.9,7.1,7.9,11,11.5c3.4,3.1,7.2,6,11.6,7.5c2.1,0.7,4.4,1.1,6.7,0.9
			c0.9-0.1,2.3-0.1,3-0.6c0.9-0.5,1.3-2,1.5-3c1.1-4.4-0.8-9.1-3.6-12.4c-3.2-3.9-7.6-6.6-10.6-10.6c-2.9-3.9-4.7-8.6-7.6-12.5
			c-2.7-3.7-6.3-6.5-10.6-8.3c-2.4-1-4.9-1.6-7.5-1.8c-2.3-0.2-5.2-0.4-6.6,1.9c-0.7,1.2-1,2.7-1.3,4c-0.3,1.5-0.5,3-0.7,4.5
			c-0.3,3.1-0.1,6.1,0.4,9.2c0.3,1.9,3.2,1.1,2.9-0.8c-0.5-2.9-0.6-5.9-0.3-8.9c0.2-1.5,0.4-3,0.8-4.4c0.2-0.6,0.3-1.3,0.5-1.8
			c0.3-0.8,0.9-0.8,1.7-0.8c4.9-0.2,9.8,1.5,13.7,4.4c4.3,3.2,6.6,8,9.2,12.6c1.3,2.3,2.7,4.5,4.5,6.5c1.8,2,3.9,3.7,5.9,5.6
			c3.8,3.5,8.5,9.2,5.4,14.6c0.3-0.2,0.6-0.5,0.9-0.7c-8.2,1.9-15.4-4.4-20.7-9.8c-6.9-7-13.5-14.5-20.2-21.8
			C507.6,463,505.5,465.1,506.8,466.6L506.8,466.6z"/>
	</g>
</g>
<g>
	<path fill="#FFFFFF" class="shape" d="M696.3,326.6c-4.3,0.6-8.8,1.2-13.1,0.5c-4.3-0.8-8.6-3.1-10.5-7c-1.4-2.9-1.5-6.2-1.5-9.4
		c0-6.4-0.1-12.9-0.1-19.3c0-4.1,0.4-9,4.1-10.8c4.3-2.1,9.2,2.2,10.6,6.7c1.4,4.6,0.8,9.5,2.3,14c1.7,5.2,6,9.1,8.2,14
		c2.2,5,0.7,12.5-4.7,13.3"/>
	<g>
		<path d="M695.9,325.2c-4.6,0.6-9.5,1.3-14.1,0c-3.5-1-6.9-3.2-8.2-6.8c-0.8-2.1-0.9-4.3-0.9-6.5c0-2.4,0-4.8,0-7.3
			c0-4.8-0.2-9.6-0.1-14.4c0.1-2.9,0.3-7.1,3.3-8.5c3.2-1.5,6.4,1.8,7.8,4.4c2,3.8,1.4,8.6,2.2,12.7c0.7,4.1,2.9,7.5,5.3,10.9
			c2.2,3.2,4.6,6.5,4.6,10.5c0,3-1.3,6.3-4.6,6.8c-1.9,0.3-1.1,3.2,0.8,2.9c3.5-0.6,5.8-3.6,6.5-6.9c0.8-3.8-0.1-7.5-2-10.8
			c-2.3-3.9-5.7-7.4-7-11.8c-1.5-4.8-0.6-10.1-2.6-14.8c-1.5-3.6-4.9-7-9-7.2c-4.3-0.1-6.9,3.5-7.7,7.3c-0.4,2-0.5,4-0.4,6
			c0,2.9,0,5.8,0.1,8.7c0,2.9,0,5.8,0.1,8.7c0,2.5,0,5.1,0.4,7.6c0.9,5.2,4.4,8.9,9.2,10.8c5.5,2.2,11.7,1.3,17.4,0.5
			C698.6,327.8,697.7,324.9,695.9,325.2L695.9,325.2z"/>
	</g>
</g>
<g>
	<path fill="#FFFFFF" class="shape" d="M843.2,304.5c1.5-7.7,0.1-16-3.9-22.8c-2.8-4.8-7.1-10.1-4.8-15.2c0.8-1.7,2.2-3,3.5-4.2
		c5.7-5.2,11.4-10.3,17.1-15.5c2.7-2.5,6.3-5.1,9.7-3.9c4.6,1.6,4.5,8.1,3.5,12.9c-2.7,12.4-6,24.6-9.8,36.7
		c-0.5,1.6-1.1,3.3-1.9,4.8c-2.3,3.9-7.1,6.3-11.7,5.6"/>
	<g>
		<path d="M844.7,304.9c0.9-4.7,0.9-9.5-0.2-14.2c-1-4.7-3.2-8.7-5.7-12.7c-2.2-3.5-5-8.2-2.1-12.1c1.5-2,3.6-3.5,5.4-5.2
			c2.1-1.9,4.1-3.7,6.2-5.6c2-1.8,4-3.6,6-5.4c1.8-1.6,3.6-3.4,5.7-4.6c1.7-1,3.9-1.5,5.6-0.1c1.2,1,1.7,2.7,1.8,4.1
			c0.5,4.3-1,8.6-1.9,12.7c-1.2,5.3-2.6,10.6-4,15.8c-0.8,3-1.7,5.9-2.6,8.9c-0.8,2.8-1.6,5.7-2.7,8.4c-1.9,4.5-6.4,7.1-11.2,6.5
			c-1.9-0.2-1.9,2.8,0,3c4.5,0.5,9.1-1.4,11.9-4.9c1.7-2.1,2.5-4.6,3.3-7.1c0.9-2.8,1.7-5.6,2.5-8.4c1.7-5.8,3.2-11.6,4.7-17.4
			c0.7-2.9,1.4-5.8,2.1-8.8c0.5-2.2,0.9-4.3,1-6.5c0.1-3.7-0.8-8-4.5-9.7c-5.1-2.3-9.8,2.2-13.3,5.4c-4.5,4.1-9,8.1-13.4,12.2
			c-1.9,1.7-4,3.3-5.4,5.5c-1.4,2.1-1.7,4.5-1.2,6.9c1.1,5.5,5.4,9.8,7.5,15c2.2,5.5,2.8,11.6,1.7,17.4
			C841.4,306,844.3,306.8,844.7,304.9L844.7,304.9z"/>
	</g>
</g>
<g>
	<path fill="#FFFFFF" class="shape" d="M861.7,367.7c-1.3-12.7-2.2-26.5,4.8-37.1c5.5-8.3,14.9-13.1,24.3-16.5c1.7-0.6,3.4-1.2,5.2-0.9
		c3.6,0.7,5.2,5.3,4.2,8.8s-3.8,6.2-6.4,8.7c-12,11.7-23,24.4-32.8,38"/>
	<g>
		<path d="M863.2,367.7c-0.9-8.9-1.7-18.1,0.5-26.9c1.1-4.2,2.9-8.3,5.7-11.7c2.8-3.3,6.2-6,9.9-8.2c3.8-2.3,7.9-4,12.1-5.6
			c1.9-0.7,4.2-1.5,5.9,0.1c1.2,1.1,1.7,2.9,1.7,4.5c0,4.4-4.2,7.7-7.1,10.5c-3.6,3.6-7.2,7.2-10.6,10.9
			c-7.7,8.4-14.9,17.3-21.6,26.6c-1.1,1.6,1.5,3.1,2.6,1.5c6.5-9,13.5-17.6,21-25.8c3.7-4,7.5-7.9,11.4-11.8
			c3.2-3.2,6.9-6.7,7.3-11.5c0.3-3.8-2-8.2-6-8.8c-2.6-0.4-5.1,0.7-7.4,1.6c-2.2,0.9-4.4,1.8-6.6,2.8c-8.5,4.1-16,10.2-19.6,19.2
			c-4.2,10.2-3.2,21.7-2.1,32.4C860.4,369.6,863.4,369.7,863.2,367.7L863.2,367.7z"/>
	</g>
</g>
<g>
	<path fill="#FFFFFF" class="shape" d="M765.5,550.5c4,11,5.3,17.9,3.8,28.7c-9.2-0.5-16-8.9-19.9-17.2c-3.9-8.3-6.5-17.7-13-24.2
		c-4.6-4.5-10.9-7.5-14-13.1c-2.7-4.9-2.4-10.9-3-16.5c-1.6-15.3-10.7-28.7-18.1-42.3c-7.3-13.6-13.2-29.7-7.9-44.2
		c17.7,14.5,16.2,43.5,32.6,59.5c3.1,3,6.6,5.4,9.7,8.5c5.8,5.8,9.2,13.5,12.5,21c5.8,13.1,11.5,26.3,17.2,39.5"/>
	<g>
		<path d="M764.1,550.9c1.7,4.6,3.2,9.2,3.9,14.1c0.7,4.6,0.5,9.3-0.1,13.9c0.5-0.4,1-0.7,1.4-1.1c-11.5-0.7-17.3-13.2-21.2-22.4
			c-2.2-5.3-4.4-10.7-7.8-15.3c-3.4-4.5-8.1-7.3-12.3-11c-2.1-1.9-4-4-5-6.6c-1.1-2.8-1.4-5.8-1.6-8.7c-0.4-6.2-1.2-12-3.2-17.9
			c-4.1-11.9-11.2-22.2-16.9-33.3c-6.3-12.2-11.2-26.8-6.4-40.3c-0.8,0.2-1.7,0.4-2.5,0.7c13,10.8,15.6,29,22.1,43.7
			c1.7,3.8,3.6,7.4,6.1,10.8c2.9,3.9,6.4,7,10.1,10c4.1,3.4,7.5,7.2,10.2,11.8c2.7,4.5,4.8,9.4,6.9,14.2
			C753.2,525.8,758.7,538.4,764.1,550.9c0.8,1.8,3.4,0.3,2.6-1.4c-4.8-11.2-9.7-22.4-14.6-33.6c-4.3-9.7-8.2-20.3-16-27.8
			c-3.7-3.5-8-6.4-11.3-10.3c-2.7-3.1-4.8-6.7-6.5-10.4c-3.7-7.6-6-15.8-9-23.7c-3.3-8.6-7.5-17.1-14.7-23.1
			c-0.9-0.7-2.1-0.5-2.5,0.7c-4.4,12.4-1.1,25.7,4.1,37.3c5.3,11.8,13,22.4,17.8,34.4c2.4,5.8,3.9,11.8,4.3,18.1
			c0.4,6.2,0.8,12.4,5.1,17.4c3.6,4.3,8.8,6.9,12.6,10.9c4.2,4.4,6.6,10,8.9,15.5c2.5,6,5,12,9.1,17c3.9,4.7,9.1,8.3,15.4,8.7
			c0.6,0,1.4-0.5,1.4-1.1c0.7-4.9,0.9-9.8,0.2-14.7c-0.7-5.1-2.3-10-4-14.8C766.3,548.3,763.4,549.1,764.1,550.9L764.1,550.9z"/>
	</g>
</g>
<g>
	<path fill="#FFFFFF" class="shape" d="M960.4,312.4c0-7-0.1-14-0.1-20.9c0-2.3,0-4.8,1-6.9c0.7-1.6,1.9-2.9,2.6-4.5c0.7-1.6,0.7-3.7-0.8-4.7
		c-1.1-0.8-2.8-0.5-3.9,0.3c-1.1,0.8-1.8,2.1-2.4,3.4c-3.6,7.8-4.2,16.6-4.8,25.1c-0.3,4.1-0.5,8.5,1.8,11.9
		c0.3,0.4,0.6,0.8,1.1,0.9c0.3,0.1,0.6,0,0.9-0.1c1.9-0.5,3.6-1.7,4.7-3.3"/>
	<g>
		<path d="M961.9,312.4c0-4,0-8-0.1-12c0-3.7-0.2-7.5,0-11.2c0.1-1.8,0.4-3.4,1.3-5c0.8-1.3,1.8-2.6,2.3-4.1
			c0.8-2.4,0.2-5.7-2.5-6.6c-3.1-1-5.7,1.4-7,4c-1.5,3-2.6,6.3-3.3,9.6c-0.8,3.5-1.2,7.1-1.6,10.7c-0.3,3.3-0.6,6.7-0.6,10
			c0,3.2,0.4,7.4,2.9,9.8c2.7,2.5,7.1-1.2,8.6-3.4c1.1-1.6-1.5-3.1-2.6-1.5c-0.7,1-1.6,1.7-2.6,2.2c-0.4,0.2-1,0.6-1.5,0.3
			c-0.5-0.3-0.8-1.5-1-2c-0.9-2.5-0.8-5.1-0.7-7.7c0.3-5.8,0.7-11.6,1.9-17.2c0.6-2.8,1.4-5.6,2.6-8.2c0.5-1,1-2.2,1.8-3
			c0.7-0.6,2-1.3,2.8-0.4c1.5,1.8-1.2,4.7-2,6.1c-1.4,2.4-1.6,5.1-1.6,7.9c0,7.2,0.1,14.4,0.1,21.6
			C958.9,314.3,961.9,314.3,961.9,312.4L961.9,312.4z"/>
	</g>
</g>
<g>
	<path fill="#FFFFFF" class="shape" d="M396.5,472.5c-11.9,2.3-13.4,19.2-16,31c-3,13.4-5.5,26.5-11,39c-19.8,45.1-60.9,84-103.7,108.6
		c-24,13.8-50.2,23.2-76.7,31.1c-15.9,4.7-33.8,8.8-48.4,0.8c-22-12-24.6-44.5-45.3-58.6c-2.4-1.7-5.5-3.1-8.2-2.1
		c-2.4,0.9-3.9,3.3-5.1,5.5c-9.8,17.9-16.9,37.8-17.2,58.3c-0.3,20.5,7,41.5,22.1,55.3c12.2,11.1,20.4,19.7,36.5,23.2
		c51.7,11.3,115.2,1.2,162.5-22.7c37-18.7,68.1-46.8,98.8-74.6c8-7.2,16-14.5,22.1-23.3c8.2-11.9,19.3-26.6,27.6-38.4
		c7.1-10,18.3-14.9,16-27c-3-16-15.3-28.5-24-39C411.2,521.1,402.5,496.5,396.5,472.5"/>
	<g>
		<path d="M396.1,471.1c-6.9,1.5-10.6,7.5-12.8,13.7c-2.5,7.3-3.6,15.1-5.2,22.6c-2.3,10.6-4.7,21.3-8.7,31.5
			c-3.5,8.8-8.1,17.3-13,25.3c-20.3,32.8-49.8,59.9-82.4,80.3c-17.8,11.1-36.9,19.9-56.6,27c-10.1,3.6-20.3,6.9-30.5,9.9
			c-9.4,2.7-19.3,5.1-29.2,4.7c-9-0.4-17.5-3.7-24-10c-5.3-5.1-9.1-11.6-12.6-18c-3.7-6.8-7-13.7-11.2-20.2
			c-3.9-6-8.9-12.2-15.4-15.7c-3.9-2.1-8.4-2.2-11.4,1.4c-2.9,3.4-4.8,8.1-6.8,12.2c-4.5,9.4-8.2,19.3-10.5,29.6
			c-4.1,18.6-3.3,38.2,4.6,55.6c3.7,8.1,8.9,15.5,15.5,21.5c6.4,5.8,12.7,12,20,16.6c7.6,4.8,16,7,24.8,8.5c9.1,1.6,18.2,2.5,27.4,3
			c38.4,1.7,77.8-5.5,113.2-20.3c37.8-15.8,69.8-41.9,100.1-69c7.7-6.9,15.4-13.7,22.9-20.8c3.8-3.6,7.4-7.4,10.7-11.5
			c2.9-3.7,5.5-7.6,8.2-11.4c6-8.4,12.1-16.7,18.2-25.1c2.7-3.8,5.3-7.6,8.4-11c2.6-2.8,5.4-5.3,7.8-8.3c2.2-2.8,4-5.8,4.5-9.4
			c0.6-4.3-0.7-8.7-2.2-12.6c-3.1-8.3-8.3-15.6-13.9-22.5c-5.8-7.1-11.9-13.8-16.7-21.5c-5.3-8.5-9.5-17.7-13-27.1
			c-3.4-9.1-6.1-18.5-8.5-27.9c-0.5-1.9-3.4-1.1-2.9,0.8c4.7,18.9,10.9,37.8,21.1,54.6c4.6,7.6,10.3,14.2,16,21
			c5.7,6.8,11.3,14.1,14.6,22.5c1.5,3.9,3.1,8.5,2.4,12.8c-0.6,3.5-2.8,6.5-5.2,9.1c-2.6,2.9-5.5,5.5-8.1,8.5
			c-3,3.5-5.5,7.4-8.2,11.1c-5.8,8-11.7,16-17.4,24.1c-2.8,4-5.5,8.1-8.6,11.8c-3.4,4-7.1,7.8-10.9,11.4
			c-14.8,14-30.1,27.6-45.9,40.5c-15.8,13-32.3,25.1-50.1,35.2C261.8,754,224,764.4,186.2,767c-18.6,1.3-37.4,0.7-55.8-2.7
			c-8.7-1.6-16.8-3.9-24.3-8.9c-7.1-4.8-13.7-10.9-19.8-16.9c-12.9-12.7-19.4-31-19.9-48.9c-0.6-20.6,6.1-40.7,15.6-58.7
			c1-2,2-4.2,3.6-5.8c2-2.2,4.6-1.9,7.1-0.7c3.4,1.7,6.3,4.5,8.9,7.3c4.9,5.4,8.5,11.9,11.9,18.3c6.7,12.5,13,26.7,25.9,33.9
			c17.2,9.7,38,3.3,55.4-2.1c20.1-6.2,40-13.3,58.8-22.7c33.9-16.9,64.9-41.4,88.9-70.8c11.6-14.2,21.7-29.9,28.9-46.9
			c4-9.6,6.5-19.8,8.7-30c1.7-7.9,3-16,5.3-23.8c1.8-6,4.7-12.4,11.4-13.9C398.8,473.5,398,470.7,396.1,471.1L396.1,471.1z"/>
	</g>
</g>
<g>
	<path fill="#FFFFFF" class="shape" d="M348.5,578.5c3.5,7.9,14.8,14.8,23.2,16.9c6.4,1.6,12.6,3.8,18.3,7c5.4,3,10.9,8.1,10.2,14.3
		c-0.6,5.9-6.9,10-12.9,10.1s-10.5-5.8-15.9-8.3c-5.8-2.8-12.7-2.2-18.5-5c-2.5-1.2-3.4-3.2-5.5-5c-4.3-3.7-7.7-8.4-9.5-13.8
		c-0.3-0.8-0.5-1.5-0.4-2.3c0.1-0.7,0.5-1.3,0.8-1.8C340.5,587.2,346.5,581.8,348.5,578.5"/>
	<g>
		<path d="M347.2,579.3c2,4.5,5.8,8,9.8,10.8c4.1,2.9,8.8,5.2,13.6,6.6c6.1,1.7,12,3.5,17.6,6.5c4.4,2.3,9.4,5.9,10.4,11.1
			c1,5-3.1,9-7.6,10.5c-2.3,0.7-4.7,0.9-7,0.1c-2.3-0.9-4.4-2.5-6.3-4c-2-1.5-4.1-3-6.4-4c-2.7-1.1-5.6-1.7-8.4-2.2
			c-2.9-0.5-6-1-8.7-2.2c-2.5-1.1-3.9-3.4-5.9-5.2c-2.4-2.2-4.6-4.6-6.3-7.4c-0.8-1.4-1.6-2.8-2.1-4.3c-0.3-0.8-0.8-1.8-0.8-2.6
			c0-0.7,0.5-1.4,0.9-2c2.8-4.2,7.1-7.3,9.8-11.7c1-1.6-1.6-3.1-2.6-1.5c-2.6,4.1-6.6,7.3-9.5,11.2c-0.7,1-1.5,2.2-1.6,3.4
			c-0.2,1.7,0.7,3.5,1.3,5c1.2,2.8,2.8,5.3,4.7,7.7c1.9,2.4,4.3,4.2,6.3,6.5c2.1,2.3,4.4,3.6,7.3,4.5c6,1.8,12.4,1.7,17.7,5.3
			c4.3,2.9,8.5,7.2,14.2,6.9c5-0.3,10.3-2.9,12.7-7.4c2.8-5.1,0.8-10.8-3-14.8c-4.3-4.5-10.4-7.3-16.2-9.4
			c-3.4-1.3-6.9-2.1-10.4-3.2c-2.8-0.8-5.6-2-8.1-3.5c-5.2-2.9-10.4-6.8-12.9-12.4C349,576,346.4,577.5,347.2,579.3L347.2,579.3z"/>
	</g>
</g>
<g>
	<path fill="#FFFFFF" class="shape" d="M369.3,542c-0.4,4.4-0.9,9,0.9,13.1c1.4,3.3,4.1,6,6.8,8.4c7.2,6.6,15.2,9.2,24.5,12s20.4,5.3,27.5-1.5
		c0.8-0.8,1.6-1.6,1.9-2.7c0.6-2-0.6-4.2-2.2-5.4c-1.7-1.2-3.7-1.7-5.8-2.2c-8.8-2.1-18.8-2.4-27.4-5.3c-2.2-0.7-3.3-3.8-4.8-5.6
		c-1.8-2.2-1.9-5.3-2.4-8.1c-0.8-5.1-2.8-10.1-5.8-14.3c-0.9-1.2-3.5-9-5-9.1c-2.2-0.1-3.1,9-4,11c-1.6,3.4-2.2,6.5-3.8,10"/>
	<g>
		<path d="M367.8,542c-0.4,3.9-0.7,7.8,0.3,11.6c1,3.6,3.2,6.5,5.8,9.1c5.1,5,11,8.6,17.7,11.2c6.4,2.4,13.2,4.6,19.9,5.6
			c6.4,0.9,13.2,0.4,18.2-4.1c2.5-2.3,3.7-5.5,1.7-8.6c-2-3.1-5.8-4-9.2-4.7c-7.6-1.7-15.5-2.1-23-4c-1.6-0.4-3.4-0.6-4.5-1.9
			c-0.9-1.1-1.6-2.4-2.4-3.6c-1-1.4-1.6-2.7-2-4.4c-0.3-1.8-0.5-3.6-0.8-5.4c-0.8-3.7-2.1-7.2-4-10.4c-0.7-1.1-1.5-2.1-2.1-3.3
			c-0.4-0.9-0.8-1.9-1.2-2.8c-0.8-1.8-1.6-4.2-3.1-5.6c-1.6-1.5-3.4-0.2-4.2,1.4c-1,2.1-1.4,4.4-1.9,6.6c-0.2,0.9-0.4,1.9-0.7,2.8
			c0,0.1-0.2,0.5-0.1,0.2c-0.2,0.4-0.4,0.8-0.5,1.2c-0.4,1-0.8,2-1.1,3c-0.7,1.9-1.3,3.8-2.1,5.7c-0.8,1.7,1.8,3.3,2.6,1.5
			c1.5-3.4,2.7-7,4-10.4c0.6-1.7,0.9-3.5,1.3-5.2c0.2-1,0.4-1.9,0.7-2.8c0.1-0.3,0.8-2,0.9-1.9c0.1,0.2-1.1,0.2-0.7,0.1
			c-0.3,0-0.2-0.3-0.2-0.1c0.1,0.2,0.4,0.5,0.5,0.7c0.5,0.9,1,1.8,1.4,2.7c0.7,1.6,1.3,3.4,2.2,4.9c1.9,3,3.6,5.8,4.6,9.2
			c1,3.2,1,6.6,2,9.9c0.4,1.4,1,2.6,1.9,3.7c0.9,1.1,1.5,2.4,2.4,3.5c2,2.6,5.1,3.1,8.1,3.8c3.5,0.8,7,1.3,10.6,1.8
			c3.5,0.5,7,1,10.5,1.8c2.8,0.6,7.5,1.3,8.2,4.7c0.6,2.7-3.3,5-5.4,5.9c-2.6,1.1-5.5,1.4-8.4,1.3c-6.2-0.2-12.3-2.3-18.2-4.1
			c-6.8-2.2-13.4-5-18.9-9.7c-2.8-2.4-5.8-5.2-7.2-8.7c-1.5-3.9-1-8.2-0.6-12.3C371,540.1,368,540.1,367.8,542L367.8,542z"/>
	</g>
</g>
<g>
	<path fill="#FFFFFF" class="shape" d="M307.8,623.4c7.6-2.4,15.8,1.6,21.7,7c12.3,11.2,18.3,28.8,15.3,45.2c-0.8,4.6-3.6,9.9-8.2,9.6
		c-3.4-0.2-5.6-3.4-7.3-6.4c-7.8-13.9-13.6-29.9-26.5-39.2c-2.2-1.6-4.8-3.2-5.7-5.8c-0.1-0.4-0.2-0.8-0.2-1.3
		c0.2-0.9,1.1-1.5,1.9-2c3.6-2.2,6.8-5.1,9.4-8.4"/>
	<g>
		<path d="M308.2,624.8c11-3.3,21.6,6.3,27.3,14.6c6,8.7,9,19.4,8.5,30c-0.2,4.3-0.7,10.4-4.5,13.3c-4.7,3.6-8.4-3.7-10.1-6.9
			c-5.1-9.4-9.4-19.4-16-27.9c-1.8-2.3-3.8-4.6-6-6.5c-2.2-2-4.7-3.4-6.9-5.4c-0.8-0.7-2.7-2.5-1.8-3.6c0.4-0.5,1.3-0.8,1.8-1.2
			c0.7-0.4,1.3-0.9,1.9-1.3c2.7-2,5.1-4.4,7.1-7.1c0.5-0.6,0.1-1.7-0.5-2.1c-0.8-0.5-1.6-0.1-2.1,0.5c-2,2.6-4.4,4.9-7.1,6.7
			c-1.2,0.8-2.6,1.4-3.5,2.5c-1.2,1.3-1.1,2.9-0.4,4.3c1.2,2.7,3.8,4.3,6.1,5.9c2.4,1.7,4.5,3.7,6.5,5.9c7.9,8.7,12.5,19.8,18,30.1
			c2.4,4.5,5.7,10.9,11.8,9.7c5.2-1,7.4-7.2,8.1-11.7c1.8-11.5-0.5-23.5-6.3-33.6c-3.3-5.7-7.7-10.9-13-14.7
			c-5.6-4-12.8-6.6-19.7-4.5C305.5,622.5,306.3,625.4,308.2,624.8L308.2,624.8z"/>
	</g>
</g>
<g>
	<path fill="#FFFFFF" class="shape" d="M195.5,680.5c19.3,3.3,37.3,14.6,49.7,29.8c4.9,6,9,12.7,14.6,18.1c1.6,1.5,3.4,3,5.6,3.5
		c3.3,0.7,6.8-1.3,8.8-4c2-2.7,2.8-6.2,3.5-9.5c0.8-4.3,1.4-8.8,0.8-13.1c-0.7-5.4-2.4-6.8-5-11.7c-3.3-6.2-8.6-11.5-14-16
		c-9.1-7.5-19.2-14.8-30-10C220.5,671.5,208.5,676.5,195.5,680.5"/>
	<g>
		<path d="M195.1,681.9c14.4,2.5,27.9,9.3,38.9,18.9c5.7,5,10.5,10.7,14.9,16.8c2.4,3.2,4.8,6.5,7.4,9.4c2.4,2.6,5.3,5.7,9,6.3
			c3.5,0.6,7-1.1,9.3-3.7c2.5-2.9,3.6-6.6,4.3-10.3c1.5-7.3,2.2-15.3-1.5-22c-1.7-3.1-3.4-6.3-5.5-9.2c-2.3-3.1-4.9-6-7.8-8.6
			c-2.9-2.7-6.1-5.2-9.3-7.6c-3.2-2.3-6.5-4.4-10.2-5.9c-3.4-1.3-7-1.9-10.6-1.4c-3.6,0.5-6.8,2.3-10.1,3.7
			c-7.4,3.2-14.9,6.1-22.5,8.7c-2.1,0.7-4.1,1.4-6.2,2c-1.8,0.6-1.1,3.5,0.8,2.9c7.6-2.4,15.1-5.1,22.5-8.1c3.2-1.3,6.4-2.6,9.5-4
			c3.3-1.4,6.4-2.6,10-2.3c7.4,0.6,13.9,5.7,19.4,10.2c5.8,4.7,11.2,9.9,14.8,16.5c1.4,2.5,3.1,4.9,4,7.7c1.2,3.6,1.1,7.5,0.7,11.3
			c-0.4,3.7-1.1,7.9-2.6,11.3c-1.3,3-4,5.9-7.5,6c-3.5,0.1-6.3-3.3-8.5-5.7c-2.6-2.8-4.8-5.9-7.1-9c-4.3-5.8-8.8-11.3-14.1-16.1
			c-10.3-9.3-22.7-16.3-36.2-19.6c-1.7-0.4-3.4-0.8-5.1-1C194,678.7,193.2,681.6,195.1,681.9L195.1,681.9z"/>
	</g>
</g>
<g>
	<path fill="#FFFFFF" class="shape" d="M129.5,674.5c4.4,22.9,5.9,46.7,2.4,69.8c-0.3,2.1-0.7,4.4-2.2,6c-1.4,1.6-5.1,3.8-7.2,4.1
		c-4.7,0.8-9.5,2.1-14-1c-2.2-1.5-3.4-4.6-5.1-6.8c-2.5-3.2-3-7.5-3.4-11.6c-0.7-6.5-1.3-13.6,2.2-19.2c2.2-3.5,5.7-5.9,8.3-9.1
		c5.2-6.4,6-15.2,9.3-22.8C121.5,680.1,125.2,674.4,129.5,674.5"/>
	<g>
		<path d="M128.1,674.9c2.6,13.6,4.2,27.4,4.3,41.2c0.1,6.9-0.2,13.8-1,20.6c-0.3,3.3-0.6,6.7-1.4,9.9c-0.7,2.5-2.3,3.8-4.5,5.1
			c-2.3,1.3-4.9,1.7-7.5,2.1c-3,0.4-6.1,0.3-8.7-1.6c-2.1-1.6-3.3-4.4-4.8-6.5c-1.7-2.4-2.3-5.2-2.7-8c-0.8-5.7-1.6-12,0.2-17.6
			c1.9-5.8,7.5-8.8,10.8-13.6c3.7-5.3,4.9-11.8,6.9-17.8c0.9-2.8,2.1-5.6,3.8-8.1c1.4-2,3.4-4.5,6.1-4.5c1.9,0,1.9-3,0-3
			c-5.4,0-9.1,5.9-11,10.3c-2.5,5.8-3.5,12.1-6.2,17.8c-1.3,2.8-3.1,5.2-5.4,7.4c-2.3,2.2-4.7,4.4-6.3,7.2
			c-3.2,5.6-2.8,12.4-2.2,18.6c0.3,3.2,0.6,6.4,1.8,9.5c0.6,1.5,1.3,2.7,2.2,4c0.9,1.2,1.6,2.6,2.4,3.8c1.8,2.6,4.3,4.4,7.4,5.1
			c3.3,0.7,6.6,0,9.9-0.6c2.5-0.5,4.9-1.6,6.9-3.1c2.3-1.7,3.6-3.9,4.1-6.7c1.4-7.2,1.9-14.7,2.1-22c0.6-16.8-1.1-33.6-4.3-50.2
			C130.6,672.2,127.7,673,128.1,674.9L128.1,674.9z"/>
	</g>
</g>
<g>
	<path fill="#FFFFFF" class="shape" d="M69.1,710.6c14.3-2.6,27.2-11.9,34.1-24.7c5.5-10.2,8.6-19.9,9.4-31.4c0.3-3.5,0.1-5.6-1-9
		c-2.1-6.7-7.1-15.3-13-19c-1.9-1.2-7.8-4.1-10-4c-3.9,0.2-6.2,4.5-8,8c-3.2,6.3-6.5,14.4-9,21c-7.1,18.6-7.4,39.7-2.9,59.1"/>
	<g>
		<path d="M69.5,712.1c13.5-2.5,25.8-10.8,33.2-22.4c4.1-6.3,7.1-13.6,9-20.9c1-3.8,1.7-7.6,2.1-11.5c0.4-3.7,0.5-7.2-0.4-10.8
			c-1.8-6.6-5.4-13.2-10.2-18.1c-2-2-4.2-3.4-6.7-4.6c-2.3-1.1-4.9-2.5-7.5-2.7c-3.1-0.2-5.5,2.1-7.2,4.4c-2,2.8-3.4,6.1-4.8,9.2
			c-3.3,7.2-6.4,14.6-8.7,22.1c-4.7,15.6-5,32.3-2.2,48.3c0.4,2,0.8,4,1.2,5.9c0.4,1.9,3.3,1.1,2.9-0.8c-3.4-14.9-4.1-30.5-0.9-45.5
			c1.6-7.3,4.3-14.3,7.1-21.2c1.4-3.5,2.9-6.9,4.5-10.3c1.3-2.6,2.6-5.6,4.6-7.7c0.9-0.9,2-1.6,3.2-1.6c1,0,2,0.5,2.9,0.8
			c2.2,0.8,4.4,1.9,6.4,3.2c5.2,3.4,8.8,9.6,11.1,15.3c1.2,3,2,6.1,2,9.3c-0.1,3.7-0.6,7.4-1.3,11c-1.4,7.1-4,14-7.3,20.4
			c-6,11.5-16.5,20.4-29,24c-1.6,0.5-3.2,0.8-4.8,1.1C66.8,709.5,67.6,712.4,69.5,712.1L69.5,712.1z"/>
	</g>
</g>
<g>
	<path fill="#FFFFFF" class="shape" d="M1111,196.5c2.6,0.2,5.2-0.6,7.7-0.5c4.7,0.1,8.9,3,12.7,5.8c1.2,0.9,2.5,1.9,3.3,3.2
		c0.4,0.8,0.6,1.8,0.8,2.7c0.6,2.9,1.2,6.2-0.3,8.8c-0.7,1.3-1.9,2.3-3.1,3.3c-3.1,2.6-6.6,5.3-10.6,4.7c-1.8-0.3-3.4-1.2-4.9-2.3
		c-0.8-0.5-1.5-1.1-2-1.9c-0.4-0.6-0.6-1.3-0.7-2c-1.6-6.5-2.7-13.1-3.2-19.8"/>
	<g>
		<path d="M1111,198c2.7,0.2,5.4-0.6,8.2-0.5c2.4,0.1,4.7,1.2,6.8,2.4c2.1,1.2,4.2,2.6,6,4.1c1.9,1.6,2.2,3.9,2.6,6.3
			c0.4,2.4,0.2,4.8-1.6,6.7c-1.7,1.8-3.8,3.4-5.9,4.6c-2.1,1.2-4.5,1.8-6.8,0.8c-1.1-0.5-2.1-1.1-3.1-1.9c-1.2-0.9-1.5-1.9-1.9-3.3
			c-1.5-6.2-2.6-12.5-3.1-18.9c-0.2-1.9-3.2-1.9-3,0c0.5,6.7,1.6,13.4,3.2,19.9c0.4,1.5,0.8,2.8,1.9,3.9c1,1,2.4,1.9,3.7,2.6
			c2.6,1.4,5.5,1.6,8.2,0.6c2.7-1,5-2.9,7.2-4.8c2.3-1.9,3.8-4.1,4.1-7.1c0.2-2.7-0.3-5.9-1.3-8.4c-1.1-2.6-3.6-4.2-5.8-5.7
			c-2.7-1.9-5.7-3.7-8.9-4.4c-3.6-0.8-7,0.4-10.6,0.2C1109.1,194.8,1109.1,197.8,1111,198L1111,198z"/>
	</g>
</g>
<g>
	<path fill="#FFFFFF" class="shape" d="M787.5,447.5c3.6-11.5-0.9-25.3-7.7-35.2c-6.8-10-15.8-18.4-22.3-28.6c-18.1-28.6-13.5-65.5-8-98.9
		c4.6,1.7,6.4,7.1,7.6,11.9c3.7,14.4,7.5,28.8,11.2,43.1c2.1,8.2,4.3,16.5,8,24c4.3,8.7,10.6,16.2,15.6,24.4
		c11.1,18.4,15.8,40.6,13.1,61.9c-0.3,2.2-0.7,4.5-1.9,6.4c-1.2,1.7-1.8,4.8-3.6,6c-3.8,2.6-8.7,3.4-12.5,6c-4.8,1.3-6.6-7-3.5-10.8
		c1-1.2,5.2-6.4,4-11.2"/>
	<g>
		<path d="M788.9,447.9c3.3-10.7,0.2-22.3-5.1-31.8c-5.8-10.5-14.8-18.8-21.8-28.4c-6.7-9.1-11.1-19.4-13.5-30.4
			c-2.4-11-2.8-22.3-2.2-33.5c0.6-13,2.5-25.8,4.7-38.6c-0.6,0.3-1.2,0.7-1.8,1c2.8,1.1,4.4,4.1,5.4,6.8c1.3,3.7,2.1,7.6,3.1,11.5
			c2.3,8.7,4.5,17.4,6.8,26.1c2.2,8.3,4.1,16.8,6.9,24.9c2.7,7.8,6.7,14.8,11.4,21.6c4.5,6.5,9,13,12.4,20.2
			c3.4,7.1,5.8,14.6,7.3,22.2c1.5,7.7,2.1,15.5,1.7,23.3c-0.1,1.9-0.3,3.9-0.5,5.8c-0.2,2-0.4,4-1.2,5.8c-0.6,1.4-1.5,2.8-2.1,4.2
			c-0.7,1.5-1.3,2.5-2.8,3.3c-3.3,1.9-7,2.7-10.3,4.6c-0.9,0.5-1.5,0.8-2.4,0.1c-0.7-0.6-1.1-1.7-1.3-2.6c-0.4-2.1,0-4.1,1.4-5.8
			c1.7-2.2,3.3-4.6,3.9-7.3c0.4-1.6,0.4-3.2,0.1-4.8c-0.4-1.9-3.3-1.1-2.9,0.8c0.7,3.1-1,6.3-2.8,8.7c-0.6,0.8-1.3,1.5-1.7,2.4
			c-0.6,1.2-1,2.6-1,4c-0.2,2.4,0.5,5.3,2.4,7c0.9,0.8,2.1,1.2,3.3,1.2c1.7-0.1,3.2-1.4,4.7-2.1c1.8-0.8,3.7-1.5,5.5-2.2
			c1.6-0.7,3.5-1.5,4.7-2.8c1.1-1.2,1.7-2.8,2.4-4.2c0.8-1.7,1.8-3.1,2.3-4.9c1-3.9,1.2-8.1,1.4-12.1c0.2-4.1,0.1-8.3-0.3-12.4
			c-1.5-16.6-7.2-32.3-16.4-46.2c-4.7-7.1-10-13.9-13.6-21.8c-3.8-8.1-5.8-17-8-25.6c-2.4-9.2-4.8-18.4-7.1-27.6
			c-1.2-4.4-2.2-8.9-3.5-13.3c-0.9-3.2-2.1-6.4-4.3-8.9c-1.1-1.2-2.5-2.1-4-2.7c-0.7-0.3-1.7,0.3-1.8,1c-3.7,22.4-7.1,45.5-3.5,68.1
			c1.7,10.9,5.2,21.5,11,30.9c6.3,10.3,15.2,18.7,22.2,28.5c7,9.9,12.1,23.1,8.4,35.2C785.5,449,788.4,449.7,788.9,447.9
			L788.9,447.9z"/>
	</g>
</g>
<g>
	<path fill="#FFFFFF" class="shape" d="M545.5,420.9c-1.6-13.8-13.7-23.9-19.5-36.6c-7.1-15.7-4-33.9-3.9-51.2c0-1.9,0-3.8-0.8-5.6
		c-2.3-5.1-10-5.3-14.3-1.7c-4.3,3.6-5.9,9.3-7,14.7c-2.4,11.2-4,22.6-4.8,34c-0.7,10.2-0.5,21,4.4,30c6.7,12.4,20.7,18.6,32.2,26.9
		c6.8,4.9,13,10.8,18.3,17.4c4.3,5.4,8.1,11.3,13.7,15.2s13.9,5.1,19.1,0.6c5.9-5.2,4.5-15.4-0.7-21.3s-12.9-8.8-20.2-11.9
		s-14.9-6.8-18.8-13.7"/>
	<g>
		<path d="M547,420.9c-1.6-12.4-10.5-21.4-16.7-31.7c-3.5-5.7-5.7-11.9-6.7-18.6c-1-6.9-0.9-13.9-0.6-20.9c0.1-3.5,0.3-7,0.4-10.5
			c0.1-3.4,0.5-7.1-0.2-10.5c-1.2-5.4-6.7-7.6-11.8-6.6c-5.9,1.1-9.4,6.3-11.2,11.6c-1.1,3.2-1.8,6.5-2.4,9.7
			c-0.7,3.7-1.4,7.4-2,11.2c-1.1,7.4-1.9,14.9-2.3,22.4c-0.3,6.8-0.2,13.8,1.6,20.4c1.7,6.1,4.9,11.5,9.3,16.1
			c4.2,4.3,9.2,7.8,14.2,11c5.1,3.3,10.4,6.5,15.3,10.3c5.6,4.4,10.7,9.4,15.1,15c4.1,5.1,7.7,10.7,13,14.7
			c4.6,3.5,10.9,5.4,16.6,3.9c5.4-1.5,8.9-6,9.5-11.5c0.6-5.4-1.5-11.1-5.2-15.1c-8.7-9.7-22.8-10.8-32.8-18.5
			c-2.3-1.8-4.3-3.9-5.7-6.4c-1-1.7-3.6-0.2-2.6,1.5c6.3,10.7,19,13.4,29.3,18.6c5,2.5,10,5.9,12.4,11.2c2,4.2,2.5,10-0.5,13.9
			c-3.4,4.5-9.7,4.5-14.5,2.7c-5.7-2.1-9.8-7.2-13.4-11.9c-4-5.2-8-10.2-12.7-14.7c-4.6-4.3-9.6-8.1-14.9-11.5
			c-9.3-6.1-20-11.8-25.9-21.6c-6.8-11.3-5.5-25.7-4.3-38.3c0.7-7.2,1.8-14.5,3.2-21.6c1.1-5.8,2.1-12.7,6.3-17.2
			c2.8-3,8.5-4.7,11.9-1.5c2.2,2,1.9,5.2,1.9,7.9c0,3.4-0.2,6.8-0.3,10.2c-0.6,13-1.3,26.6,3.8,38.9c4.5,10.7,13.3,18.9,17.8,29.6
			c1,2.5,1.8,5.1,2.2,7.8C544.2,422.8,547.3,422.9,547,420.9L547,420.9z"/>
	</g>
</g>
<g>
	<path fill="#FFFFFF" class="shape" d="M1239.5,364.5c5.5-1,9.3-2.5,14.8-3.5c2.6,4.5,1,10.6-2.5,14.5c-3.5,3.9-8.5,6.1-13.4,7.9
		c-36.8,13.6-79.1,11.3-114.2-6.3c-6.4-3.2-13.2-7.7-14.9-14.7c-0.4-1.7-0.4-3.6,0.6-5c0.7-1,1.9-1.6,3-2c13.6-5.1,27.7,4.6,40.8,11
		c26.4,12.9,59.1,12.3,85-1.7"/>
	<g>
		<path d="M1239.9,365.9c5-0.9,9.8-2.6,14.8-3.5c-0.6-0.2-1.1-0.5-1.7-0.7c2.2,4,0.8,9.1-2,12.4c-3.2,3.8-8,6-12.6,7.7
			c-9.6,3.6-19.5,6.1-29.7,7.5c-20.3,2.9-41.1,1.3-60.8-4.5c-4.9-1.4-9.7-3.1-14.4-5.1c-4.5-1.9-9-3.9-13.1-6.5
			c-3.6-2.3-7.2-5.2-9-9.2c-0.7-1.8-1.6-4.6,0-6.1c1.6-1.5,4.4-2,6.5-2.2c10.2-1.4,20,4.3,28.7,8.8c9,4.7,18.1,8.6,28,10.6
			c19.4,4,39.9,2.1,58.1-5.8c2.3-1,4.5-2.1,6.7-3.3c1.7-0.9,0.2-3.5-1.5-2.6c-18.4,9.9-40.2,13-60.7,9.2c-5.1-1-10.2-2.4-15.1-4.2
			c-5-1.9-9.7-4.3-14.4-6.7c-9.1-4.8-19.3-10.4-30-9c-4.6,0.6-10.4,2.4-10.1,8c0.2,4.6,3.1,8.7,6.5,11.6c3.7,3.2,8.1,5.5,12.4,7.5
			c4.9,2.3,9.9,4.3,15,6.1c20.2,6.9,42,9.2,63.2,6.9c10.6-1.2,21.2-3.5,31.3-7c9.1-3.2,20.3-7.9,21-19.1c0.2-2.3-0.4-4.6-1.5-6.6
			c-0.3-0.6-1-0.8-1.7-0.7c-5,0.9-9.8,2.6-14.8,3.5C1237.2,363.4,1238,366.3,1239.9,365.9L1239.9,365.9z"/>
	</g>
</g>
<g>
	<path fill="#FFFFFF" class="shape" d="M1052.5,618.5c18.1,6.8,43.1,27.7,51,45.3c24.5,54.9,47.4,110.4,68.7,166.6c6,15.9,7.9,35.9,17.3,50.1
		s26.7,22.6,43,27.5c7.9,2.4,16.3,2.9,24.6,2.5c11.9-0.5,24.3-3.2,32.9-11.5c12.1-11.7,11.7-33.7-0.6-45
		c-13.2-12.1-34.8-11.3-47.5-24c-9.4-9.4-11.4-23.6-12.9-36.8c-2.9-25.8-5.9-51.6-8.8-77.5c-1.8-15.9-3.6-31.9-2.5-47.9
		c0.7-9.8,2.5-19.5,4.3-29.2c3.6-19.6,19-59.5,22.7-79.1c-33.9,28.5-79.2,41.5-123,50c-13.4,2.6-48,9-66,10"/>
	<g>
		<path d="M1052.1,619.9c10.6,4.1,20.4,10.9,28.9,18.4c8.4,7.3,16.6,16,21.2,26.2c12.9,28.5,25.1,57.3,37,86.3
			c6,14.5,11.8,29.1,17.6,43.7c2.9,7.4,5.8,14.7,8.6,22.1c2.6,6.7,5.4,13.4,7.5,20.3c3.8,12.2,5.9,24.9,11.2,36.6
			c5.2,11.4,14,19.9,24.8,26.1c11.2,6.4,24.2,11.2,37.1,12.1c12.6,0.9,26.6-0.1,37.8-6.4c9.8-5.5,15.7-15.2,16.5-26.3
			c0.7-10.6-3.5-21.4-11.9-28c-9-7.1-20.6-9.3-31-13.5c-5.2-2.1-10.3-4.8-14.3-8.8c-4.4-4.4-7.2-10.1-8.9-16
			c-1.8-6.1-2.7-12.3-3.4-18.6c-0.9-7.7-1.8-15.5-2.7-23.2c-1.8-15.8-3.6-31.6-5.4-47.4c-1.8-15.8-3.9-31.6-3.8-47.5
			c0.1-7.9,0.9-15.8,2.1-23.6c1-6.1,2-12.3,3.4-18.3c4.9-21,12.9-41.2,18.7-62c1.1-4,2.2-8.1,2.9-12.3c0.3-1.5-1.3-2.4-2.5-1.5
			c-22.1,18.5-49,30.4-76.4,38.6c-23.8,7.2-48.4,11.8-72.9,15.9c-12.8,2.1-25.6,4.3-38.6,5.1c-1.9,0.1-1.9,3.1,0,3
			c11.5-0.7,23-2.5,34.4-4.3c10.5-1.7,20.9-3.6,31.3-5.6c28.5-5.5,56.9-12.7,83.3-24.9c14.7-6.8,28.6-15.2,41.1-25.6
			c-0.8-0.5-1.7-1-2.5-1.5c-1.8,9.5-4.8,18.8-7.7,28c-3.4,10.7-6.9,21.4-10.1,32.1c-3.1,10.5-5.4,21-7.2,31.8
			c-1.2,7.6-2.1,15.3-2.3,23c-0.2,7.9,0.2,15.8,0.9,23.6c1.4,15.6,3.4,31.2,5.2,46.7c1.8,15.6,3.6,31.1,5.3,46.7
			c1.4,12.1,2.6,25.3,9.9,35.5c6.8,9.6,17.7,13.6,28.4,17.1c10.3,3.5,21.7,7.3,27.6,17.2c5.3,9,5.7,21,0.8,30.2
			c-5.8,11.1-18.4,15.8-30.2,17.2c-6.8,0.8-13.8,0.9-20.6,0.1c-6.8-0.8-13.3-2.8-19.6-5.3c-11.4-4.4-22.7-10.8-30.4-20.4
			c-8-10-11-23-14.1-35.2c-1.6-6.2-3.3-12.3-5.5-18.3c-2.7-7.2-5.5-14.4-8.3-21.5c-5.6-14.4-11.3-28.8-17.1-43.2
			c-11.6-28.7-23.7-57.2-36.1-85.6c-2.8-6.4-5.3-13.1-8.7-19.3c-2.6-4.7-5.8-9-9.3-13c-7.9-8.9-17.2-16.7-27.4-23
			c-4.3-2.7-8.8-5-13.6-6.8C1051.1,616.4,1050.3,619.3,1052.1,619.9L1052.1,619.9z"/>
	</g>
</g>
<g>
	<path fill="#FFFFFF" class="shape" d="M895.3,624.2c6.5,12.5,17.9,12.8,24.2,25.3c3.2,6.4,10.6,17,12,24c13.7,67.7,8,26,25,99
		c0.8,3.6,28.3,109.4,31,112c3.9,3.8,7.2,8.1,12.5,9.6c26.7,7.6,56.3,15,81.4,3.1c9.8-4.6,18.7-12.9,20.6-23.6
		c1.8-10.1-6.4-19.3-15.4-24.1c-9.5-5-25.8-6.6-36-10c-9.5-3.1-10.1-14.5-11-23c-3.2-30.5-4.1-60.7,0-91c3.3-24.1,5-32,7-57
		c0.6-6.9,19.1-37.3,15-43c-5.1-7.1-18.2-2.9-26.4-4.6c-46.2-9.8-94.7,8.4-142.9,4.8"/>
	<g>
		<path d="M894,625c2,3.7,4.7,6.9,8,9.6c2.9,2.4,6.1,4.4,9,6.8c3.2,2.7,5.6,5.9,7.6,9.6c1.9,3.6,4,7,6,10.5c2,3.5,4,7.2,5.1,11.1
			c1.3,4.4,1.9,9,2.8,13.5c1.3,6.4,2.7,12.8,4.2,19.2c1.4,5.9,3.1,11.8,5,17.6c2.6,7.6,4.7,15.3,6.7,23.1
			c2.7,10.4,4.9,20.8,7.6,31.2c2,7.7,4,15.5,6,23.2c2.9,11.1,5.9,22.3,8.9,33.4c2.9,10.6,5.7,21.1,8.7,31.7
			c1.8,6.2,3.3,12.6,5.7,18.5c0.3,0.6,0.5,1.3,1,1.8c1.5,1.7,3.2,3.3,4.8,4.8c1.6,1.5,3.3,2.9,5.2,3.9c2.1,1.1,4.5,1.7,6.8,2.3
			c2.4,0.7,4.8,1.3,7.3,2c5,1.3,10,2.5,15,3.5c19.2,3.8,40.2,4.9,58.1-4.3c7.6-3.9,14.6-10,18-17.9c1.7-3.9,2.5-8.1,1.8-12.4
			c-0.8-4.2-3-8-5.8-11.2c-5.8-6.6-13.7-10-21.9-12.2c-4.4-1.1-8.8-2-13.2-3c-4-0.9-8.1-1.7-11.9-3.1c-7-2.6-8.4-11-9.1-17.5
			c-1.2-10.6-2.1-21.2-2.6-31.8c-1.2-22.8-0.3-45.4,2.9-68c2.4-17.1,4.9-34.1,6.3-51.3c0-0.3,0-0.7,0.1-1c-0.1,0.4,0-0.1,0.1-0.2
			c0.1-0.4,0.2-0.8,0.3-1.2c0.3-1,0.7-2,1-2.9c1-2.5,2.1-4.9,3.3-7.4c2.7-5.8,5.5-11.6,7.9-17.6c1-2.5,1.9-4.9,2.5-7.5
			c0.4-1.8,0.8-3.8,0.2-5.6c-0.8-2.7-3.9-4.5-6.5-5.3c-3.5-1.1-7.3-1-10.9-0.9c-3.9,0.1-7.6,0.3-11.4-0.5c-5-1-10.1-1.7-15.2-2.2
			c-10.5-0.9-21.1-0.7-31.5,0.1c-21.5,1.5-42.7,5.3-64.2,6.8c-10.4,0.8-20.9,1-31.3,0.2c-1.9-0.1-1.9,2.9,0,3
			c21.3,1.6,42.6-1,63.8-3.7c20.8-2.6,41.8-5.2,62.8-3.5c5.2,0.4,10.3,1.2,15.4,2.2c3.6,0.7,7.3,0.6,11,0.5
			c3.6-0.1,7.4-0.3,10.8,0.7c1.5,0.5,2.9,1.2,3.9,2.4c0.1,0.2,0.3,0.4,0.4,0.6c0.2,0.3,0-0.1,0.1,0.1c0.2,0.5,0.1,0.5,0.2,0.8
			c0.1,1.9-0.4,3.8-1,5.7c-0.8,2.7-1.9,5.3-3,7.9c-2.5,5.8-5.3,11.4-7.9,17.2c-1,2.2-2,4.5-2.8,6.8c-0.9,2.6-1,5.2-1.2,8
			c-0.7,8.4-1.6,16.8-2.8,25.2c-1.2,8.5-2.4,16.9-3.6,25.4c-1.5,11.1-2.5,22.3-2.9,33.5c-0.7,21.5,0.5,43.2,3.1,64.5
			c0.8,6.7,2.4,14.4,8.8,18.1c3.3,1.9,7.5,2.6,11.3,3.5c4.3,1,8.6,1.8,12.9,2.9c8.3,2,16.3,4.6,22.5,10.7c3,3,5.5,6.6,6.4,10.8
			c0.9,4.1-0.2,8.4-2,12.1c-3.9,7.8-11.2,13.3-19,16.7c-9,4-18.9,5.5-28.7,5.5c-10-0.1-20-1.7-29.7-3.9c-5-1.1-10-2.4-14.9-3.8
			c-2.3-0.6-4.6-1.1-6.8-2c-2.1-0.9-4-2.3-5.6-3.8c-1.6-1.5-3.1-3.4-4.8-4.8c-0.5-0.4,0.1,0.2,0,0c0-0.1-0.1-0.2-0.1-0.3
			c0-0.1-0.1-0.2-0.2-0.3c-0.1-0.3,0.1,0.3,0,0.1c0-0.1-0.1-0.2-0.1-0.3c-0.2-0.4-0.3-0.8-0.5-1.2c-1-2.7-1.8-5.5-2.6-8.2
			c-2.8-9.3-5.3-18.6-7.9-27.9c-3.1-11.2-6.1-22.5-9.1-33.8c-2.5-9.4-5-18.8-7.4-28.2c-1.6-6.1-3.1-12.2-4.5-18.3
			c-2.9-12.2-5.8-24.5-9.5-36.5c-1.5-4.9-3.3-9.8-4.7-14.7c-3-10.3-5.1-20.9-7.2-31.4c-0.9-4.2-1.4-8.7-2.9-12.7
			c-1.4-3.9-3.5-7.5-5.5-11.1c-2-3.4-4-6.8-5.9-10.3c-1.9-3.6-4.6-6.7-7.8-9.3c-2.7-2.2-5.7-4.1-8.5-6.4c-3.2-2.6-5.8-5.6-7.8-9.2
			C895.7,621.7,893.1,623.3,894,625L894,625z"/>
	</g>
</g>
<g>
	<path fill="#FFFFFF" class="shape" d="M538.5,647.5c-2.9,5.3-6.6,21-6,27c1.1,12.2,6.6,19.8,5.1,32c-1.2,10.6-4.4,21-4.5,31.6
		c-0.1,13.8,15,40.1,21.3,52.4c18,35,12,19,30,53c3.1,5.9,27.8,41.5,33.9,44.4c5.2,2.5,10.9,3.7,16.6,4.8
		c27.2,5.6,57.1,10.8,81.4-2.6c4-2.2,7.8-4.9,10.4-8.6c2.9-4.1,4.1-9.1,5.1-14.1c1.4-7.1,2.3-14.3,2.7-21.6c0.4-7-1.1-11.4-4.9-17.3
		c-3.9-6.2-11-9.9-18-12c-15.9-4.7-34.1-5.2-50-10c-4.1-1.3-9-5.1-11-9c-1.9-3.8-2.6-6-4-10c-2.9-8.3-5.2-16.9-6.9-25.6
		c-0.6-3.3-1.2-6.8,0-10c1.1-3.1,3.7-5.3,6.3-7.4c20.9-17.4,43.8-32.5,68-44.9c4.8-2.5,9.7-4.8,14.1-7.9c7-4.8,12.7-11.1,18.4-17.4
		c1.6-1.7,8.3-10.7,9.1-12.9C690.5,676.5,615.4,658.7,538.5,647.5"/>
	<g>
		<path d="M537.2,646.7c-2.2,4.2-3.4,9-4.4,13.6c-1,4.5-2.1,9.5-1.8,14.2c0.5,6.6,2.8,12.8,4.3,19.2c0.7,3.1,1.1,6.2,1.1,9.4
			c-0.1,3.9-0.8,7.8-1.5,11.6c-1.4,7.6-3.1,15.3-3.2,23c-0.1,4.6,1.1,9.2,2.6,13.6c3.6,10.7,8.8,20.8,14,30.7
			c4.9,9.2,9.5,18.6,14.7,27.7c2.6,4.6,5.6,9,8.4,13.5c2.1,3.4,4.1,6.9,6,10.4c2.3,4.1,4.3,8.4,6.8,12.5c3.9,6.4,8.3,12.5,12.6,18.6
			c4.9,6.9,10,13.8,15.7,20.1c1.7,1.9,3.5,3.8,5.9,4.9c6.7,3,14,4.2,21.1,5.6c13.7,2.7,27.6,5.1,41.6,4.9c13.4-0.2,27.4-3,38.8-10.4
			c2.9-1.9,5.5-4.1,7.6-6.8c2.1-2.7,3.4-5.9,4.3-9.2c2.1-7.3,3-15,3.7-22.6c0.3-3.6,0.7-7.3,0.2-10.9c-0.4-2.9-1.3-5.7-2.6-8.3
			c-2.9-5.9-7.2-10.5-13-13.6c-6.1-3.2-12.9-4.7-19.6-6c-7.3-1.4-14.7-2.4-22.1-3.6c-3.7-0.6-7.4-1.3-11.1-2.2
			c-3.2-0.8-6.4-1.5-9.2-3.2c-2.8-1.7-5.2-4.1-6.6-7c-1.4-2.8-2.4-5.8-3.5-8.8c-2.6-7.4-4.7-15-6.4-22.7c-0.8-3.6-1.9-7.6-1-11.2
			c0.8-3.2,3.2-5.5,5.6-7.5c11.4-9.6,23.4-18.4,35.9-26.4c6.3-4,12.6-7.9,19.1-11.6c6.5-3.7,13.2-7,19.8-10.5
			c6.6-3.5,12.4-7.8,17.7-13c4-3.9,7.9-8.1,11.3-12.5c1.4-1.9,2.8-3.8,4.1-5.7c1-1.4,2-2.8,2.6-4.4c0.5-1.1-0.8-2.1-1.8-1.8
			c-26.1,6-53.2,6.6-79.8,4.8c-28.9-1.9-57.5-6.4-86.1-11c-16.7-2.7-33.5-5.5-50.3-7.9c-1.9-0.3-2.7,2.6-0.8,2.9
			c29.8,4.3,59.4,9.7,89.2,13.8c28,3.9,56.2,6.8,84.5,5.8c14.8-0.6,29.6-2.3,44.1-5.6c-0.6-0.6-1.2-1.2-1.8-1.8
			c0.1-0.3-0.2,0.4-0.3,0.5c-0.2,0.4-0.4,0.7-0.6,1c-0.6,1-1.3,1.9-1.9,2.8c-1.3,1.9-2.7,3.7-4,5.5c-3.5,4.5-7.6,8.7-11.7,12.7
			c-2.6,2.5-5.3,4.8-8.3,6.8c-3.2,2.2-6.6,4-10,5.8c-6.5,3.4-13,6.7-19.3,10.4c-12.8,7.3-25.1,15.4-37,24.2
			c-5.8,4.3-11.5,8.7-17,13.4c-2.4,2-4.6,4.3-5.7,7.3c-1.3,3.5-0.7,7.3,0,10.8c1.4,7.6,3.4,15.1,5.8,22.4c1.9,5.9,3.7,12.8,8.1,17.4
			c2.2,2.3,5,4.3,8,5.4c3.2,1.2,6.7,1.9,10.1,2.6c7.1,1.5,14.4,2.5,21.6,3.6c7.1,1.1,14.4,2.3,21.2,4.6c5.8,2,11.6,5.2,15,10.4
			c1.7,2.5,3.2,5.3,4.1,8.2c0.9,3,1,6,0.8,9.1c-0.4,7.8-1.4,15.6-3.1,23.2c-0.7,3.4-1.7,6.7-3.5,9.7c-1.7,2.9-4.1,5.2-6.9,7.2
			c-5.4,3.8-11.8,6.4-18.1,8.1c-13.2,3.5-27.1,3-40.6,1.3c-7-0.9-13.9-2.2-20.8-3.6c-3.5-0.7-6.9-1.4-10.4-2.2
			c-3.5-0.8-7.2-1.7-10.4-3.4c-1-0.5-1.1-0.7-1.9-1.4c-1-0.9-2-2-2.9-3c-2.6-2.9-5-6-7.4-9.1c-5.4-7-10.5-14.2-15.4-21.5
			c-1.6-2.4-3.3-4.9-4.8-7.4c-2.5-4.1-4.6-8.5-6.9-12.7c-3-5.5-6.3-10.8-9.7-16.1c-4.4-6.8-8.1-13.9-11.8-21.1
			c-4.9-9.5-10.1-18.9-14.7-28.5c-2.4-5-4.6-10-6.3-15.3c-1.5-4.4-2.6-8.9-2.5-13.5c0.2-7.8,2-15.3,3.3-22.9c0.6-3.6,1.3-7.3,1.4-11
			c0.1-3.2-0.4-6.3-1-9.4c-1.4-6.4-3.8-12.6-4.3-19.1c-0.4-4.5,0.7-9.2,1.7-13.5c1-4.3,2-8.8,4.1-12.7
			C540.7,646.6,538.1,645,537.2,646.7L537.2,646.7z"/>
	</g>
</g>
<g>
	<path fill="#FFFFFF" class="shape" d="M589.5,741.5c14.7,0.7,29,1.5,43.7,2.3c0.4,0,0.9,0,1.3-0.2c0.6-0.3,0.8-0.9,1.1-1.5
		c0.9-2.4,1.5-5.7-0.8-6.9c-0.7-0.3-1.4-0.4-2.2-0.4c-12.1-0.5-24.6,1.4-36-2.6c-2.1-0.8-4.3-1.7-6.5-1.5c-2.2,0.2-3,2.4-3.9,4.4
		c-0.4,0.9,0.1,1.9,0.2,3.4C586.8,741.1,590,740.3,589.5,741.5"/>
	<g>
		<path d="M589.5,743c9.4,0.5,18.8,1,28.2,1.5c4.8,0.2,9.5,0.5,14.3,0.7c1.8,0.1,3.6,0.2,4.6-1.6c0.8-1.4,1.1-3.1,1.3-4.6
			c0.1-1.5-0.2-3.1-1.2-4.2c-1.3-1.4-3.2-1.5-5-1.5c-4.4-0.1-8.8,0-13.2,0.1c-4.4,0-8.9,0-13.3-0.6c-2.2-0.3-4.3-0.8-6.4-1.4
			c-2-0.6-3.9-1.6-6-2c-2-0.4-4.1-0.3-5.6,1.2c-1.2,1.2-2.3,3.3-2.5,4.9c-0.1,0.9,0.2,1.9,0.3,2.8c0.1,0.9,0.3,1.6,0.8,2.3
			c0.4,0.5,1,0.9,1.6,1.2c0.3,0.1,0.5,0.2,0.8,0.3c0.1,0,0.2,0.1,0.3,0.1c-0.1,0-0.1,0,0,0c0.4,0.2,0.3-0.1-0.5-1.1
			c-0.6,1.8,2.3,2.6,2.9,0.8c0.3-1-0.2-1.9-1.1-2.4c-0.6-0.3-1.5-0.3-1.9-1c-0.3-0.5-0.3-1.5-0.4-2.2c-0.1-0.7,0.2-1.2,0.5-1.8
			c0.6-1.4,1.3-2.5,2.9-2.4c1.9,0.1,3.7,0.9,5.4,1.5c1.9,0.7,3.8,1.2,5.7,1.5c3.8,0.7,7.7,1,11.5,1.1c3.9,0.1,7.7,0,11.6-0.1
			c2,0,4,0,6,0c1.2,0,3.1-0.3,3.5,1.2c0.4,1.2-0.1,2.7-0.5,3.8c-0.2,0.6-0.2,1-0.9,1c-1,0.1-2.1-0.1-3.1-0.2
			c-4.2-0.2-8.4-0.4-12.5-0.6c-9.4-0.5-18.8-1-28.2-1.5C587.6,739.9,587.6,742.9,589.5,743L589.5,743z"/>
	</g>
</g>
<g>
	<path fill="#FFFFFF" class="shape" d="M540.2,707.4c5.5-0.1,10.6,3.5,16.1,3.5c2.2,0,4.4-0.6,6.6-0.9c14.6-2.5,29.1,3.4,43.8,5.1
		c1.7,0.2,3.8,0.3,4.9-1.1c1.1-1.2,0.9-3.1,0-4.4c-0.9-1.3-2.3-2.2-3.7-3c-9.2-4.9-19.7-6.9-30-7.8c-5.3-0.5-10.7-0.8-15.4-3.2
		c-3-1.6-5.6-4-8.7-5.4c-3.1-1.5-7.1-1.8-9.6,0.5c-0.8,0.7-1.4,1.7-2.4,2c-0.8,0.2-1.6,0-2.5,0.1c-2.3,0.2-3.8,2.8-3.6,5.1
		c0.2,2.3,3.2,7.7,4.6,9.6"/>
	<g>
		<path d="M540.2,708.9c3.1,0,6,1.1,8.9,2.1c3,1,6,1.7,9.2,1.3c3.3-0.4,6.5-1.2,9.8-1.4c3.4-0.2,6.8,0,10.1,0.5
			c6.7,0.8,13.3,2.5,19.9,3.8c3.2,0.6,6.5,1.4,9.8,1.5c2.5,0.1,5.3-0.8,5.9-3.6c0.6-2.8-1.1-5.2-3.3-6.7c-2.6-1.8-5.6-3-8.6-4.1
			c-6-2.3-12.3-3.5-18.6-4.4c-6.2-0.8-13-0.6-18.8-3.1c-5.4-2.3-9.4-7.5-15.6-7.4c-1.5,0-2.9,0.3-4.2,1.1c-0.6,0.3-1.2,0.8-1.7,1.3
			c-0.4,0.4-0.9,1.2-1.5,1.4c-0.7,0.2-1.6,0-2.4,0.1c-0.7,0.1-1.3,0.3-1.9,0.6c-1.1,0.7-2,1.8-2.4,3c-0.9,2.4-0.2,4.6,0.8,6.9
			c1,2.2,2.2,4.4,3.5,6.4c1.1,1.6,3.7,0.1,2.6-1.5c-1.1-1.6-2-3.2-2.9-4.9c-0.8-1.5-1.8-3.4-1.5-5.1c0.2-0.8,0.6-1.7,1.3-2.2
			c1-0.6,2.4-0.1,3.5-0.4c1.2-0.3,2-1.3,2.8-2.1c0.8-0.8,1.8-1.3,3-1.5c5.4-0.8,9.6,4.2,14,6.5c5.2,2.6,11.2,2.9,16.9,3.4
			c5.8,0.6,11.6,1.5,17.2,3.1c2.9,0.8,5.7,1.8,8.4,3.1c2.1,1,5.5,2.2,6.3,4.5c1,3-2.7,2.7-4.5,2.4c-3.1-0.4-6.2-1-9.3-1.6
			c-6-1.2-11.9-2.6-17.9-3.4c-3.4-0.4-6.7-0.7-10.1-0.6c-3.6,0.1-6.9,0.9-10.4,1.4c-6.4,0.9-12-3.3-18.3-3.4
			C538.3,705.9,538.3,708.9,540.2,708.9L540.2,708.9z"/>
	</g>
</g>
<g>
	<path fill="#FFFFFF" class="shape" d="M545.4,668.7c11.3,0.3,22.5,3.6,32.1,9.6c2.3,1.4,4.6,3,7,4.3c4.6,2.3,9.7,3.3,14.4,5.4
		c10.9,5,18.7,16,30.2,19.3c4.1,1.2,8.4,1.2,12.6,2c6.6,1.3,13,4.4,19.7,3.8c0.6-0.1,1.3-0.1,1.8-0.5c1.1-0.7,1.1-2.4,0.5-3.5
		c-0.7-1.1-1.8-1.8-3-2.4c-9.4-4.7-21.2-4.6-29.5-11.1c-2.9-2.3-5.2-5.2-7.9-7.7c-2.2-1.9-4.6-3.6-6.2-6.1c-2.2-3.4-2.4-8-5-11.1
		c-2.4-2.8-6.4-3.8-10.1-4.5c-11.4-2.4-22.7-4.8-34.1-7.1c-4.8-1-9.9-2-14.6-0.6c-4.7,1.4-8.9,5.2-7.7,10"/>
	<g>
		<path d="M545.4,670.2c9.7,0.3,19.3,2.8,27.9,7.4c4.3,2.3,8.2,5.4,12.8,7.3c4.5,1.9,9.3,2.9,13.7,5.2c7.4,3.9,13.2,10.1,20.2,14.6
			c3.6,2.3,7.5,4,11.7,4.7c2.6,0.5,5.2,0.7,7.7,1.1c2.5,0.4,4.9,1,7.3,1.7c4.7,1.3,9.5,2.9,14.4,2.5c2.1-0.2,4-1,4.3-3.2
			c0.4-2.1-0.9-3.9-2.5-5.1c-1.7-1.2-3.9-2-5.8-2.7c-2-0.7-4.1-1.3-6.2-1.9c-4.1-1.1-8.3-2-12.2-3.6c-2-0.8-4-1.8-5.8-3.1
			c-1.9-1.3-3.5-3-5.1-4.7c-1.7-1.8-3.5-3.5-5.4-5.1c-1.7-1.4-3.4-2.9-4.5-4.8c-2-3.7-2.2-8.2-5.4-11.3c-3.1-3-7.6-3.8-11.7-4.7
			c-10.7-2.2-21.4-4.5-32.1-6.7c-4.9-1-10-2.1-15-0.9c-3.7,0.9-7.5,3.2-9.2,6.7c-0.8,1.7-0.9,3.5-0.5,5.4c0.4,1.9,3.3,1.1,2.9-0.8
			c-0.8-3.6,2.3-6.4,5.4-7.7c4.4-1.9,9.3-1.1,13.8-0.2c10.1,2,20.2,4.2,30.3,6.3c4.1,0.8,8.8,1.3,12.4,3.5c3.6,2.2,4.1,6.4,5.6,10
			c0.8,1.9,1.9,3.6,3.3,5.1c1.5,1.5,3.3,2.8,4.9,4.3c3.3,3.1,6.1,6.6,10,9c7,4.3,15.3,5.2,22.9,7.8c1.9,0.7,3.9,1.4,5.5,2.5
			c0.7,0.4,1.5,1.1,1.5,2c0,1.1-1.3,1-2.1,1c-4.7,0.2-9.2-1.4-13.6-2.6c-2.3-0.6-4.6-1.2-6.9-1.5c-2.4-0.4-4.9-0.6-7.3-1
			c-4.1-0.7-7.8-2.2-11.3-4.4c-6.6-4.2-12.1-9.9-18.9-13.8c-3.9-2.3-8.2-3.5-12.5-5c-2.2-0.8-4.4-1.7-6.5-2.9c-2-1.2-3.9-2.5-6-3.7
			c-7.8-4.7-16.5-7.7-25.5-8.9c-2.2-0.3-4.5-0.5-6.8-0.5C543.4,667.1,543.5,670.1,545.4,670.2L545.4,670.2z"/>
	</g>
</g>
<g>
	<path fill="#FFFFFF" class="shape" d="M712.4,669.1c-12.5,0-26.4-3-38.9-2.6c-0.7,0,0,3.4-0.3,4c-0.1,0.2-0.1,0.5-0.1,0.7
		c0.2,2.3,2.1,4.2,4.2,5.1c2.1,0.9,4.5,1.2,6.8,1.7c7.7,1.7,14.8,6.8,22.8,6.5c1,0,2-0.2,2.8-0.7c1.2-0.7,1.8-2.1,2.2-3.5
		c1.2-3.6,1.6-7.5,1.2-11.2"/>
	<g>
		<path d="M712.4,667.6c-7.7,0-15.4-1.1-23.1-1.8c-3.8-0.4-7.7-0.7-11.6-0.8c-1,0-1.9,0-2.9,0c-0.8,0-1.7-0.1-2.3,0.4
			c-0.9,0.6-0.8,1.8-0.8,2.8c0,0.5,0.1,1.1,0.1,1.6c0,0.3-0.2,0.9-0.2,1.4c0.1,1.6,0.8,3,1.8,4.1c2.4,2.7,6.1,3.2,9.4,3.9
			c7.1,1.4,13.3,5.5,20.5,6.5c1.8,0.2,3.9,0.4,5.7-0.1c1.9-0.6,3.1-2,3.8-3.8c1.6-3.9,2.1-8.5,1.7-12.7c-0.2-1.9-3.2-1.9-3,0
			c0.3,3.4,0,6.9-1,10.2c-0.4,1.3-0.8,2.8-2.1,3.4c-1.3,0.6-3.3,0.3-4.7,0.1c-6.2-0.8-11.7-4.2-17.6-5.9c-2.9-0.8-6.3-0.8-9-2.4
			c-1-0.6-2-1.5-2.3-2.6c-0.3-0.9,0-2,0-3c0-0.4,0-0.9,0-1.3c0-0.1,0-0.4,0-0.4c-0.3,0.3-0.5,0.5-0.8,0.8c0.2,0,0.4,0,0.7,0
			c1.7,0,3.4,0,5.1,0.1c3.3,0.1,6.7,0.4,10,0.8c7.5,0.8,15.1,1.8,22.7,1.8C714.3,670.6,714.3,667.6,712.4,667.6L712.4,667.6z"/>
	</g>
</g>
<g>
	<path fill="#FFFFFF" class="shape" d="M662.6,897.3c3.8-9.1,3.9-19.2,3.9-29.1c0-6.4,0-13.2-3.1-18.8c-0.5-0.9-1.1-1.9-1.2-2.9
		c-0.1-1.1,0.5-2.3,1.6-2.4c0.5-0.1,1,0.1,1.5,0.4c6.6,3.1,10,10.6,12.1,17.6c2.6,8.8,4,17.9,4.1,27c0,1.2,5.6,7.4,5.1,8.5
		c-0.8,1.6-8.2-0.5-10,0c-4.3,1.2-8.9-0.5-13.4-0.8"/>
	<g>
		<path d="M664.1,897.7c4-9.8,4-20.6,4-31c0-5-0.2-10.2-1.9-15c-0.4-1.1-0.8-2.1-1.4-3.1c-0.3-0.5-1.7-2.5-0.8-3
			c0.5-0.3,2.1,0.9,2.5,1.2c0.9,0.6,1.7,1.3,2.4,2c3,3.1,4.9,7.1,6.3,11.1c1.7,5.1,2.9,10.3,3.7,15.6c0.4,2.9,0.8,5.8,0.9,8.7
			c0.1,1.4,0.2,2.7,0.2,4.1c0,0.8,0.1,1.3,0.4,2c1.2,2.4,3.3,4.3,4.6,6.8c0.1,0.1,0.2,0.4,0.2,0.4c-0.1,0.1,0.2-1.1,0.3-1
			c-0.1-0.1-1.7,0.1-1.9,0.1c-1.7-0.1-3.5-0.5-5.2-0.6c-2.1-0.2-4.1,0.5-6.2,0.4c-3-0.2-6-0.9-9-1.2c-1.9-0.2-1.9,2.8,0,3
			c2.9,0.2,5.8,1,8.8,1.2c1.4,0.1,2.8,0,4.1-0.2c0.9-0.2,1-0.3,2-0.2c1.7,0.1,3.3,0.4,5,0.6c1.4,0.1,3.2,0.3,4.3-0.7
			c2.2-2-1.5-5.8-2.7-7.4c-0.4-0.6-0.8-1.1-1.2-1.7c-0.2-0.2-0.3-0.5-0.5-0.8c0-0.1-0.1-0.3,0,0c-0.1-0.3,0,0.9,0-0.3
			c0-3-0.3-6.1-0.6-9.1c-0.7-6.2-1.9-12.3-3.7-18.2c-1.3-4.5-3.1-8.9-6-12.7c-1.9-2.5-8.6-9.1-11.3-4.4c-1.4,2.4,0.2,4.6,1.3,6.8
			c1.2,2.4,1.8,5.1,2.2,7.8c0.4,3.1,0.4,6.3,0.4,9.5c0,3.2,0,6.3-0.2,9.5c-0.3,6.6-1.2,13.1-3.7,19.2
			C660.4,898.7,663.3,899.5,664.1,897.7L664.1,897.7z"/>
	</g>
</g>
<g>
	<path fill="#FFFFFF" class="shape" d="M710.1,891.2c-0.3-7.9-2.8-15.6-5.3-23.1c-2.8-8.3-5.6-16.8-10.8-23.7c-2.5-3.4-5.7-6.7-6-10.8
		c-0.1-0.9,0-1.8,0.6-2.5c0.9-0.9,2.3-0.9,3.6-0.7c6.3,0.7,13.1,1.6,17.6,6.1c2.7,2.6,4.2,6.2,5.6,9.7c2.8,6.8,5.6,13.5,8.4,20.3
		c2,4.9,4,10.8,0.9,15.1c-3.4,4.8-6.2,6-14.3,10"/>
	<g>
		<path d="M711.6,891.2c-0.2-5.6-1.5-11.1-3.1-16.5c-1.5-5.1-3.2-10.1-5.1-15.1c-1.8-4.8-3.9-9.6-6.7-13.9
			c-2.4-3.7-6.6-7.2-7.2-11.8c-0.1-1-0.1-2,1.1-2.2c1.1-0.1,2.3,0.1,3.3,0.3c2.3,0.3,4.6,0.6,6.8,1.2c4.6,1.2,8.3,3.7,10.7,7.9
			c1.3,2.3,2.2,4.8,3.3,7.2c1.1,2.7,2.2,5.4,3.3,8.1s2.2,5.4,3.3,8.1c1,2.4,2,4.8,2.7,7.3c0.7,2.4,1.1,5.1,0.1,7.5
			c-0.7,1.7-2.1,3.3-3.4,4.6c-3.1,2.9-7.4,4.6-11.2,6.4c-1.7,0.8-0.2,3.4,1.5,2.6c7-3.4,16.9-7.7,16.6-17.1c-0.2-5.5-3-10.8-5-15.7
			c-2.4-5.7-4.6-11.5-7.1-17.2c-2.1-4.8-5.2-8.9-10.1-11.1c-2.3-1-4.6-1.6-7.1-2.1c-2.4-0.4-4.9-0.9-7.3-0.9c-2.5,0-4.5,1.4-4.6,4
			c-0.1,2.5,0.9,5,2.2,7.1c1.4,2.2,3.1,4.1,4.6,6.2c1.6,2.3,3,4.8,4.3,7.3c2.7,5.7,4.6,11.7,6.6,17.7c2.2,6.6,4.1,13.3,4.4,20.2
			C708.6,893.1,711.6,893.1,711.6,891.2L711.6,891.2z"/>
	</g>
</g>
<g>
	<path fill="#FFFFFF" class="shape" d="M1047.5,897.6c2.5,1.3,5.7,0.2,7.7-1.8c2-2,2.9-4.8,3.7-7.5c1.5-5.5,2.2-11.6-0.6-16.5
		c-2.2-3.9-6.5-6.6-7.6-10.9c-0.4-1.5-0.1-3.3,1.2-4c1.9-1,3.9,1,5.1,2.8c3.4,5.1,6.9,10.1,10.3,15.2c2.4,3.6,4.9,7.2,6.1,11.4
		c1.2,4.1,1.1,8.9-1.5,12.4c-4.5,6.1-13.6,5.7-21.1,4.6c-1.4-0.2-3-0.5-4-1.5c-1-1.1-0.9-3.2,0.5-3.6"/>
	<g>
		<path d="M1046.7,898.9c3.9,1.8,8.1,0,10.5-3.3c2.6-3.4,3.6-8.1,4.2-12.3c0.6-4.2,0.3-8.7-2-12.5c-2-3.3-5.3-5.6-6.9-9.1
			c-0.4-0.9-1.2-4.3,0.8-3.6c1.9,0.6,3.2,3.5,4.3,5.1c2.9,4.3,5.9,8.7,8.8,13c2.6,3.8,5.2,7.8,6,12.4c0.7,4-0.3,8.3-3.5,10.9
			c-3.1,2.5-7.5,2.9-11.4,2.8c-2.1-0.1-4.2-0.3-6.3-0.6c-1-0.1-2.1-0.2-2.9-0.8c-0.2-0.1-1.1-1.2-0.6-1.4c1.8-0.7,1-3.6-0.8-2.9
			c-1.8,0.7-2.6,2.6-2.1,4.5c0.6,2.1,2.8,3.1,4.9,3.4c4.2,0.7,8.6,1.1,12.8,0.5c4.1-0.5,8-2.1,10.5-5.5c2.9-3.8,3.2-9,2-13.5
			c-1.4-5.2-4.7-9.6-7.6-13.9c-1.7-2.5-3.3-4.9-5-7.4c-1.6-2.3-3-4.8-4.8-7c-1.3-1.6-3.3-3.2-5.4-2.6c-2.1,0.5-3.2,2.7-3.1,4.7
			c0.2,4.5,4.1,7.6,6.7,10.9c3.5,4.5,3.3,10.2,2.1,15.5c-0.6,2.7-1.4,5.5-3.1,7.7c-1.4,1.9-4.2,3.4-6.5,2.4
			C1046.5,895.5,1045,898.1,1046.7,898.9L1046.7,898.9z"/>
	</g>
</g>
<g>
	<path fill="#FFFFFF" class="shape" d="M935.5,692.5c10.3,5,16.7,14.1,28,16.1c12.9,2.3,25.9-7.6,38.5-4.3c2.7,0.7,5.3,2,8.1,2.4s6.1-0.7,7.1-3.4
		c0.6-1.4,0.4-3.1-0.1-4.6c-2-6.1-7.8-10.1-13.9-12.1c-15.9-5.2-33.7,0.7-49.9-3.8c-3.6-1-7.1-2.5-10.8-2.8
		c-3.7-0.3-9.8-1.2-9.1,2.5c1,5,1,7,2.3,10.3"/>
	<g>
		<path d="M934.7,693.8c5.8,2.9,10.6,7.2,16,10.9c5.4,3.7,11.5,6.1,18.2,5.8c6.9-0.3,13.4-2.9,20.1-4.4c3.2-0.7,6.6-1.1,9.9-0.8
			c3.7,0.4,6.9,2.3,10.6,2.8c2.8,0.4,6.1-0.2,8.1-2.5c2.3-2.7,1.6-6.4,0.2-9.3c-2.7-5.8-8.8-9.4-14.8-11.3
			c-14.8-4.6-30.5,0-45.5-2.7c-3.8-0.7-7.3-2.1-11-3c-2.8-0.7-5.9-1.1-8.9-1c-2.1,0-4.8,0.4-5.5,2.7c-0.4,1.4,0.2,3,0.4,4.4
			c0.2,1.4,0.4,2.8,0.7,4.1c0.3,1.3,0.6,2.5,1.1,3.8c0.7,1.8,3.6,1,2.9-0.8c-0.9-2.4-1.3-4.8-1.7-7.3c-0.1-0.8-0.3-1.7-0.5-2.5
			c0-0.1-0.1-0.7-0.1-0.8c0.3-0.5,1.5-0.6,2.1-0.6c2.4-0.1,5,0.1,7.3,0.6c3.5,0.7,6.8,2.1,10.3,2.9c13.9,3.2,28.2-0.5,42.1,1.9
			c6,1,12.1,3.2,16.2,7.9c1.7,2,3.8,5.3,2.9,8c-0.8,2.7-4.4,3-6.7,2.5c-3.4-0.7-6.4-2.3-9.9-2.7c-3-0.4-6-0.1-8.9,0.4
			c-6.3,1.1-12.4,3.6-18.8,4.4c-3.4,0.5-6.8,0.4-10.1-0.5c-3.2-0.9-6.1-2.4-8.9-4.3c-5.5-3.7-10.4-8.2-16.5-11.2
			C934.5,690.4,933,692.9,934.7,693.8L934.7,693.8z"/>
	</g>
</g>
<g>
	<path fill="#FFFFFF" class="shape" d="M932.3,661.6c16.9-5.1,35.7-3.9,51.8,3.3c7.5,3.3,14.5,7.9,22,11.2c7.5,3.3,16,5.4,24,3.3
		c8-2.1,15-9.2,14.9-17.4c0-1.6-0.3-3.2-1.3-4.4c-1.5-1.9-4.2-2.4-6.6-2.6c-9.4-1.1-18.9-1.7-28-4.3c-4.8-1.4-9.5-3.4-14.3-5
		c-15.5-5-32.5-5.5-48.2-1.3c-7,1.9-14,8.8-14,16.1"/>
	<g>
		<path d="M932.7,663c16.6-4.9,35-3.9,50.9,3.3c8.4,3.8,16,9,24.6,12.3c7.8,3,17,4.6,25,1.4c6.4-2.6,12.1-8.3,13.1-15.4
			c0.5-3.7-0.1-8-3.9-9.8c-1.6-0.8-3.4-1.1-5.2-1.3c-2.3-0.3-4.7-0.5-7-0.7c-4.7-0.5-9.3-1-13.9-1.9c-4.6-0.9-9-2.2-13.4-3.8
			c-4.3-1.6-8.6-3.2-13.1-4.3c-4.4-1.1-8.9-1.9-13.4-2.3c-8.9-0.8-18-0.3-26.8,1.7c-3.9,0.9-7.5,2-10.7,4.4c-3,2.3-5.5,5.2-6.9,8.6
			c-0.7,1.7-1.1,3.5-1.1,5.3c0,1.9,3,1.9,3,0c0.1-7,6.6-12.9,12.9-14.6c8.2-2.3,16.9-3.1,25.4-2.7c8.6,0.4,17,2.2,25.2,5.1
			c4.1,1.5,8.1,3.1,12.3,4.2c4.2,1.2,8.6,1.9,12.9,2.5c4.4,0.6,8.8,1,13.2,1.5c1.7,0.2,3.7,0.3,5.3,1.1c1.7,0.9,2.3,2.5,2.4,4.4
			c0.2,6.8-5,12.6-10.9,15.2c-7.6,3.3-16.4,1.5-23.8-1.4c-8-3.2-15.2-8.1-23.1-11.7c-14.9-6.8-31.9-8.7-47.9-5.4
			c-2,0.4-4,0.9-5.9,1.5C930.1,660.7,930.9,663.6,932.7,663L932.7,663z"/>
	</g>
</g>
<g>
	<path fill="#FFFFFF" class="shape" d="M1132.5,711.5c8.2-9.7,19.6-11.6,32.2-10.7c3,0.2,6.1,0.5,8.9-0.5c5.9-2.2,8.1-9.2,11.8-14.3
		c5.1-6.9,13.5-10.3,20.5-15.3c7-4.9,13.2-13.4,10.5-21.5c-0.3-1-0.9-2-1.7-2.7c-1-0.8-2.4-0.9-3.7-1c-13.4-1-27.5-1.8-39.7,3.7
		c-2.5,1.1-4.9,2.6-6.5,4.9c-1.4,2.1-1.9,4.8-2.6,7.3c-1.8,6.9-5.2,13.3-9.9,18.6c-4.4,4.9-9.8,8.9-14,13.9c-4.3,5-7.5,11.6-6.2,18"
		/>
	<g>
		<path d="M1133.6,712.6c4.9-5.7,11.4-8.9,18.7-10c3.7-0.5,7.4-0.6,11.1-0.4c4.2,0.2,8.5,0.9,12.4-1.3c6.2-3.4,7.9-11.1,12.5-16
			c5.4-5.8,12.8-8.8,19.1-13.4c5.9-4.4,11.8-11.4,11.2-19.2c-0.1-1.8-0.5-3.8-1.5-5.4c-1-1.7-2.7-2.5-4.6-2.8
			c-4.3-0.6-8.8-0.7-13.2-0.8c-8.7-0.2-17.6,0.3-25.8,3.4c-3.7,1.4-7.5,3.2-9.8,6.6c-1.2,1.8-1.8,3.9-2.3,6
			c-0.5,2.1-1.1,4.1-1.8,6.1c-1.5,3.9-3.5,7.7-6.1,11c-2.6,3.5-5.9,6.5-9.1,9.4c-6.1,5.6-12.5,11.9-13.7,20.4c-0.3,2-0.3,4,0.1,6
			c0.3,1.9,3.2,1.1,2.9-0.8c-1.5-8.1,4.2-15.3,9.6-20.5c3-2.9,6.2-5.6,9.1-8.6c2.7-2.9,5.1-6.1,7.1-9.6c2-3.5,3.5-7.3,4.5-11.2
			c0.5-1.9,0.9-4,1.8-5.8c0.9-1.7,2.4-3,4-4c7-4.2,15.8-5.3,23.8-5.5c4.2-0.1,8.3,0.1,12.5,0.3c2.1,0.1,4.2,0.1,6.3,0.5
			c2,0.3,2.7,1.7,3.1,3.6c1.7,7.3-4.2,14.4-9.7,18.4c-5.9,4.3-12.8,7.3-18.2,12.4c-2.5,2.4-4.4,5.3-6.2,8.3
			c-1.6,2.7-3.1,5.7-5.6,7.7c-3.2,2.5-7.1,2.2-10.9,1.9c-3.6-0.3-7.3-0.3-10.9,0.1c-6.8,0.7-13.3,2.9-18.6,7.3
			c-1.4,1.1-2.6,2.4-3.8,3.8C1130.2,711.9,1132.3,714,1133.6,712.6L1133.6,712.6z"/>
	</g>
</g>
<g>
	<path fill="#FFFFFF" class="shape" d="M1179.7,845.9c3,4.9,7.5,8.8,12.6,11.3c2.4,1.2,5.1,2.1,6.8,4.2c1.3,1.7,1.8,4.2,3.6,5.4
		c2,1.4,4.8,0.7,7-0.4c2.2-1.2,4.2-2.7,6.6-3.1c2.4-0.4,5.4,1.3,5.2,3.7c4.7,1,8.3-4.4,12.9-5.4c5.9-1.2,11,5.3,11.3,11.4
		s-2.3,11.8-3.4,17.8c-0.2,1.3-1.1,1.6-1.9,2.7c-0.9,1.2-1.6,3-3,3.4c-5.4,1.9-11.1,3.1-16.8,3.5c-1.8,0.1-3.7,0.2-5.2-0.7
		c-1.6-0.9-4.7,0.1-5.9-1.2c-2.3-2.3-5.3-4-8-6c-2.8-2-3.6-2.5-6-5c-9.7-10-14.7-26.7-18-39.8"/>
	<g>
		<path d="M1178.4,846.7c2,3.1,4.4,5.9,7.3,8.1c1.5,1.2,3,2.2,4.6,3.1c1.6,0.9,3.3,1.5,4.9,2.4c1.5,0.8,2.6,1.9,3.5,3.4
			c0.8,1.4,1.4,3,2.7,4c3,2.5,7,1.2,10-0.5c1.7-1,3.6-2.4,5.6-2.4c1.3,0,3.1,0.7,3.1,2.3c0,0.6,0.5,1.3,1.1,1.4
			c4.5,0.8,7.6-2.5,11.3-4.4c1.7-0.9,3.6-1.4,5.5-0.7c2,0.7,3.5,2.3,4.5,4.1c2.7,4.4,1.8,9.5,0.6,14.3c-0.7,2.7-1.5,5.4-2.1,8.2
			c-0.2,1.2-0.9,1.5-1.6,2.4c-0.6,0.8-1.1,1.7-1.7,2.5c-0.8,0.9-2.2,1.1-3.3,1.4c-1.4,0.4-2.8,0.8-4.3,1.1c-2.8,0.6-5.7,1.1-8.6,1.4
			c-1.3,0.1-2.6,0.3-3.8,0.1c-1.1-0.2-1.9-0.8-3-1c-1-0.2-1.9-0.1-2.9-0.2c-1.2-0.1-1.7-0.7-2.6-1.5c-3.6-3-7.8-5.2-11.2-8.3
			c-3.3-3.1-6-6.8-8.3-10.8c-5.2-9.2-8.3-19.6-10.8-29.8c-0.5-1.9-3.4-1.1-2.9,0.8c2.5,9.9,5.4,19.8,10.2,28.9
			c2.3,4.4,5.2,8.6,8.8,12.2c3.6,3.6,8.3,5.9,12.1,9.2c0.8,0.7,1.5,1.6,2.6,2c1.1,0.4,2.3,0.4,3.4,0.4c1,0,1.7,0.4,2.6,0.7
			c1.4,0.5,3,0.5,4.5,0.5c5.9-0.3,12.3-1.4,17.8-3.6c1-0.4,1.8-1.2,2.4-2.1c0.7-1,1.3-1.9,2.2-2.8c0.9-0.9,1.2-1.8,1.4-3.1
			c0.3-1.5,0.7-3,1.1-4.4c1.4-5.3,3.3-11.2,1.5-16.7c-1.5-4.7-5.7-9.5-11.1-9.2c-2.6,0.2-4.8,1.5-6.9,2.9c-1.9,1.3-4.2,3.1-6.6,2.7
			c0.4,0.5,0.7,1,1.1,1.4c0-3.3-3.2-5.4-6.3-5.3c-4,0.1-6.7,3.6-10.5,4.3c-1.9,0.3-3.1-0.4-4.1-2c-0.8-1.5-1.4-3-2.6-4.2
			c-2.5-2.7-6.5-3.6-9.6-5.5c-3.7-2.3-6.8-5.5-9.1-9.1C1180,843.5,1177.4,845,1178.4,846.7L1178.4,846.7z"/>
	</g>
</g>
<g>
	<path fill="#FFFFFF" class="shape" d="M1262.5,909.5c0-5.7-0.5-13.3-0.5-19c0-1.7,0-3.4,0.4-5.1c0.5-2.2,1.6-4.1,2.8-6c2.4-4.1,4.8-8.2,7.2-12.3
		c2.8,10.1,1.2,20.8-0.4,31.2c-0.4,2.9-0.9,5.8-2.5,8.3s-4.6,4.2-7.4,3.3"/>
	<g>
		<path d="M1264,909.5c0-6.9-0.7-13.8-0.5-20.6c0.1-2,0.4-3.8,1.2-5.6c0.8-1.7,1.8-3.2,2.7-4.8c2.1-3.5,4.1-7.1,6.2-10.6
			c-0.9-0.1-1.8-0.2-2.7-0.4c2.2,7.9,1.6,16.3,0.5,24.3c-0.5,3.8-0.8,7.7-2,11.4c-1,2.9-3.5,6.2-7,5.3c-1.9-0.5-2.7,2.4-0.8,2.9
			c3.7,1,7.4-1.2,9.3-4.4c2.2-3.7,2.5-8.3,3.1-12.5c1.3-9.2,2.2-18.7-0.3-27.8c-0.3-1.2-2.1-1.5-2.7-0.4c-2.1,3.7-4.3,7.4-6.4,11.1
			c-2,3.4-3.8,6.6-4.1,10.6c-0.5,7.2,0.5,14.4,0.4,21.6C1261,911.4,1264,911.4,1264,909.5L1264,909.5z"/>
	</g>
</g>
<g>
	<g>
		<path d="M1083.4,104.8c-5.8-16.7-22-25.4-36.8-32.9c-1.7-0.9-3.2,1.7-1.5,2.6c14,7.1,29.9,15.3,35.4,31.1
			C1081.2,107.4,1084.1,106.7,1083.4,104.8L1083.4,104.8z"/>
	</g>
</g>
<g>
	<g>
		<path d="M1271,110.6c0.9-2.4,3.1-3.9,5.3-4.9c2.7-1.3,5.8-2.1,8.7-3c6.7-2,13.6-3.6,20.5-4.8c1.9-0.3,1.1-3.2-0.8-2.9
			c-7.5,1.3-15,3.1-22.3,5.3c-5.4,1.7-12.1,3.5-14.2,9.5C1267.5,111.7,1270.3,112.5,1271,110.6L1271,110.6z"/>
	</g>
</g>
<g>
	<path fill="#FFFFFF" class="shape" d="M991.5,420.3c-2.4-4.3-5-8.8-5.2-13.8c-0.1-2,0.2-3.9,0.7-5.8c1.2-4.9,3.6-9.6,6.9-13.5
		c1.2-1.4,2.7-2.8,4.5-2.7c1.3,0.1,2.4,0.9,3.4,1.8c2.4,2.2,4.4,5,5.7,8c1,2.2,1.6,4.6,2.7,6.9c1.9,4,4.9,7.4,7.3,11.2
		s4,8.4,2.8,12.6c-0.6,2.1-2.4,4.1-4.5,4c-1.3-0.1-2.5-1-3.2-2.2c-1.1-1.8-1.2-4-2.2-5.9c-1.6-3.3-5.4-5.1-9-4.9
		c-3.6,0.2-7,2.1-9.6,4.6"/>
	<g>
		<path d="M992.8,419.5c-2.1-3.7-4.3-7.5-4.8-11.7c-0.5-4.2,0.7-8.6,2.5-12.4c0.8-1.8,1.8-3.5,3-5.2c1-1.5,2.3-3.5,4.1-4.2
			c1.8-0.7,3.6,1.5,4.7,2.7c1.4,1.5,2.5,3.2,3.4,4.9c1,2,1.6,4.1,2.4,6.1c0.8,2,1.7,3.8,2.9,5.6c2.2,3.4,4.9,6.5,6.7,10.2
			c1.5,3.1,2.8,8.1,0,10.9c-1.3,1.4-3,0.8-3.9-0.8c-1-1.7-1.2-3.9-2-5.7c-1.7-3.5-5.5-5.5-9.3-5.7c-4.4-0.3-8.6,2-11.8,5
			c-1.4,1.3,0.7,3.4,2.1,2.1c3-2.8,7.2-5,11.3-3.8c1.8,0.5,3.5,1.5,4.6,3.1c1.2,1.8,1.3,4.1,2.3,6.1c0.9,1.8,2.6,3.2,4.6,3.4
			c1.9,0.2,3.6-0.9,4.8-2.4c2.7-3.5,2.1-8.5,0.6-12.4c-1.7-4.3-4.8-7.7-7.3-11.5c-1.3-2-2.3-4.1-3.2-6.4c-0.8-2.2-1.6-4.4-2.8-6.4
			c-1.1-1.9-2.4-3.7-4-5.2c-1.4-1.5-3.2-3-5.4-3.1c-2.2-0.1-4.1,1.4-5.4,3c-1.5,1.7-2.8,3.6-3.9,5.5c-2.5,4.4-4.4,9.7-4.3,14.8
			c0.1,5.4,2.8,10.2,5.4,14.8C991.2,422.7,993.7,421.2,992.8,419.5L992.8,419.5z"/>
	</g>
</g>
<g>
	<path fill="#FFFFFF" class="shape" d="M824.8,324.6c-1.4,0.9-2.9,1.9-4.3,2.8c-0.1,0.1-0.3,0.2-0.4,0.3c-0.4,0.6,0.5,1.2,1.1,1.5
		c3.7,1.3,7.5,2.4,11.3,3.4c0.7,0.2,1.6,0.3,2.2-0.1c0.5-0.4,0.6-1,0.7-1.6c0.8-4.4,1.1-8.8,1.1-13.2c0-0.4,0-0.9-0.2-1.3
		c-0.1-0.2-0.3-0.5-0.5-0.6c-3.1-3.1-7.8-3.6-12.2-3.9c-1-0.1-2.1-0.1-3.1,0.2c-1.8,0.7-2.9,2.7-2.7,4.7s1.4,3.6,3,4.8
		s3.5,1.7,5.4,2.1"/>
	<g>
		<path d="M824,323.3c-1.3,0.9-2.7,1.7-4,2.6c-1.1,0.8-2.1,1.9-1.2,3.3c0.7,1.2,2.3,1.6,3.6,2c1.5,0.5,3.1,1,4.6,1.5
			c1.6,0.5,3.1,0.9,4.7,1.3c1.2,0.3,2.6,0.6,3.7-0.2c1.1-0.7,1.3-2.1,1.5-3.3c0.3-1.7,0.5-3.5,0.7-5.2c0.1-1.5,0.2-2.9,0.3-4.4
			c0.1-1.5,0.3-3.4-0.2-4.9c-0.8-2.2-3.8-3.5-5.8-4.3c-2.5-0.9-5.1-1.1-7.7-1.3c-2.7-0.2-5.3,0-6.9,2.4c-1.6,2.4-1.2,5.5,0.4,7.7
			c1.9,2.6,5,3.8,8.1,4.5c1.9,0.4,2.7-2.5,0.8-2.9c-2-0.4-4.1-1-5.7-2.5c-1.1-1.1-2-2.6-1.6-4.2c0.5-1.9,2.1-2.2,3.9-2.1
			c1.8,0.1,3.6,0.3,5.4,0.6c1.8,0.4,3.7,0.9,5.2,2.1c0.6,0.5,1.1,0.8,1.2,1.7c0.1,1.2,0,2.4,0,3.6c-0.1,2.4-0.3,4.8-0.7,7.2
			c-0.1,0.5-0.2,1.1-0.3,1.6c0,0.2-0.1,1-0.3,1.2c-0.3,0.2-2-0.4-2.4-0.5c-2.6-0.7-5.2-1.5-7.8-2.3c-0.5-0.2-1.3-0.6-1.9-0.6
			c0,0-0.1,0-0.1,0c-0.3-0.2-0.5,0.1-0.3,1c0.1,0,0.9-0.6,1-0.6c1.1-0.7,2.2-1.4,3.3-2.1C827.1,324.8,825.6,322.2,824,323.3
			L824,323.3z"/>
	</g>
</g>
<g>
	<path fill="#FFFFFF" class="shape" d="M561.2,308c3.7,1.4,7.9-1,9.9-4.4c2-3.4,2.2-7.5,2.4-11.4c0.1-3.9,0.2-8,1.9-11.6c0.3-0.6,0.7-1.3,0.7-1.9
		c0.1-2-2.4-2.9-4.4-3.2c-4.1-0.6-8.8-1-12.1,1.7c-1.4,1.1-2.3,2.6-3.3,4.1c-4.1,6.6-8.1,13.7-8.2,21.4c0,1,0.1,2.2,0.7,3
		c0.6,0.8,1.6,1.2,2.6,1.6c3.7,1.4,7.9,2.8,11.6,1.4"/>
	<g>
		<path d="M560.8,309.4c3.2,1.1,6.6,0,9.2-2.2c2.8-2.3,4.1-5.9,4.6-9.4c0.6-3.9,0.3-7.9,0.9-11.9c0.3-2,1-3.7,1.7-5.6
			c0.6-1.5,0.6-3.2-0.6-4.4c-2.2-2.3-6.3-2.4-9.2-2.5c-3.5-0.1-7.1,0.7-9.6,3.3c-1.3,1.3-2.2,2.9-3.2,4.5c-1,1.7-2.1,3.4-3,5.2
			c-1.9,3.5-3.5,7.2-4.3,11.1c-0.4,2-0.7,4.2-0.5,6.3c0.3,2.2,1.6,3.6,3.6,4.4c4.1,1.7,8.8,3.2,13.1,1.6c1.8-0.6,1-3.5-0.8-2.9
			c-3.3,1.2-6.8,0.1-10-1.1c-1.3-0.5-2.7-0.8-3-2.3c-0.3-1.6,0.1-3.5,0.4-5.1c1.2-6.3,4.6-12.1,8.1-17.4c1.6-2.5,3.6-4.2,6.7-4.6
			c2.6-0.3,5.8-0.2,8.3,0.7c1.2,0.4,1.7,0.9,1.2,2.1c-0.7,1.6-1.3,3.1-1.6,4.9c-0.6,3.1-0.6,6.3-0.7,9.5c-0.2,3.4-0.6,7.1-2.7,9.9
			c-1.8,2.3-4.8,3.8-7.7,2.8C559.8,305.9,559,308.8,560.8,309.4L560.8,309.4z"/>
	</g>
</g>
<g>
	<path fill="#FFFFFF" class="shape" d="M586.7,273.1c-1.2,2.5-2.4,5.6-0.9,7.9c1.4,2.1,4.3,2.5,6.8,2.6c1.1,0.1,2.4,0.1,3.3-0.6
		c0.7-0.5,1.1-1.2,1.7-1.8c1.1-1,2.6-1.2,4-1.6c3.2-0.8,6.2-2.3,9.2-3.8c0.6-0.3,1.2-0.6,1.7-1.2c0.4-0.6,0.5-1.3,0.6-2
		c0.3-2.3,0.6-4.6,0.9-6.9c0-0.4,0.1-0.8,0-1.2c-0.1-0.5-0.4-0.9-0.8-1.3c-2.2-2-5.7-1.2-8.5-0.3c-5.4,1.9-10.7,4.1-15.7,6.8
		c-1.1,0.6-2.3,1.2-2.9,2.3"/>
	<g>
		<path d="M585.4,272.4c-1.2,2.5-2.5,5.6-1.4,8.4c0.9,2.5,3.3,3.7,5.8,4.1c2.5,0.4,5.6,0.8,7.6-1c0.5-0.4,0.8-1,1.3-1.4
			c0.5-0.4,1.1-0.6,1.8-0.8c1.5-0.4,3.1-0.8,4.6-1.3c1.4-0.5,2.8-1.1,4.1-1.8c1.3-0.6,2.9-1.2,3.9-2.1c1.1-1,1.3-2.2,1.5-3.6
			c0.2-1.8,0.5-3.6,0.7-5.4c0.2-1.4,0.5-2.8-0.3-4.1c-0.7-1.1-2-1.9-3.3-2.3c-2.7-0.8-5.6,0.1-8.1,1c-3.5,1.2-6.9,2.6-10.2,4.2
			c-1.7,0.8-3.3,1.6-5,2.5c-1.4,0.8-2.7,1.6-3.6,3c-1,1.6,1.6,3.2,2.6,1.5c0.5-0.9,1.4-1.3,2.3-1.8c1.2-0.7,2.5-1.3,3.7-1.9
			c2.3-1.1,4.7-2.1,7.1-3.1c2.3-0.9,4.6-1.9,7-2.4c1.4-0.3,5-0.6,5.1,1.6c0,1.3-0.3,2.6-0.5,3.9c-0.2,1.3-0.2,2.8-0.6,4.1
			c-0.3,0.9-1.4,1.2-2.2,1.6c-1.2,0.6-2.3,1.1-3.5,1.7c-2.2,1-4.6,1.3-6.8,2.2c-1,0.4-1.9,0.8-2.6,1.6c-0.8,0.9-1.2,1.6-2.5,1.7
			c-1.9,0.1-4.8,0-6.3-1.4c-1.9-1.8-0.4-4.9,0.5-6.9C588.8,272.2,586.2,270.6,585.4,272.4L585.4,272.4z"/>
	</g>
</g>
<g>
	<path fill="#FFFFFF" class="shape" d="M751.6,267.2c0.2,1.5,1.4,2.6,2.8,3.2c1.4,0.6,2.9,0.7,4.3,0.8c1.1,0.1,2.2,0.3,3.1,0.9
		c0.5,0.3,0.9,0.7,1.3,1c2.4,1.6,6,0.8,7.5-1.6c1.5-2.5,0.5-6.1-2.1-7.4c-0.3-0.2-0.7-0.3-0.8-0.7c-0.1-0.2-0.1-0.5,0-0.7
		c0.5-3.2,0.9-6.4,1.4-9.7c0.3-1.9,0.6-3.8,1.3-5.5c1.2-2.9,3.5-5.2,5.4-7.6c2-2.4,3.7-5.3,3.6-8.4c0-0.5-0.1-1-0.4-1.4
		c-0.3-0.4-0.8-0.6-1.2-0.8c-4.3-1.8-9.1-1.9-13.8-1.9c-2.6,0-5.3,0-7.6,1.3c-3.9,2.3-4.7,7.9-3.2,12.2c1,2.7,2.7,5.3,2.7,8.2
		c0,2.3-1.1,4.4-2,6.6c-1.5,3.7-2.4,7.7-2.5,11.8"/>
	<g>
		<path d="M750.2,267.6c0.4,2.2,2.2,3.7,4.2,4.4c2.3,0.8,5,0.3,7,1.7c1.8,1.3,3.5,2,5.7,1.7c1.8-0.3,3.6-1.3,4.6-2.8
			c1.1-1.6,1.3-3.8,0.8-5.7c-0.3-0.9-0.7-1.7-1.2-2.4c-0.3-0.3-0.5-0.6-0.9-0.9c-0.2-0.2-1.3-0.7-1.4-0.9c0.2,0.5,0.3-0.5,0.3-0.5
			c0.1-0.3,0.1-0.8,0.2-1.2c0.1-0.6,0.2-1.3,0.3-1.9c0.2-1.5,0.4-3.1,0.7-4.6c0.4-2.4,0.6-5,1.8-7.2c2.2-4.2,6.4-7.1,8.1-11.7
			c0.7-1.9,1.3-4.9-0.3-6.6c-1.6-1.6-4.8-2.2-6.9-2.5c-2.6-0.4-5.2-0.5-7.9-0.5c-2.4,0-4.9-0.1-7.2,0.6c-4.2,1.2-6.5,4.9-6.8,9.1
			c-0.2,2.4,0.3,4.7,1.2,6.9c1,2.4,2.5,4.9,2.1,7.6c-0.4,2.9-2.1,5.6-2.9,8.4c-0.9,3-1.4,6-1.5,9.1c-0.1,1.9,2.9,1.9,3,0
			c0.2-4.8,1.6-9.1,3.4-13.6c0.8-2.1,1.3-4.2,0.9-6.4c-0.3-2.1-1.3-3.9-2.1-5.8c-1.3-3.1-1.7-6.9,0.2-9.9c2.3-3.5,7.3-3,10.9-2.9
			c2.3,0,4.6,0.1,6.8,0.6c1,0.2,2,0.5,3,0.8c0.4,0.1,1.3,0.3,1.6,0.7c0.3,0.3,0.2,1,0.2,1.4c-0.3,4.2-4,7.4-6.4,10.5
			c-1.3,1.7-2.4,3.5-3,5.5c-0.6,2.2-0.9,4.5-1.2,6.7c-0.4,2.4-0.7,4.8-1.1,7.2c-0.1,1,0,1.9,0.8,2.6c0.7,0.6,1.4,0.8,2,1.6
			c1,1.3,1.1,3.4,0,4.7c-1,1.3-3.1,1.7-4.6,1.1c-1-0.4-1.7-1.3-2.7-1.7c-1.1-0.5-2.2-0.6-3.4-0.8c-2-0.2-5-0.4-5.4-2.9
			C752.7,264.9,749.9,265.7,750.2,267.6L750.2,267.6z"/>
	</g>
</g>
<g>
	<path fill="#FFFFFF" class="shape" d="M836.5,230.6c0.7-0.9,1.2-2,1.4-3.2c0-0.2,0.1-0.5-0.1-0.7c-0.2-0.2-0.4-0.3-0.7-0.3
		c-2.6-0.4-5.2,0.1-7.7,0.6c-6.9,1.4-14.1,2.9-19.4,7.5c-0.5,0.4-0.9,0.8-1.2,1.4c-0.2,0.5-0.2,1.1-0.2,1.7c0,2.3,0.1,4.6,0.8,6.7
		c0.7,2.2,2.1,4.2,4.2,5.1c2.2,1,4.8,0.6,7-0.4s4-2.7,5.8-4.3c3.5-3.1,7.2-6.5,8.8-10.9c0.4-1.2,0.7-2.6,1.1-3.8"/>
	<g>
		<path d="M837.7,231.4c0.8-1.1,1.5-2.6,1.6-3.9c0.1-1.7-1-2.4-2.5-2.6c-3.4-0.4-6.8,0.5-10,1.1c-5.8,1.2-11.8,2.8-16.6,6.4
			c-1,0.8-2.1,1.6-2.6,2.7c-0.7,1.5-0.5,3.6-0.4,5.2c0.2,3,1,6,3,8.4c2,2.3,5,3.2,8,2.7c3.1-0.5,5.7-2.4,8.1-4.4
			c2.6-2.2,5.2-4.5,7.3-7.2c1-1.3,1.9-2.6,2.5-4c0.8-1.7,1.2-3.5,1.7-5.3c0.5-1.9-2.4-2.7-2.9-0.8c-0.7,2.4-1.2,4.7-2.6,6.9
			c-1.3,2-3,3.7-4.7,5.3c-3.2,3-7.8,8-12.7,6.5c-2.2-0.7-3.5-2.7-4.1-4.8c-0.4-1.3-0.5-2.6-0.6-3.9s-0.4-2.9,0.6-3.9
			c3.3-3.2,8.1-4.8,12.4-5.9c2.6-0.7,5.3-1.2,8-1.7c1.6-0.3,3.3-0.5,4.9-0.4c0.1,0,0.8,0.1,0.8,0.1c-0.2-0.2-0.4-0.3-0.6-0.5
			c0,0.2-0.1,0.4-0.2,0.6c-0.2,0.7-0.6,1.3-1,1.9C834.1,231.4,836.7,232.9,837.7,231.4L837.7,231.4z"/>
	</g>
</g>
<g>
	<path fill="#FFFFFF" class="shape" d="M1106.5,558.5c0.9-5.8-2-10-6-14c-3.7-3.7-8.3-4.7-13.4-5.9c-6.3-1.5-12.6-3-18.8-4.4c-2.3-0.5-4.9-1.1-7,0
		c-3.5,1.7-4,6.9-1.9,10.2c2.1,3.3,5.9,5,9.6,6.2c3.7,1.3,7.6,2.3,10.6,4.8c3.5,2.9,5.4,7.6,9.1,10.2c6.3,4.4,16.6,0.2,17.9-7.4"/>
	<g>
		<path d="M1108,558.5c0.6-4.6-1.1-8.8-4-12.4c-3-3.7-6.5-6.2-11.1-7.6c-5.3-1.6-10.7-2.6-16.1-3.9c-2.9-0.7-5.7-1.4-8.6-2
			c-2.4-0.5-5-1-7.4,0c-3.7,1.6-4.9,6.1-3.9,9.7c1.2,4.4,5.2,7,9.2,8.6c4.5,1.8,9.7,2.6,13.3,6.1c3.3,3.2,5.2,7.7,9.2,10.1
			C1095.8,571.5,1106.5,566.7,1108,558.5c0.4-1.9-2.5-2.8-2.9-0.9c-1.1,6-8.4,9.8-14.1,7.5c-3.5-1.5-5.5-5.3-7.8-8.1
			c-2.8-3.5-6.5-5.4-10.7-6.9c-3.8-1.3-8-2.3-10.9-5.3c-2.1-2.2-3.2-6.1-0.9-8.6c1.5-1.6,3.9-1.3,5.8-0.9c2.5,0.5,5,1.2,7.5,1.8
			c4.9,1.2,9.8,2.3,14.7,3.5c2.1,0.5,4.3,1.1,6.3,2c2.1,1,3.8,2.4,5.4,4.1c3.1,3.3,5.1,7.2,4.5,11.8c-0.1,0.8,0.8,1.5,1.5,1.5
			C1107.4,560,1107.9,559.3,1108,558.5L1108,558.5z"/>
	</g>
</g>
<g>
	<path fill="#FFFFFF" class="shape" d="M892.9,509.8c-1.8-8.2,2.7-16.2,5.1-24.3c3.9-12.8,2.7-26.4,2.7-39.8c0-18.9,2.6-37.7,7.6-55.9
		c0.4-1.6,1-3.2,2.2-4.3c3-2.6,8,0.5,8.8,4.4c0.9,3.8-0.8,7.7-2.1,11.5c-4,11.5-4.3,23.9-5.2,36c-1.7,22.6-5.6,45-11.7,66.9
		c-1.4,5.2-3.2,10.7-7.4,14.1c0-3,0-6.1,0.1-9.1"/>
	<g>
		<path d="M894.3,509.4c-1.8-8.6,3.3-16.8,5.5-24.8c2.4-8.5,2.6-17.4,2.5-26.2c-0.1-8.9-0.3-17.8,0.3-26.8
			c0.6-9.1,1.9-18.2,3.7-27.1c0.9-4.5,2-8.9,3.2-13.3c0.4-1.6,0.8-3.8,2.3-4.7c1.1-0.7,2.6-0.3,3.6,0.4c3.4,2.2,2.9,6.4,1.9,9.7
			c-1.3,4.2-2.8,8.2-3.8,12.6c-1.8,8.5-2.2,17.2-2.9,25.9c-0.6,9.1-1.6,18.2-3,27.3c-1.4,9.1-3.1,18.1-5.1,27
			c-1,4.5-2.1,8.9-3.4,13.3c-1,3.6-2,7.3-3.9,10.6c-0.9,1.5-2.1,2.9-3.4,4c0.9,0.4,1.7,0.7,2.6,1.1c0-3,0-6.1,0.1-9.1
			c0-1.9-3-1.9-3,0c0,3,0,6.1-0.1,9.1c0,1.4,1.6,1.9,2.6,1.1c3-2.5,4.9-5.9,6.2-9.6c1.5-4.1,2.5-8.4,3.6-12.7
			c2.4-9.3,4.3-18.8,5.9-28.3c1.6-9.5,2.8-19,3.6-28.6c0.8-9.3,1-18.6,2.7-27.8c0.8-4.6,2.1-8.9,3.7-13.3c1.3-3.7,2.5-8.4,0.2-12
			c-1.7-2.6-4.9-4.7-8.1-3.8c-4,1.1-4.8,6-5.7,9.4c-4.8,18.5-7,37.6-6.8,56.8c0.1,9.3,0.6,18.7-0.9,28c-0.7,4.6-2.1,8.9-3.7,13.3
			c-1.5,4.2-3.1,8.5-3.6,13c-0.2,2.2-0.1,4.4,0.4,6.5C891.8,512.1,894.7,511.3,894.3,509.4L894.3,509.4z"/>
	</g>
</g>
<g>
	<path fill="#FFFFFF" class="shape" d="M1015.1,454.2c0.9-2.6-0.5-5.6-2.7-7.2s-5-2.2-7.8-2.5c-4.1-0.4-8.7,0-11.3,3.2c-2.6,3.2-2,8.3,0.5,11.7
		s6.2,5.6,9.9,7.5s7.5,3.9,10.2,7.2c2.6,3.1,4,7.2,5.1,11.1c1.6,5.9,3.1,12.1,7.1,16.7c4,4.6,11.6,6.8,16.3,2.8
		c3.4-2.9,4.1-8,2.9-12.2c-1.2-4.3-4-7.9-6.7-11.4c-4.4-5.7-8.8-11.5-14.3-16.2c-4.3-3.7-9.5-7.3-10.4-12.8"/>
	<g>
		<path d="M1016.5,454.6c0.8-2.9-0.2-5.9-2.3-8c-2.3-2.3-5.7-3.2-8.8-3.6c-5.6-0.7-12.6,0.2-14.8,6.3c-2.2,6.1,1.9,12,6.7,15.4
			c5.2,3.7,12,5.5,15.9,10.8c4,5.3,4.6,12.5,6.9,18.6c2.1,5.8,5.6,11,11.5,13.2c5.3,1.9,11.5,0.6,14.2-4.7c3-5.7,1-12.2-2.3-17.3
			c-2.1-3.2-4.6-6.3-6.9-9.3c-2.5-3.2-5.1-6.3-8-9.2c-2.6-2.6-5.5-4.8-8.1-7.2c-2.4-2.2-4.6-4.7-5.2-8c-0.4-1.9-3.3-1.1-2.9,0.8
			c1,5.4,5.4,9,9.4,12.3c4.9,4.1,9,8.9,13,13.9c3.6,4.6,8.1,9.5,9.3,15.4c1,4.8-1.1,10.6-6.5,11.3c-5.2,0.7-9.9-2.8-12.4-7
			c-3-5.1-4-11-5.8-16.5c-0.9-2.9-2.1-5.7-4-8.1c-1.7-2.3-4-4-6.4-5.5c-4.8-2.9-11-5-14.2-9.9c-1.5-2.3-2.3-5.4-1.3-8.1
			c1.1-2.8,3.9-4,6.7-4.3c3-0.3,6.5,0,9.3,1.1c2.7,1.1,5.1,3.7,4.2,6.8C1013.1,455.7,1016,456.5,1016.5,454.6L1016.5,454.6z"/>
	</g>
</g>
<g>
	<path fill="#FFFFFF" class="shape" d="M1040,367.2c-2.4-5.6-9.6-6.8-14.4-10.6c-2.4-1.9-4.2-4.6-5.8-7.3c-12.1-20-16.7-44.5-12.7-67.5
		c4.4,0.2,6.5,5.4,7,9.7c0.8,7,0.3,14.1,1.8,21c4.4,20.1,24.4,33.2,31.8,52.4c0.5,1.2,0.9,2.6,0.2,3.7c-0.9,1.4-3.1,1.3-4.4,0.3
		c-1.3-1.1-1.8-2.7-2.3-4.3"/>
	<g>
		<path d="M1041.3,366.4c-2.2-4.9-7.5-6.7-11.9-9.2c-5.6-3.1-8.6-8.8-11.4-14.3c-6.1-11.8-9.7-24.9-10.5-38.1
			c-0.5-7.5-0.2-15.2,1.1-22.6c-0.5,0.4-1,0.7-1.4,1.1c2.8,0.2,4.2,3.1,4.9,5.5c1.1,3.7,1,7.8,1.1,11.6c0.2,4.2,0.4,8.5,1.3,12.7
			c0.7,3.2,1.8,6.3,3.2,9.2c5.7,11.9,15.5,21.2,22.7,32.1c2,3.1,3.9,6.2,5.3,9.6c0.4,1,2.1,4.2-0.1,4.2c-1.9,0-2.6-2.6-3.1-4
			c-0.6-1.8-3.5-1.1-2.9,0.8c0.6,1.9,1.3,3.8,2.9,5.1c1.3,1,3.1,1.4,4.7,0.9c4.4-1.6,1.8-6.9,0.5-9.8c-3.1-6.7-7.7-12.7-12.2-18.5
			c-4.6-5.8-9.3-11.5-13-17.8c-1.8-3.1-3.3-6.4-4.4-9.8c-1.3-4.4-1.7-8.9-1.9-13.5c-0.2-4.7,0-9.9-1.6-14.4
			c-1.2-3.5-3.6-6.6-7.5-6.9c-0.6,0-1.3,0.5-1.4,1.1c-2.3,13.5-1.8,27.4,1.4,40.7c1.6,6.5,3.8,12.8,6.6,18.9c1.4,3.1,3,6.1,4.8,9.1
			c1.7,2.9,3.6,5.7,6.3,7.8c4.4,3.4,11.5,4.6,13.9,10.1C1039.5,369.7,1042.1,368.2,1041.3,366.4L1041.3,366.4z"/>
	</g>
</g>
<g>
	<path fill="#FFFFFF" class="shape" d="M898.5,292.5c-1.7,1.4,0.3,5,1.9,6.6c1.5,1.5,3.8,2.1,5.9,2.5c1.7,0.4,3.4,0.8,5.2,1.2
		c3,0.7,6.4,1.3,9.1-0.1c2.5-1.3,3.8-4,5-6.6c6-14,9.5-29,10.3-44.2c0-0.7,0-1.4-0.4-2c-0.4-0.5-1.1-0.7-1.7-0.8
		c-3.5-0.3-6.2,2.8-8.3,5.6C915.9,267.1,907.9,280.1,898.5,292.5"/>
	<g>
		<path d="M897.4,291.4c-2.9,2.8,0.5,7.9,3,9.6c2,1.3,4.5,1.8,6.8,2.3c2.5,0.6,5,1.2,7.5,1.5c2.4,0.3,5,0.1,7.1-1.3
			c1.7-1.2,3-2.9,3.9-4.8c2.3-4.6,4.1-9.7,5.6-14.6c3.2-10.3,5.2-21.1,5.8-31.9c0.1-2.3-0.5-4.3-3-4.7c-2.1-0.3-4.2,0.4-5.8,1.7
			c-1.8,1.3-3.2,3-4.5,4.8c-1.7,2.2-3.3,4.5-4.9,6.8c-7.3,10.3-14.1,20.8-21.7,30.9c-1.2,1.5,1.4,3,2.6,1.5
			c5.8-7.7,11.2-15.7,16.6-23.6c2.7-3.9,5.5-7.9,8.3-11.7c1.9-2.6,4.6-7.3,8.4-7.4c1.1,0,1.2,0.3,1.1,1.3c0,1.2-0.1,2.3-0.2,3.5
			c-0.2,2.3-0.4,4.7-0.7,7c-0.6,4.7-1.5,9.4-2.7,14c-1.1,4.5-2.5,9-4.1,13.3c-0.8,2.1-1.6,4.3-2.6,6.4c-0.7,1.7-1.6,3.4-3,4.6
			c-1.8,1.6-4.3,1.6-6.6,1.3c-2.6-0.4-5.1-1.1-7.7-1.7c-2-0.4-4.1-0.9-5.5-2.4c-0.6-0.7-2.5-3.2-1.6-4.1
			C900.9,292.2,898.8,290.1,897.4,291.4L897.4,291.4z"/>
	</g>
</g>
<g>
	<path fill="#FFFFFF" class="shape" d="M891.1,242.3c-0.5-0.6-1.4-0.6-2-0.2c-0.6,0.4-1,1.1-1.4,1.7c-1.3,2.4-2.6,4.8-4,7.2
		c-0.6,1.1-1.3,2.3-1.4,3.6c-0.2,1.3,0.3,2.7,1.4,3.4c0.7,0.4,1.6,0.4,2.4,0.5c2.8,0.1,5.5,0.2,8.3,0.3c0.6,0,1.2,0,1.7-0.2
		c0.8-0.4,1.3-1.3,1.6-2.1c1.8-5.3-0.7-11.7-5.6-14.3"/>
	<g>
		<path d="M892.1,241.2c-1.5-1.7-3.9-0.8-5.1,0.8c-0.6,0.9-1.1,1.9-1.6,2.8c-0.6,1.1-1.2,2.1-1.7,3.2c-1.1,2-2.5,4-2.8,6.2
			c-0.3,1.9,0.4,4.1,2.1,5.1c0.9,0.5,1.9,0.6,2.9,0.7c1.3,0.1,2.6,0.1,3.9,0.1c1.1,0,2.2,0.1,3.3,0.1c1.2,0,2.6,0.2,3.8-0.3
			c1.7-0.8,2.4-2.9,2.7-4.6c0.3-1.7,0.3-3.5,0-5.2c-0.7-3.8-3.2-7.3-6.6-9.3c-1.7-0.9-3.2,1.7-1.5,2.6c4.3,2.4,6.6,8,4.9,12.6
			c-0.2,0.4-0.3,1-0.8,1.2c-0.6,0.3-1.7,0-2.4,0c-1.9-0.1-3.8-0.1-5.6-0.2c-1.2,0-3,0.3-3.5-1.1c-0.5-1.4,0.4-2.9,1-4
			c1-1.8,2-3.6,3-5.4c0.2-0.3,1.8-3.4,2.1-3.1C891.3,244.8,893.4,242.6,892.1,241.2L892.1,241.2z"/>
	</g>
</g>
<g>
	<path fill="#FFFFFF" class="shape" d="M1276.2,404.7c-3-0.1-5.7,1.6-8.3,3.1c-6.2,3.6-12.7,6.5-19.6,8.6c-1.7,0.5-3.4,1-5.1,0.9
		c-2.7-0.1-5.3-1.4-7.8-2.5c-5.7-2.4-12-3.5-18.3-3.1c-1.6,0.1-3.3,0.4-4.4,1.6c-1.4,1.7-0.8,4.2,0.2,6.2
		c4.7,8.6,15.5,11.3,25.1,13.3c1.6,0.3,3.2,0.6,4.8,0.6c3.2,0,6.3-1.3,9.3-2.5c3.3-1.4,6.8-2.8,9.5-5.3c1.9-1.7,3.4-3.9,5.3-5.8
		c2.1-2.1,4.7-3.6,6.8-5.7c2.1-2.1,3.7-5.1,3-8"/>
	<g>
		<path d="M1276.2,403.2c-2.7,0-5.2,1.1-7.5,2.4c-2.5,1.4-4.9,2.8-7.5,4.1c-2.6,1.3-5.3,2.4-8,3.4c-2.7,1-5.5,2.2-8.4,2.6
			c-2.9,0.4-5.5-0.9-8.1-2c-2.6-1.1-5.3-2-8.1-2.6c-2.8-0.6-5.7-0.9-8.5-0.9c-2.4,0-5.3-0.1-7.3,1.3c-4.4,3.1-1.1,9.1,1.6,12.1
			c2.9,3.4,6.9,5.6,11,7.2c4.3,1.7,9,2.7,13.5,3.6c3,0.6,5.8,0.6,8.7-0.2c2.7-0.7,5.3-1.9,7.9-3c2.8-1.2,5.5-2.7,7.8-4.8
			c2.2-2.1,3.9-4.6,6.2-6.6c2.3-1.9,4.8-3.4,6.7-5.8c1.9-2.4,2.9-5.2,2.3-8.2c-0.4-1.9-3.3-1.1-2.9,0.8c1.1,5-4.8,8.3-8,10.9
			c-1.9,1.6-3.4,3.5-5,5.3c-1.7,1.9-3.6,3.3-5.8,4.5c-2.2,1.1-4.5,2.1-6.8,3c-2.5,1-5,1.7-7.7,1.5c-2.3-0.2-4.6-0.8-6.9-1.3
			c-2.1-0.5-4.1-1-6.2-1.6c-3.8-1.2-7.6-2.8-10.7-5.5c-1.5-1.3-2.7-2.7-3.7-4.4c-0.9-1.5-1.9-4.3,0.2-5.3c2-0.9,4.9-0.6,7-0.5
			c2.6,0.1,5.2,0.5,7.7,1.2c2.6,0.7,5,1.6,7.5,2.7c2.2,1,4.6,1.8,7.1,1.7c3-0.1,5.9-1.3,8.7-2.3c2.7-1,5.3-2,7.9-3.2
			c2.6-1.2,5.2-2.5,7.7-4c2.5-1.4,5-3.1,7.9-3.1C1278.1,406.2,1278.1,403.2,1276.2,403.2L1276.2,403.2z"/>
	</g>
</g>
<g>
	<path fill="#FFFFFF" class="shape" d="M802.5,552.5c1,17-2.5,34-12.1,47.1c-9.1-6.6-7.8-20.1-7.2-31.4c1.5-24.6-5.2-49.7-18.6-70.4
		c-9.7-14.9-22.8-27.6-30.4-43.7c-2.4-5.1-2.9-13.2,2.7-14.4c5.2-1.1,8.2,5.3,11,9.8c5.7,9.4,17,13.8,24.2,22.1
		c3.1,3.6,5.3,7.7,7.5,11.9c4.5,8.5,9,17,13.4,25.5C800.5,523.3,804.5,534.5,802.5,552.5"/>
	<g>
		<path d="M801,552.5c0.9,16.2-2.2,33-11.9,46.4c0.7-0.2,1.4-0.4,2.1-0.5c-7.3-5.3-7.1-15.7-6.8-23.8c0.2-5,0.6-10,0.5-15
			c-0.1-5.5-0.6-11.1-1.5-16.6c-1.7-10.9-5-21.5-9.6-31.5c-4.6-10-10.9-19-17.6-27.7c-6.7-8.6-13.7-17-18.8-26.7
			c-2-3.7-3.9-7.7-3.3-11.9c0.2-1.5,0.8-3.1,2.3-3.8c1.6-0.8,3.2-0.3,4.5,0.8c3.3,2.7,4.8,7.1,7.4,10.5c2.9,3.7,6.5,6.7,10.3,9.5
			c3.9,2.9,7.9,5.7,11.2,9.2c3.8,4,6.4,9,8.9,13.8c2.9,5.6,5.9,11.1,8.8,16.7c2.6,5,5.4,10,7.8,15.2c4,8.7,6.3,17.7,6.3,27.3
			C801.5,547,801.3,549.8,801,552.5c-0.2,1.9,2.8,1.9,3,0c1.1-10.3,0.3-20.6-3.4-30.4c-1.8-4.8-4-9.4-6.4-13.9
			c-3.1-5.9-6.2-11.7-9.3-17.6c-2.8-5.4-5.5-11-8.9-16.1c-2.9-4.4-6.7-7.9-10.8-11.1c-3.9-3-8-5.7-11.5-9.1
			c-1.8-1.7-3.3-3.5-4.6-5.6c-1.2-1.9-2.2-3.9-3.6-5.7c-2.5-3.4-6.2-6.3-10.5-4.3c-3.7,1.7-4.4,6.2-3.9,9.8
			c0.6,4.9,3.1,9.3,5.6,13.4c2.9,4.8,6.1,9.4,9.5,13.8c6.9,9,14.3,17.7,20,27.6c5.8,10,10.1,20.9,12.7,32.1
			c2.6,11.2,3.4,22.6,2.7,34.1c-0.5,8.7-1.5,18.9,3.4,26.5c1.2,1.9,2.7,3.4,4.5,4.8c0.7,0.5,1.6,0.1,2.1-0.5
			c10-13.7,13.3-31.2,12.3-47.9C803.9,550.6,800.9,550.6,801,552.5L801,552.5z"/>
	</g>
</g>
<g>
	<path fill="#FFFFFF" class="shape" d="M654.6,313.4c-3.5,0.5-7,1.1-10.5,1.9c-1,0.2-2,0.5-2.9,1.1c-0.8,0.6-1.2,1.4-1.7,2.3
		c-0.8,1.5-1.6,3-2.5,4.5c-1,1.9-2.1,3.8-2.5,5.8c-0.2,0.8-0.3,1.7-0.5,2.5c-0.2,1-0.6,1.9-0.9,2.8c-0.7,1.8-1.4,3.7-2.2,5.5
		c-0.7,1.9-1.5,3.8-2.8,5.4c-0.9,1.1-1.9,2-2.7,3.1c-0.8,1.1-1.3,2.5-0.9,3.8c0.6,1.9,2.9,2.6,4.8,2.7c1.9,0.1,3.8-0.1,5.6-0.3
		c3.7-0.4,7.6-0.9,11-2.6c2.7-1.3,4.9-3.3,7.1-5.3c0.5-0.5,1-1,1.7-1.2c0.5-0.2,1.1-0.2,1.7-0.2c4.8,0.1,9.8,0.6,14.3-1
		c1-0.4,2.1-0.9,2.8-1.7c0.7-0.8,1-2.1,0.6-3.1c-0.4-0.8-1.1-1.3-1.8-1.7c-2.7-1.6-5.8-2.6-8.3-4.5c-4.7-3.5-6.9-9.4-8.9-15
		c-0.5-1.5-1.1-3.1-1.1-4.7"/>
	<g>
		<path fill="#19100F" d="M654.2,311.9c-2.9,0.4-5.7,0.9-8.6,1.5c-2.3,0.5-4.7,0.8-6.3,2.7c-1.6,2-2.7,4.7-4,7
			c-1.3,2.4-2.1,4.6-2.6,7.3c-0.5,2.6-1.7,5.1-2.7,7.6c-0.9,2.4-1.8,4.9-3.6,6.9c-1.6,1.7-3.4,3.5-3.6,6c-0.1,2.2,1.3,3.9,3.3,4.7
			c2.2,0.9,4.6,0.8,6.9,0.6c2.6-0.3,5.1-0.6,7.7-1.1c2.5-0.5,4.9-1.3,7-2.5c2.2-1.3,4.1-3,6-4.7c0.4-0.4,0.8-0.9,1.3-1.1
			c0.5-0.2,1.2-0.1,1.8-0.1c1.4,0,2.7,0.1,4.1,0.1c2.7,0.1,5.4,0,8-0.6c2.2-0.5,4.6-1.3,5.9-3.2c1.3-1.9,1.1-4.3-0.7-5.8
			c-2.1-1.7-4.8-2.5-7.2-3.8c-2.3-1.2-4.2-2.9-5.7-5c-1.5-2.1-2.6-4.5-3.5-6.9c-1-2.5-2.3-5.3-2.3-8c0-1.9-3-1.9-3,0
			c0,2.3,0.9,4.5,1.6,6.6c0.7,2,1.5,3.9,2.3,5.8c1.8,3.7,4.2,7.1,7.8,9.4c1.9,1.2,3.9,2,5.9,3c0.7,0.4,2,0.8,2.5,1.6
			c0.6,0.9-0.4,1.9-1.1,2.4c-3.9,2.3-9.4,1.7-13.7,1.6c-1.1,0-2.4-0.2-3.5,0.2c-1.1,0.3-1.9,1.1-2.7,1.9c-1.7,1.6-3.4,3.1-5.4,4.2
			c-4.1,2.4-9.1,2.8-13.7,3.2c-1.8,0.2-4.2,0.4-5.9-0.7c-2.1-1.4,0.1-3.7,1.2-5c3.4-3.5,4.7-8.3,6.5-12.7c0.4-1.1,0.9-2.3,1.1-3.4
			c0.3-1.3,0.4-2.6,0.9-3.8c1-2.6,2.5-5,3.9-7.4c0.6-1.1,1.1-2.4,2.2-3c1.1-0.6,2.5-0.7,3.7-0.9c2.8-0.6,5.7-1.1,8.6-1.5
			C656.9,314.6,656.1,311.7,654.2,311.9L654.2,311.9z"/>
	</g>
</g>
<g>
	<path fill="#FFFFFF" class="shape" d="M590.1,308.4c-2.5,2.8-1.8,7.1-0.4,10.6c0.8,2.2,2,4.4,4,5.6c1.6,1,3.6,1.2,5.5,1.4c1.7,0.2,3.4,0.3,5,0.1
		c4.9-0.7,8.9-4.7,10.8-9.2c2-4.5,2.3-9.6,2.6-14.6c-4,1.9-8.7,1.7-13.1,2.3c-5.1,0.6-10.1,2.3-15,3.9"/>
	<g>
		<path fill="#19100F" d="M589.1,307.4c-2.7,3.1-2.4,7.3-1.2,11c1.3,4,3.5,7.6,7.8,8.6c4.1,0.9,8.8,1.2,12.6-0.7
			c3.5-1.7,6.2-4.9,7.8-8.4c2.3-4.9,2.7-10.3,2.9-15.6c0.1-1.2-1.3-1.7-2.3-1.3c-4.3,1.9-9.1,1.6-13.7,2.3
			c-4.8,0.7-9.4,2.2-14.1,3.8c-1.8,0.6-1,3.5,0.8,2.9c4.8-1.6,9.6-3.2,14.6-3.8c4.7-0.6,9.4-0.5,13.9-2.5c-0.8-0.4-1.5-0.9-2.3-1.3
			c-0.3,7-1,15.1-6.9,19.9c-2.8,2.3-5.9,2.6-9.4,2.3c-1.7-0.1-3.7-0.2-5.2-1.1c-1.5-0.9-2.4-2.4-3.1-3.9c-1.3-2.9-2.7-7.3-0.3-10
			C592.4,308.1,590.3,305.9,589.1,307.4L589.1,307.4z"/>
	</g>
</g>
<g>
	<path fill="#FFFFFF" class="shape" d="M1184.6,302c0.9,3.5,3.6,6.7,7.2,7.5c3.7,0.8,7.5,0.1,11.2-0.1c0.7,0,1.4,0,2,0.4c0.8,0.6,0.8,1.6,0.8,2.6
		c0,2.3,0,4.5,0,6.8c0,0.6,0,1.2-0.2,1.7c-0.7,1.8-3.3,1.8-5.2,1.5c-17.8-2.9-35.8-5.8-53.7-3.4c-1.6,0.2-3.5,0.3-4.3-1.1
		c-0.5-0.9-1-1.5-1-2.4c0-3.6,0.3-9,4-10c2.2-0.6,2.9-0.7,5,0c3,1,2,1,5,2c0.6,0.2,8.4-0.7,9-1c2-1,2.9-3.2,3-4c1-7,0-7-1.5-13.1
		c-0.9-3.6-5.4-5.1-8.7-6.9s-6.6-3.7-8.7-6.8c-2.1-3.1-2.5-7.6,0.1-10.3c1.7-1.7,4.2-2.3,6.6-2.5c8.1-0.7,16.1,3.3,24.1,2.2
		c4.1-0.6,8.6-0.4,13.1-0.6c2.1-0.1,4.6,0.3,6.3,1.5c1.9,1.4,2.5,3.8,3,6.1c0.2,1-0.1,2.4-0.3,3.4c-0.2,0.9-0.2,1.1-0.7,1.8
		c-1.7,2.3-5,4.3-7.3,6.2c-2.9,2.4-5,4.5-7.1,7.6c-2.1,3.1-2.8,7.1-1.7,10.7"/>
	<g>
		<path d="M1183.2,302.4c1.1,4.1,4.2,7.7,8.5,8.6c2.7,0.6,5.4,0.4,8.1,0.2c1.2-0.1,2.6-0.4,3.8-0.3c1.2,0.1,0.8,2,0.8,2.9
			c0,1.3,0,2.6,0,3.9c0,1,0.4,2.6-0.7,3.1c-0.8,0.3-1.8,0.2-2.6,0.1c-1.4-0.2-2.7-0.4-4.1-0.7c-5.6-0.9-11.3-1.8-17-2.4
			c-5.8-0.7-11.6-1.2-17.4-1.2c-2.8,0-5.7,0-8.5,0.2c-2.8,0.2-5.5,0.7-8.3,0.8c-0.7,0-1.5,0.1-2-0.5c-0.8-0.9-0.8-1.9-0.8-2.9
			c0-1.7,0.2-3.5,0.8-5.1c0.7-1.7,2.1-2.4,3.9-2.6c1.6-0.2,3.3,0.7,4.8,1.4c1.2,0.6,2.5,1.2,3.9,1.1c1.4-0.1,2.8-0.2,4.2-0.4
			c1.3-0.2,2.7-0.3,3.9-0.6c1.6-0.4,2.9-1.8,3.7-3.1c0.9-1.7,1.1-3.6,1.2-5.5c0.1-1.6,0-3.2-0.3-4.8c-0.4-1.8-1-3.5-1.5-5.3
			c-0.5-2-1.5-3.4-3.1-4.7c-1.6-1.2-3.4-2-5.2-2.9c-2-1-4.1-2.2-5.9-3.6c-3.2-2.3-6.5-6.7-4.3-10.7c1-2,3.3-2.7,5.4-3
			c2.5-0.4,5.2-0.2,7.7,0.2c5.2,0.8,10.4,2.4,15.8,2c2.7-0.2,5.3-0.5,8-0.6c2.7-0.1,5.5-0.3,8.2-0.1c2.3,0.2,4.4,1,5.3,3.1
			c0.9,2,1.1,3.9,0.7,6c-0.4,2-2.4,3.4-4,4.6c-1.8,1.3-3.6,2.6-5.3,4.1c-3.4,3-6.9,6.9-7.9,11.4c-0.5,2.3-0.4,4.6,0.2,6.9
			c0.5,1.9,3.4,1.1,2.9-0.8c-0.7-2.5-0.5-5.1,0.4-7.4c1-2.3,2.7-4.4,4.5-6.1c1.7-1.8,3.7-3.3,5.7-4.8c1.9-1.4,3.9-2.8,5.3-4.7
			c1.1-1.5,1.5-4,1.4-5.8c-0.2-2.2-1-4.8-2.4-6.5c-1.6-1.9-4.1-2.7-6.5-2.9c-2.8-0.3-5.8,0-8.6,0.1c-2.8,0.1-5.6,0.5-8.4,0.6
			c-2.8,0.1-5.6-0.3-8.3-0.8c-5.4-1-11-2.4-16.5-1.2c-4.8,1-7.8,4.9-7.1,9.8c0.7,5,4.6,8.3,8.7,10.8c2,1.2,4,2.2,6,3.3
			c1.7,0.9,3.6,1.9,4.3,3.8c0.6,1.8,1.1,3.8,1.6,5.6c0.4,1.6,0.4,3.2,0.3,4.9c-0.2,1.8-0.4,4.2-2.2,5.1c-0.9,0.4-2.2,0.4-3.1,0.6
			c-1.5,0.2-3,0.4-4.6,0.4c-0.2,0-0.4,0-0.6,0c-0.1,0-0.4-0.1,0,0c0.6,0.1-0.7-0.3-0.7-0.3c-0.6-0.2-1.2-0.5-1.8-0.8
			c-1.9-0.9-4.1-1.7-6.3-1.3c-2.1,0.3-3.9,1.1-5.1,2.8c-1.1,1.6-1.5,3.6-1.7,5.5c-0.2,2.1-0.4,4.2,0.7,6.1c1.2,2,2.9,2.8,5.2,2.6
			c3-0.2,5.9-0.7,8.8-0.8c6.1-0.3,12.2-0.1,18.3,0.4c6.2,0.5,12.3,1.4,18.4,2.3c3,0.5,6,1,9,1.4c1.9,0.3,4.2,0.2,5.7-1.2
			c0.8-0.8,1.1-1.9,1.1-3c0.1-1.6,0-3.2,0-4.8c0-2.3,0.4-5.6-2.2-6.6c-1.1-0.4-2.3-0.2-3.5-0.2c-1.6,0.1-3.1,0.3-4.7,0.3
			c-2.5,0.1-5.3,0-7.4-1.5c-1.8-1.3-2.9-3.2-3.5-5.2C1185.6,299.8,1182.7,300.6,1183.2,302.4L1183.2,302.4z"/>
	</g>
</g>
<g>
	<path fill="#FFFFFF" class="shape" d="M1145.3,319.1c-0.3,1.2,1.2,2,2.4,2.3c12.3,3.4,25.2,3.9,38,4.3c4.9,0.2,10.2,0.3,14.4-2.3
		c-14.4-3-29.2-4.4-44-4.4c-3.6,0-7.4,0.1-10.8,1.4"/>
	<g>
		<path d="M1143.9,318.7c-0.5,4,4.7,4.6,7.5,5.2c4.1,0.9,8.3,1.6,12.5,2c8.2,0.9,16.6,1.3,24.9,1.4c4.2,0,8.4-0.4,12-2.6
			c1.1-0.6,0.9-2.5-0.4-2.7c-9.3-1.9-18.6-3.2-28.1-3.9c-4.7-0.3-9.4-0.5-14.1-0.6c-4.5,0-9.1-0.1-13.3,1.5c-1.8,0.7-1,3.6,0.8,2.9
			c4.1-1.5,8.5-1.4,12.8-1.4c4.6,0,9.2,0.2,13.8,0.6c9.2,0.7,18.3,1.9,27.3,3.8c-0.1-0.9-0.2-1.8-0.4-2.7c-3.6,2.1-7.9,2.3-12,2.2
			c-4.7-0.1-9.3-0.3-14-0.6c-4.7-0.3-9.5-0.7-14.2-1.4c-2.3-0.4-4.7-0.8-7-1.3c-1.1-0.2-2.1-0.5-3.2-0.8c-0.5-0.1-1-0.2-1.5-0.4
			c-0.3-0.1-0.7-0.6-0.8-0.3c0.1-0.8-0.2-1.6-1-1.8C1145,317.5,1144,317.9,1143.9,318.7L1143.9,318.7z"/>
	</g>
</g>
<g>
	<g>
		<path d="M625.8,745.7c1.9,0,1.9-3,0-3C623.9,742.7,623.9,745.7,625.8,745.7L625.8,745.7z"/>
	</g>
</g>
<g>
	<path fill="#FFFFFF" class="shape" d="M721.5,696.5c-16.5,10.2-35.4,25-50.6,37.1c-9.2,7.4-18.7,15.9-21.9,27.3c-3,10.8,0.5,23.1,8.7,30.6
		c7.9,7.3,18.9,9.8,29.4,12.1c11.6,2.5,23.2,5.1,34.8,7.6c4.7,1,9.7,2.2,13.5,5.1c9.4,7,9.1,20.9,8,32.5c-0.5,5.1-1,10.1-1.5,15.2
		c-0.6,6.6-2.3,14.3-8.5,16.4c-3,1-6,1.7-7,1c-2.1-1.6,1.5-7.1,2.5-9.6c2.8-7.2,5.4-14.5,6-22.1c0.7-7.6-0.8-15.7-5.4-21.8
		c-7.3-9.6-20.3-12.2-32.2-14.1c-7.3-1.2-14.6-2.4-21.9-3.6c-7.3-1.2-14.9-2.5-20.7-7.2c-6.5-5.3-9.3-13.9-11-22.2
		c-1.6-8.3-4.6-13.9-4.4-22.4c0-1.5-0.6-4.6,0-6c0.8-1.7,5.6-6.8,7-8C669.2,725.5,693.4,705.6,721.5,696.5"/>
	<g>
		<path d="M720.7,695.2c-17.4,10.8-33.5,23.5-49.4,36.2c-7.3,5.8-14.6,11.9-19.6,19.9c-4.8,7.8-6.4,17-4.1,25.9
			c2.3,8.8,8.2,16,16.2,20.4c8.5,4.7,18.4,6.5,27.8,8.5c11.1,2.4,22.2,4.6,33.3,7.3c4.5,1.1,8.9,2.7,12.1,6.2
			c2.6,2.9,4,6.6,4.8,10.4c1.8,9,0.3,18.4-0.6,27.3c-0.5,4.6-0.6,9.3-1.9,13.7c-1.1,3.7-3,6.8-6.8,8c-1.2,0.4-2.4,0.7-3.6,0.9
			c-0.2,0-1.3,0.2-1.4,0.1c-0.3-0.3,0.1-1.3,0.2-1.7c0.3-0.8,0.6-1.7,1-2.5c2-4.2,3.6-8.4,5-12.8c3.1-9.6,4.6-20.2,0.8-29.9
			c-7.4-18.7-30.3-20.2-47.3-22.9c-5.4-0.9-10.7-1.6-16.1-2.7c-4.7-0.9-9.4-2.1-13.5-4.8c-8.1-5.2-10.6-14.8-12.4-23.6
			c-1-4.8-2.8-9.5-3.7-14.3c-0.4-2.4-0.5-4.8-0.6-7.3c-0.1-1.5-0.7-3.6,0-5c0.6-1.3,1.8-2.4,2.7-3.4c1.1-1.2,2.1-2.3,3.3-3.4
			c3.4-3.1,7.1-6,10.7-8.9c15.7-12.9,32.1-25.3,50.6-33.9c4.4-2,8.9-3.8,13.6-5.4c1.8-0.6,1-3.5-0.8-2.9
			c-19.7,6.4-37.2,17.8-53.5,30.4c-4.1,3.2-8.2,6.4-12.2,9.7c-3.6,2.9-7.3,5.7-10.7,8.9c-2.2,2.1-4.8,4.6-6.3,7.3
			c-0.9,1.6-0.7,3.6-0.5,5.3c0.2,2.4,0.1,4.7,0.4,7.1c0.6,4.8,2.3,9.4,3.5,14.2c1.2,4.7,1.9,9.4,3.7,13.9c1.7,4.3,4.1,8.4,7.5,11.5
			c3.6,3.2,8.1,5.2,12.7,6.4c5,1.3,10.2,2,15.4,2.9c5.7,0.9,11.4,1.9,17.2,2.8c8.6,1.4,17.8,3.2,25.1,8.4c8.1,5.8,11,15.5,10.3,25.1
			c-0.4,5.5-1.9,10.9-3.7,16.1c-0.8,2.3-1.6,4.7-2.6,7c-0.8,1.6-1.6,3.2-2.2,4.8c-0.6,1.5-1.1,3.3-0.3,4.8c0.9,1.7,2.8,1.8,4.5,1.5
			c4.3-0.6,8.2-2.3,10.6-6c2.2-3.4,2.9-7.5,3.4-11.4c0.7-5.6,1.1-11.2,1.7-16.8c0.8-8.2,1.3-17.2-1.9-24.9c-1.6-3.8-4.1-7-7.4-9.3
			c-4.2-2.8-9.3-3.9-14.2-5c-11.4-2.5-22.8-5-34.3-7.5c-9.2-2-19.1-4.2-26.7-10.2c-7.1-5.7-11.1-14.5-11-23.6
			c0.2-9.6,5.5-17.8,12-24.4c6.9-7,15-12.9,22.8-19c8.4-6.5,16.8-12.9,25.6-19c4.1-2.8,8.2-5.6,12.4-8.2
			C723.9,696.8,722.4,694.2,720.7,695.2L720.7,695.2z"/>
	</g>
</g>
<g>
	<path fill="#FFFFFF" class="shape" d="M1172.9,286.3c-3.4-2.8-6.3-6.3-8.5-10.1c-0.2-0.3-0.3-0.6-0.4-1c-0.2-1,0.6-1.8,1.4-2.3
		c1.5-0.9,3.3-0.9,5-0.8c3.9,0.2,7.7,0.9,11.3,2.2c1.1,0.4,2.5,1.1,2.5,2.3c0,0.9-0.7,1.7-1.4,2.3c-3.1,2.8-6.5,5.2-10.1,7.2"/>
	<g>
		<path d="M1174,285.3c-2.3-1.9-4.4-4.1-6.1-6.5c-0.4-0.6-0.8-1.2-1.2-1.8c-0.3-0.5-1-1.3-1.1-1.9c-0.1-1.2,2.4-1.5,3.2-1.5
			c3.2-0.2,6.5,0.4,9.6,1.2c1.3,0.4,2.9,0.6,4,1.4c0.4,0.3,0.5,0.4,0.3,0.8c-0.3,0.6-1.1,1.1-1.6,1.6c-2.8,2.4-5.8,4.5-8.9,6.3
			c-1.7,0.9-0.2,3.5,1.5,2.6c3.6-2,7-4.4,10.1-7.2c1.4-1.2,2.6-2.9,1.8-4.8c-0.7-1.6-2.5-2.3-4-2.8c-3.9-1.3-8.3-2.2-12.4-2.1
			c-1.9,0-3.9,0.4-5.3,1.7c-1.6,1.5-1.4,3.3-0.4,5.1c2.2,3.8,5.1,7.2,8.5,10C1173.3,288.6,1175.5,286.5,1174,285.3L1174,285.3z"/>
	</g>
</g>
</svg>
