<?xml version="1.0" encoding="utf-8"?>
<!-- Generator: Adobe Illustrator 24.2.3, SVG Export Plug-In . SVG Version: 6.00 Build 0)  -->
<svg version="1.1" xmlns="http://www.w3.org/2000/svg" xmlns:xlink="http://www.w3.org/1999/xlink" x="0px" y="0px"
	 viewBox="0 0 400 300" enable-background="new 0 0 400 300" xml:space="preserve">
<g id="textlayer">
	<text transform="matrix(1 0 0 1 21 40)" font-family="'Calibri'" font-size="24px">My SVG-coloring book</text>
</g>
<g id="Coloringbook">
	<g id="colors">
		<path class= "color" fill="#ED1C24" stroke="#000000" stroke-miterlimit="10" d="M113.6,275h-76c-6.6,0-12-5.4-12-12v-3c0-6.6,5.4-12,12-12h76
			c6.6,0,12,5.4,12,12v3C125.6,269.6,120.2,275,113.6,275z"/>
		<path class= "color" fill="#009245" stroke="#000000" stroke-miterlimit="10" d="M229.6,275h-76c-6.6,0-12-5.4-12-12v-3c0-6.6,5.4-12,12-12h76
			c6.6,0,12,5.4,12,12v3C241.6,269.6,236.2,275,229.6,275z"/>
		<path class= "color" fill="#0060FF" stroke="#000000" stroke-miterlimit="10" d="M353.6,275h-76c-6.6,0-12-5.4-12-12v-3c0-6.6,5.4-12,12-12h76
			c6.6,0,12,5.4,12,12v3C365.6,269.6,360.2,275,353.6,275z"/>
	</g>
	<g id="shapes">
		<rect class= "shape" x="25.6" y="94.1" fill="#FFFFFF" stroke="#000000" stroke-miterlimit="10" width="100" height="100"/>
		<circle class= "shape" fill="#FFFFFF" stroke="#000000" stroke-miterlimit="10" cx="191.6" cy="144.1" r="50"/>
		<polygon class= "shape" fill="#FFFFFF" stroke="#000000" stroke-miterlimit="10" points="335.8,88.3 269.3,107.3 266.9,176.4 331.8,200 
			374.4,145.5 		"/>
	</g>
</g>
</svg>
